<?xml version="1.0" encoding="UTF-8"?><svg id="Layer_1" xmlns="http://www.w3.org/2000/svg" width="684.94" height="853.11" viewBox="0 0 684.94 853.11"><g id="drinkClassic"><path d="m102.89,129.47c12.38-30.05,467.79-43.02,477.58,0,9.78,43.02-50.33,637.04-73.31,684.78-22.98,47.73-307.5,46.56-330.84,0-23.34-46.56-85.8-654.72-73.43-684.78Z" fill="#e5c7ac" stroke="#e5c7ac" stroke-miterlimit="10" stroke-width="7"/><path d="m120.15,407.78s62.76-59.54,139.37-12.4c76.61,47.14,130.83,19.53,189.76-.84,58.93-20.37,84.33-16.36,113.87,10.24.07-.51-28.99,253.65-30,260-69.37,12.24-66.96-27.46-126.36-30.99-59.4-3.54-42.43,49.5-103.95,55.39-61.52,5.89-154.68-36.4-154.68-36.4,0,0-25.88-210.32-28-245Z" fill="#db9" stroke-width="0"/><path d="m193.5,391.43c-1.75-9.46-3.18-18.98-4.47-28.52l1.07,7.98c-7.07-52.77-10.76-106.18-11.9-159.39-.31-14.57-.38-29.14-.05-43.71.35-15.7-14.05-30.71-30-30s-29.62,13.18-30,30c-1.44,63.83,2.73,128.27,10.48,191.61,1.96,16.04,4.08,32.09,7.02,47.99,1.3,7.03,7.82,14.44,13.79,17.93,6.43,3.76,15.91,5.36,23.12,3.02,16.56-5.36,24.02-20.33,20.95-36.9h0Z" fill="#f4ddce" stroke-width="0"/><path d="m533.15,664.78c-69.37,12.24-75.14-35.58-134.54-39.12-59.4-3.54-42.43,49.5-103.95,55.39-61.52,5.89-146.51-28.28-146.51-28.28,8.81,69.07,18.28,137.1,29,163,27.95,42.92,308,44,331-3,10.97-49.47,19.28-98.8,25-148Z" fill="#d3aa81" stroke-width="0"/><circle cx="402.97" cy="583.24" r="27.7" fill="#333" stroke-width="0"/><path d="m192.77,461.73c-.04-.07-.07-.14-.11-.21l3.02,7.17c-.02-.07-.04-.13-.05-.19l1.07,7.98c0-.06,0-.12,0-.18l-1.07,7.98c0-.06.02-.11.04-.16l-3.02,7.17c.03-.07.06-.13.11-.18l-4.69,6.07s.08-.08.12-.12l-6.07,4.69c.1-.08.21-.13.32-.18l-7.17,3.02c.18-.07.35-.11.54-.13l-7.98,1.07c.25-.03.49-.02.74,0l-7.98-1.07c.19.03.36.07.54.14l-7.17-3.02c.1.04.18.09.27.15l-6.07-4.69c.06.05.11.1.16.16l-4.69-6.07s.06.09.08.14l-3.02-7.17c.02.05.04.1.05.15l-1.07-7.98c0,.06,0,.11,0,.17l1.07-7.98c-.01.09-.04.17-.07.25l3.02-7.17c-.03.07-.07.14-.11.21-2.19,3.44-3.38,7.16-3.56,11.15-.89,3.99-.71,7.98.54,11.96.93,3.9,2.72,7.3,5.37,10.2,2.12,3.27,4.92,5.84,8.42,7.73l7.17,3.02c5.32,1.43,10.63,1.43,15.95,0l7.17-3.02c4.51-2.67,8.1-6.25,10.76-10.76,2.82-4.71,4.28-10.27,4.27-15.75,0-2.7-.26-5.5-1.09-8.08-.16-.49-2.8-6.76-3.05-7.24-1.23-2.34-2.98-4.42-4.85-6.29s-3.97-3.62-6.31-4.86c-1.14-.61-3.96-1.68-3.7-1.57,2.32.98-2.58-1.24-3.74-1.57-2.82-.8-5.8-1.16-8.72-1.19-1.37-.01-4.19.53-4.36.56-.54.07-2.99.25-4.34.6-4.7,1.24-10.45,4.38-13.79,8-.91.99-.83,1.06-2.42,3.12,1.16-1.51-1.8,2.09-2.42,3.15-.18.3-2.94,6.87-3.06,7.24-.02.05-.02.11-.04.16-.58,2.65-.94,5.32-1.07,8,0,.03,0,.06,0,.09.02.53.97,7.58,1.09,8.1.6,2.64,1.83,5.16,3.17,7.51,1.89,3.5,4.46,6.3,7.73,8.42,2.9,2.65,6.3,4.44,10.2,5.37,3.99,1.25,7.98,1.43,11.96.54,3.99-.18,7.71-1.37,11.15-3.56l6.07-4.69c3.72-3.74,6.29-8.16,7.72-13.24l1.07-7.98c-.02-5.42-1.38-10.46-4.1-15.14h0Z" fill="#f4ddce" stroke-width="0"/><circle cx="353.93" cy="705.81" r="27.7" fill="#333" stroke-width="0"/><circle cx="282.04" cy="611.52" r="27.7" fill="#333" stroke-width="0"/><circle cx="438.21" cy="659.26" r="35.36" fill="#333" stroke-width="0"/><circle cx="231.95" cy="679.29" r="35.36" fill="#333" stroke-width="0"/><circle cx="281.45" cy="759.44" r="33" fill="#333" stroke-width="0"/><circle cx="426.42" cy="754.73" r="33" fill="#333" stroke-width="0"/></g><path d="m46.1,42.74c0,1.53-.38,3.18-1.13,4.96-.75,1.78-1.94,3.52-3.55,5.23-1.61,1.71-3.68,3.1-6.18,4.17-2.51,1.07-5.43,1.6-8.77,1.6-2.53,0-4.83-.24-6.9-.72-2.07-.48-3.95-1.23-5.64-2.24-1.69-1.01-3.24-2.35-4.66-4.01-1.26-1.5-2.34-3.19-3.24-5.05-.89-1.86-1.57-3.85-2.01-5.97-.45-2.11-.67-4.36-.67-6.74,0-3.86.56-7.32,1.68-10.37,1.12-3.05,2.73-5.67,4.83-7.83s4.55-3.82,7.36-4.96,5.81-1.7,9-1.7c3.88,0,7.34.77,10.37,2.32,3.03,1.55,5.35,3.46,6.97,5.74,1.61,2.28,2.42,4.43,2.42,6.46,0,1.11-.39,2.09-1.18,2.94-.79.85-1.73,1.28-2.85,1.28-1.24,0-2.18-.29-2.8-.88-.62-.59-1.31-1.6-2.08-3.04-1.27-2.38-2.75-4.16-4.47-5.33-1.71-1.18-3.82-1.77-6.33-1.77-3.99,0-7.17,1.52-9.54,4.55-2.37,3.03-3.55,7.34-3.55,12.92,0,3.73.52,6.83,1.57,9.31,1.05,2.48,2.53,4.32,4.45,5.55s4.17,1.83,6.74,1.83c2.79,0,5.15-.69,7.08-2.08,1.93-1.38,3.39-3.42,4.37-6.1.41-1.26.93-2.29,1.54-3.09.61-.8,1.59-1.19,2.94-1.19,1.16,0,2.15.4,2.98,1.21s1.24,1.81,1.24,3.01Z" fill="#7063bf" stroke-width="0"/><path d="m67.63,15v34.91h19.7c1.57,0,2.77.38,3.61,1.14.84.76,1.26,1.72,1.26,2.88s-.42,2.13-1.24,2.86c-.83.73-2.04,1.1-3.63,1.1h-23.46c-2.12,0-3.64-.47-4.56-1.41-.93-.94-1.39-2.45-1.39-4.55V15c0-1.96.44-3.44,1.33-4.42.88-.98,2.04-1.47,3.48-1.47s2.64.49,3.55,1.46c.91.97,1.36,2.45,1.36,4.43Z" fill="#7063bf" stroke-width="0"/><path d="m131.67,52.46l-2.29-6.02h-19.5l-2.29,6.15c-.89,2.4-1.66,4.02-2.29,4.86-.63.84-1.67,1.26-3.11,1.26-1.22,0-2.3-.45-3.24-1.34-.94-.89-1.41-1.91-1.41-3.04,0-.65.11-1.33.33-2.03.22-.7.58-1.67,1.08-2.91l12.27-31.14c.35-.89.77-1.97,1.26-3.22.49-1.25,1.01-2.29,1.57-3.12.56-.83,1.29-1.5,2.19-2.01.9-.51,2.02-.77,3.35-.77s2.48.26,3.39.77c.9.51,1.64,1.17,2.19,1.98.56.81,1.03,1.67,1.41,2.6.38.93.87,2.17,1.46,3.71l12.53,30.95c.98,2.36,1.47,4.07,1.47,5.14s-.46,2.13-1.39,3.06c-.93.93-2.04,1.39-3.35,1.39-.76,0-1.42-.14-1.96-.41-.55-.27-1-.64-1.37-1.11-.37-.47-.77-1.19-1.19-2.16-.42-.97-.79-1.83-1.1-2.57Zm-19.24-13.32h14.33l-7.23-19.79-7.1,19.79Z" fill="#7063bf" stroke-width="0"/><path d="m188.9,43.49c0,2.9-.75,5.51-2.24,7.82-1.49,2.31-3.68,4.12-6.56,5.43s-6.29,1.96-10.24,1.96c-4.73,0-8.64-.89-11.71-2.68-2.18-1.29-3.95-3-5.32-5.15-1.36-2.15-2.04-4.24-2.04-6.26,0-1.18.41-2.19,1.23-3.03.82-.84,1.86-1.26,3.12-1.26,1.02,0,1.89.33,2.6.98s1.31,1.62,1.82,2.91c.61,1.53,1.27,2.8,1.98,3.83.71,1.03,1.71,1.87,2.99,2.54,1.29.67,2.98,1,5.07,1,2.88,0,5.22-.67,7.02-2.01,1.8-1.34,2.7-3.01,2.7-5.02,0-1.59-.49-2.88-1.46-3.88-.97-.99-2.22-1.75-3.76-2.27-1.54-.52-3.59-1.08-6.17-1.67-3.45-.81-6.33-1.75-8.65-2.83-2.32-1.08-4.17-2.55-5.53-4.42-1.36-1.86-2.04-4.18-2.04-6.95s.72-4.98,2.16-7.03c1.44-2.05,3.52-3.63,6.25-4.73,2.73-1.1,5.93-1.65,9.62-1.65,2.94,0,5.49.37,7.64,1.1s3.93,1.7,5.35,2.91c1.42,1.21,2.45,2.48,3.11,3.81.65,1.33.98,2.63.98,3.89,0,1.16-.41,2.2-1.23,3.12-.82.93-1.84,1.39-3.06,1.39-1.11,0-1.96-.28-2.54-.83-.58-.56-1.21-1.47-1.88-2.73-.87-1.81-1.92-3.22-3.14-4.24-1.22-1.01-3.18-1.52-5.89-1.52-2.51,0-4.53.55-6.07,1.65-1.54,1.1-2.31,2.43-2.31,3.97,0,.96.26,1.79.79,2.49.52.7,1.24,1.3,2.16,1.8.92.5,1.84.9,2.78,1.18.94.28,2.49.7,4.65,1.24,2.7.63,5.15,1.33,7.34,2.09,2.19.76,4.06,1.69,5.59,2.78,1.54,1.09,2.74,2.47,3.6,4.14.86,1.67,1.29,3.71,1.29,6.13Z" fill="#7063bf" stroke-width="0"/><path d="m236.87,43.49c0,2.9-.75,5.51-2.24,7.82-1.49,2.31-3.68,4.12-6.56,5.43s-6.29,1.96-10.24,1.96c-4.73,0-8.64-.89-11.71-2.68-2.18-1.29-3.95-3-5.32-5.15-1.36-2.15-2.04-4.24-2.04-6.26,0-1.18.41-2.19,1.23-3.03.82-.84,1.86-1.26,3.12-1.26,1.02,0,1.89.33,2.6.98s1.31,1.62,1.82,2.91c.61,1.53,1.27,2.8,1.98,3.83.71,1.03,1.71,1.87,2.99,2.54,1.29.67,2.98,1,5.07,1,2.88,0,5.22-.67,7.02-2.01,1.8-1.34,2.7-3.01,2.7-5.02,0-1.59-.49-2.88-1.46-3.88-.97-.99-2.22-1.75-3.76-2.27-1.54-.52-3.59-1.08-6.17-1.67-3.45-.81-6.33-1.75-8.65-2.83-2.32-1.08-4.17-2.55-5.53-4.42-1.36-1.86-2.04-4.18-2.04-6.95s.72-4.98,2.16-7.03c1.44-2.05,3.52-3.63,6.25-4.73,2.73-1.1,5.93-1.65,9.62-1.65,2.94,0,5.49.37,7.64,1.1s3.93,1.7,5.35,2.91c1.42,1.21,2.45,2.48,3.11,3.81.65,1.33.98,2.63.98,3.89,0,1.16-.41,2.2-1.23,3.12-.82.93-1.84,1.39-3.06,1.39-1.11,0-1.96-.28-2.54-.83-.58-.56-1.21-1.47-1.88-2.73-.87-1.81-1.92-3.22-3.14-4.24-1.22-1.01-3.18-1.52-5.89-1.52-2.51,0-4.53.55-6.07,1.65-1.54,1.1-2.31,2.43-2.31,3.97,0,.96.26,1.79.79,2.49.52.7,1.24,1.3,2.16,1.8.92.5,1.84.9,2.78,1.18.94.28,2.49.7,4.65,1.24,2.7.63,5.15,1.33,7.34,2.09,2.19.76,4.06,1.69,5.59,2.78,1.54,1.09,2.74,2.47,3.6,4.14.86,1.67,1.29,3.71,1.29,6.13Z" fill="#7063bf" stroke-width="0"/><path d="m248.79,52.78V15c0-1.96.45-3.44,1.34-4.42.89-.98,2.05-1.47,3.47-1.47s2.64.49,3.55,1.46c.91.97,1.36,2.45,1.36,4.43v37.79c0,1.99-.45,3.47-1.36,4.45s-2.09,1.47-3.55,1.47-2.55-.5-3.45-1.49-1.36-2.47-1.36-4.43Z" fill="#7063bf" stroke-width="0"/><path d="m313.51,42.74c0,1.53-.38,3.18-1.13,4.96-.75,1.78-1.94,3.52-3.55,5.23-1.61,1.71-3.68,3.1-6.18,4.17-2.51,1.07-5.43,1.6-8.77,1.6-2.53,0-4.83-.24-6.9-.72-2.07-.48-3.95-1.23-5.64-2.24-1.69-1.01-3.24-2.35-4.66-4.01-1.26-1.5-2.34-3.19-3.24-5.05-.89-1.86-1.57-3.85-2.01-5.97-.45-2.11-.67-4.36-.67-6.74,0-3.86.56-7.32,1.68-10.37,1.12-3.05,2.73-5.67,4.83-7.83s4.55-3.82,7.36-4.96,5.81-1.7,9-1.7c3.88,0,7.34.77,10.37,2.32,3.03,1.55,5.35,3.46,6.97,5.74,1.61,2.28,2.42,4.43,2.42,6.46,0,1.11-.39,2.09-1.18,2.94-.79.85-1.73,1.28-2.85,1.28-1.24,0-2.18-.29-2.8-.88-.62-.59-1.31-1.6-2.08-3.04-1.27-2.38-2.75-4.16-4.47-5.33-1.71-1.18-3.82-1.77-6.33-1.77-3.99,0-7.17,1.52-9.54,4.55-2.37,3.03-3.55,7.34-3.55,12.92,0,3.73.52,6.83,1.57,9.31,1.05,2.48,2.53,4.32,4.45,5.55s4.17,1.83,6.74,1.83c2.79,0,5.15-.69,7.08-2.08,1.93-1.38,3.39-3.42,4.37-6.1.41-1.26.93-2.29,1.54-3.09.61-.8,1.59-1.19,2.94-1.19,1.16,0,2.15.4,2.98,1.21s1.24,1.81,1.24,3.01Z" fill="#7063bf" stroke-width="0"/><path d="m361.75,50.66l-7.69-30.55v33.11c0,1.83-.41,3.21-1.23,4.12-.82.92-1.9,1.38-3.26,1.38s-2.38-.45-3.21-1.36c-.83-.9-1.24-2.28-1.24-4.14V15.26c0-2.09.54-3.51,1.64-4.24,1.09-.73,2.56-1.1,4.42-1.1h3.01c1.81,0,3.12.16,3.94.49.82.33,1.42.92,1.82,1.77.39.85.84,2.24,1.34,4.16l6.97,26.27,6.97-26.27c.5-1.92.95-3.3,1.34-4.16.39-.85,1-1.44,1.82-1.77.82-.33,2.13-.49,3.94-.49h3.01c1.85,0,3.33.37,4.42,1.1,1.09.73,1.64,2.14,1.64,4.24v37.95c0,1.83-.41,3.21-1.23,4.12-.82.92-1.91,1.38-3.29,1.38-1.29,0-2.34-.46-3.17-1.38-.83-.92-1.24-2.29-1.24-4.12V20.1l-7.69,30.55c-.5,1.99-.91,3.44-1.23,4.37s-.9,1.77-1.75,2.54-2.03,1.15-3.53,1.15c-1.13,0-2.09-.25-2.88-.74-.79-.49-1.4-1.12-1.83-1.88-.44-.76-.78-1.61-1.03-2.54-.25-.93-.51-1.89-.77-2.9Z" fill="#7063bf" stroke-width="0"/><path d="m405.05,52.78V15c0-1.96.45-3.44,1.34-4.42.89-.98,2.05-1.47,3.47-1.47s2.64.49,3.55,1.46c.91.97,1.36,2.45,1.36,4.43v37.79c0,1.99-.45,3.47-1.36,4.45s-2.09,1.47-3.55,1.47-2.55-.5-3.45-1.49-1.36-2.47-1.36-4.43Z" fill="#7063bf" stroke-width="0"/><path d="m438.43,15v34.91h19.7c1.57,0,2.77.38,3.61,1.14.84.76,1.26,1.72,1.26,2.88s-.42,2.13-1.24,2.86c-.83.73-2.04,1.1-3.63,1.1h-23.46c-2.12,0-3.64-.47-4.56-1.41-.93-.94-1.39-2.45-1.39-4.55V15c0-1.96.44-3.44,1.33-4.42.88-.98,2.04-1.47,3.48-1.47s2.64.49,3.55,1.46c.91.97,1.36,2.45,1.36,4.43Z" fill="#7063bf" stroke-width="0"/><path d="m482.44,15v16.81l19.07-19.89c.92-.96,1.7-1.67,2.34-2.13s1.5-.69,2.57-.69c1.4,0,2.52.41,3.39,1.23.86.82,1.29,1.82,1.29,2.99,0,1.42-.73,2.83-2.19,4.22l-11.81,11.19,13.61,19.5c.96,1.35,1.68,2.54,2.16,3.55.48,1.01.72,2,.72,2.96,0,1.07-.42,2-1.26,2.78-.84.79-1.98,1.18-3.42,1.18-1.35,0-2.45-.29-3.3-.87-.85-.58-1.57-1.35-2.16-2.31-.59-.96-1.11-1.83-1.57-2.62l-11.48-17.67-7.95,7.62v9.91c0,2.01-.46,3.5-1.37,4.47-.92.97-2.09,1.46-3.53,1.46-.83,0-1.63-.22-2.39-.65-.76-.44-1.35-1.03-1.77-1.77-.31-.61-.49-1.32-.56-2.13-.07-.81-.1-1.97-.1-3.5V15c0-1.96.43-3.44,1.29-4.42s2.03-1.47,3.52-1.47,2.64.49,3.55,1.46c.91.97,1.36,2.45,1.36,4.43Z" fill="#7063bf" stroke-width="0"/><path d="m576.72,17.94h-10.6v34.84c0,2.01-.45,3.5-1.34,4.47-.89.97-2.05,1.46-3.47,1.46s-2.61-.49-3.52-1.47-1.36-2.46-1.36-4.45V17.94h-10.6c-1.66,0-2.89-.36-3.7-1.1-.81-.73-1.21-1.7-1.21-2.89s.42-2.22,1.26-2.95c.84-.72,2.05-1.08,3.65-1.08h30.88c1.68,0,2.93.37,3.75,1.11.82.74,1.23,1.71,1.23,2.91s-.42,2.16-1.24,2.89c-.83.73-2.07,1.1-3.73,1.1Z" fill="#7063bf" stroke-width="0"/><path d="m622.33,17.42h-21.89v11.78h20.15c1.48,0,2.59.33,3.32,1,.73.67,1.1,1.54,1.1,2.63s-.36,1.98-1.08,2.67c-.72.69-1.83,1.03-3.34,1.03h-20.15v13.64h22.64c1.53,0,2.68.35,3.45,1.06.77.71,1.16,1.65,1.16,2.83s-.39,2.06-1.16,2.76c-.77.71-1.93,1.06-3.45,1.06h-26.4c-2.12,0-3.64-.47-4.56-1.41-.93-.94-1.39-2.45-1.39-4.55V15.88c0-1.4.21-2.54.62-3.42.41-.88,1.06-1.53,1.95-1.93.88-.4,2.01-.61,3.39-.61h25.65c1.55,0,2.7.34,3.45,1.03.75.69,1.13,1.59,1.13,2.7s-.38,2.04-1.13,2.73c-.75.69-1.9,1.03-3.45,1.03Z" fill="#7063bf" stroke-width="0"/><path d="m669.39,52.46l-2.29-6.02h-19.5l-2.29,6.15c-.89,2.4-1.66,4.02-2.29,4.86-.63.84-1.67,1.26-3.11,1.26-1.22,0-2.3-.45-3.24-1.34-.94-.89-1.41-1.91-1.41-3.04,0-.65.11-1.33.33-2.03.22-.7.58-1.67,1.08-2.91l12.27-31.14c.35-.89.77-1.97,1.26-3.22.49-1.25,1.01-2.29,1.57-3.12.56-.83,1.29-1.5,2.19-2.01.9-.51,2.02-.77,3.35-.77s2.48.26,3.39.77c.9.51,1.64,1.17,2.19,1.98.56.81,1.03,1.67,1.41,2.6.38.93.87,2.17,1.46,3.71l12.53,30.95c.98,2.36,1.47,4.07,1.47,5.14s-.46,2.13-1.39,3.06c-.93.93-2.04,1.39-3.35,1.39-.76,0-1.42-.14-1.96-.41-.55-.27-1-.64-1.37-1.11-.37-.47-.77-1.19-1.19-2.16-.42-.97-.79-1.83-1.1-2.57Zm-19.24-13.32h14.33l-7.23-19.79-7.1,19.79Z" fill="#7063bf" stroke-width="0"/></svg>