<?xml version="1.0" encoding="UTF-8"?><svg id="Layer_1" xmlns="http://www.w3.org/2000/svg" width="487.25" height="754.75" viewBox="0 0 487.25 754.75"><g id="drinkBrown"><path d="m5.11,31.12c12.38-30.05,467.79-43.02,477.58,0,9.78,43.02-50.33,637.04-73.31,684.78-22.98,47.73-307.5,46.56-330.84,0C55.2,669.34-7.27,61.17,5.11,31.12Z" fill="#e5c7ac" stroke="#e5c7ac" stroke-miterlimit="10" stroke-width="7"/><path d="m18.36,266.9s65.76-40.98,142.37-8.53c76.61,32.44,130.83,13.44,189.76-.58,58.93-14.02,89.33-13.66,118.87,4.64,0,0-3,31-5,51-69.37,8.43-90.6,43.43-150,41-59.4-2.43-47.79-33.5-109.32-29.45-61.52,4.06-180.68,4.45-180.68,4.45,0,0-3-38.44-6-62.53Z" fill="#d75f00" stroke-width="0"/><path d="m22.36,309.43s62.76-59.54,139.37-12.4c76.61,47.14,130.83,19.53,189.76-.84,58.93-20.37,84.33-16.36,113.87,10.24.07-.51-28.99,253.65-30,260-69.37,12.24-66.96-27.46-126.36-30.99-59.4-3.54-42.43,49.5-103.95,55.39-61.52,5.89-154.68-36.4-154.68-36.4,0,0-25.88-210.32-28-245Z" fill="#db9" stroke-width="0"/><path d="m438.36,542.43c-63,7-66.46-52.88-137-50-59.46,2.43-86,57-124,48-105.59-25.01-131-17-131-17,4,33,9,68,12,90,27.95,42.92,350,32,373-15,1-5,6-47,7-56Z" fill="#d75f00" stroke-width="0"/><path d="m34.36,423.43s50.66-83.54,132.38-73.28c81.72,10.26,182.7,100.44,219.62,52.28,23-30,49-89,77-79l-5,48c-70.14,18.78-35.13,93.77-93.54,95.9-52.67,1.92-162.81-101.49-229.46-70.9-56.47,25.92-94,88-94,88l-7-61Z" fill="#ac3b01" stroke-width="0"/><path d="m4.36,33.43c6.36-12.8,93-25,125-25,45.79,0,13,214,40,214,59,3,72-194,136-189,56-2,41.96,97.69,77,84,35.21-13.76,38-114,100-86,.06,38.25-1.19,90.22-5,133-71.98-9.51-61.4,122.85-116,102-28.11-10.73-20.1-142.11-66-149-39-6-79,135-126,137-60-8-44-129-80-134-42.94-5.96-80,40-80,40C5.22,112.66,2.76,68.58,4.36,33.43Z" fill="#613021" stroke-width="0"/><path d="m95.71,293.08c-1.75-9.46-3.18-18.98-4.47-28.52l1.07,7.98c-7.07-52.77-10.76-106.18-11.9-159.39-.31-14.57-.38-29.14-.05-43.71.35-15.7-14.05-30.71-30-30s-29.62,13.18-30,30c-1.44,63.83,2.73,128.27,10.48,191.61,1.96,16.04,4.08,32.09,7.02,47.99,1.3,7.03,7.82,14.44,13.79,17.93,6.43,3.76,15.91,5.36,23.12,3.02,16.56-5.36,24.02-20.33,20.95-36.9h0Z" fill="#f4ddce" stroke-width="0"/><path d="m436.36,566.43c-69.37,12.24-75.14-35.58-134.54-39.12-59.4-3.54-42.43,49.5-103.95,55.39-61.52,5.89-147.51-27.28-147.51-27.28,8.81,69.07,19.28,136.1,30,162,27.95,42.92,308,44,331-3,8.6-38.76,15.55-77.43,20.92-116.01,1.48-10.67,2.84-21.33,4.08-31.99Z" fill="#db9" stroke-width="0"/><path d="m420.36,667.43c-65.51,2.6-49.17-14.59-109-23-58.93-8.29-69.48,54.11-131,60-61.52,5.89-115-44-115-44,5,29,6,34,14,57,27.95,42.92,308,44,331-3,6-22,8-36,10-47Z" fill="#613021" stroke-width="0"/><circle cx="305.19" cy="484.88" r="27.7" fill="#333" stroke-width="0"/><path d="m94.99,363.37c-.04-.07-.07-.14-.11-.21l3.02,7.17c-.02-.07-.04-.13-.05-.19l1.07,7.98c0-.06,0-.12,0-.18l-1.07,7.98c0-.06.02-.11.04-.16l-3.02,7.17c.03-.07.06-.13.11-.18l-4.69,6.07s.08-.08.12-.12l-6.07,4.69c.1-.08.21-.13.32-.18l-7.17,3.02c.18-.07.35-.11.54-.13l-7.98,1.07c.25-.03.49-.02.74,0l-7.98-1.07c.19.03.36.07.54.14l-7.17-3.02c.1.04.18.09.27.15l-6.07-4.69c.06.05.11.1.16.16l-4.69-6.07s.06.09.08.14l-3.02-7.17c.02.05.04.1.05.15l-1.07-7.98c0,.06,0,.11,0,.17l1.07-7.98c-.01.09-.04.17-.07.25l3.02-7.17c-.03.07-.07.14-.11.21-2.19,3.44-3.38,7.16-3.56,11.15-.89,3.99-.71,7.98.54,11.96.93,3.9,2.72,7.3,5.37,10.2,2.12,3.27,4.92,5.84,8.42,7.73l7.17,3.02c5.32,1.43,10.63,1.43,15.95,0l7.17-3.02c4.51-2.67,8.1-6.25,10.76-10.76,2.82-4.71,4.28-10.27,4.27-15.75,0-2.7-.26-5.5-1.09-8.08-.16-.49-2.8-6.76-3.05-7.24-1.23-2.34-2.98-4.42-4.85-6.29s-3.97-3.62-6.31-4.86c-1.14-.61-3.96-1.68-3.7-1.57,2.32.98-2.58-1.24-3.74-1.57-2.82-.8-5.8-1.16-8.72-1.19-1.37-.01-4.19.53-4.36.56-.54.07-2.99.25-4.34.6-4.7,1.24-10.45,4.38-13.79,8-.91.99-.83,1.06-2.42,3.12,1.16-1.51-1.8,2.09-2.42,3.15-.18.3-2.94,6.87-3.06,7.24-.02.05-.02.11-.04.16-.58,2.65-.94,5.32-1.07,8,0,.03,0,.06,0,.09.02.53.97,7.58,1.09,8.1.6,2.64,1.83,5.16,3.17,7.51,1.89,3.5,4.46,6.3,7.73,8.42,2.9,2.65,6.3,4.44,10.2,5.37,3.99,1.25,7.98,1.43,11.96.54,3.99-.18,7.71-1.37,11.15-3.56l6.07-4.69c3.72-3.74,6.29-8.16,7.72-13.24l1.07-7.98c-.02-5.42-1.38-10.46-4.1-15.14h0Z" fill="#f4ddce" stroke-width="0"/><circle cx="256.15" cy="607.46" r="27.7" fill="#333" stroke-width="0"/><circle cx="184.26" cy="513.17" r="27.7" fill="#333" stroke-width="0"/><circle cx="340.42" cy="560.9" r="35.36" fill="#333" stroke-width="0"/><circle cx="134.16" cy="580.94" r="35.36" fill="#333" stroke-width="0"/><circle cx="183.67" cy="661.09" r="33" fill="#333" stroke-width="0"/><circle cx="328.64" cy="656.37" r="33" fill="#333" stroke-width="0"/></g></svg>