<?xml version="1.0" encoding="UTF-8"?><svg id="Layer_1" xmlns="http://www.w3.org/2000/svg" width="559.35" height="915.53" viewBox="0 0 559.35 915.53"><path d="m25.71,57.89h-14.66c-2.12,0-3.63-.47-4.53-1.42-.91-.95-1.36-2.46-1.36-4.53V15.88c0-2.12.46-3.64,1.39-4.56.93-.93,2.43-1.39,4.5-1.39h15.54c2.29,0,4.27.14,5.95.42,1.68.28,3.18.83,4.52,1.64,1.13.68,2.14,1.53,3.01,2.57.87,1.04,1.54,2.18,2,3.44s.69,2.58.69,3.97c0,4.8-2.4,8.31-7.2,10.53,6.3,2.01,9.46,5.91,9.46,11.71,0,2.68-.69,5.1-2.06,7.25-1.38,2.15-3.23,3.74-5.56,4.76-1.46.61-3.14,1.04-5.04,1.29-1.9.25-4.11.38-6.64.38ZM14.88,17.22v12.4h8.9c2.42,0,4.29-.23,5.61-.69,1.32-.46,2.33-1.33,3.03-2.62.54-.92.82-1.94.82-3.07,0-2.42-.86-4.03-2.58-4.83-1.72-.8-4.35-1.19-7.88-1.19h-7.88Zm10.11,19.37h-10.11v14h10.44c6.56,0,9.85-2.37,9.85-7.1,0-2.42-.85-4.18-2.55-5.27-1.7-1.09-4.24-1.63-7.62-1.63Z" fill="#7063bf" stroke-width="0"/><path d="m69.76,37.38h-3.4v15.41c0,2.03-.45,3.52-1.34,4.48-.89.96-2.06,1.44-3.5,1.44-1.55,0-2.75-.5-3.6-1.51-.85-1-1.28-2.47-1.28-4.42V15.88c0-2.09.47-3.61,1.41-4.55.94-.94,2.45-1.41,4.55-1.41h15.8c2.18,0,4.05.09,5.59.28,1.55.19,2.94.56,4.19,1.13,1.5.63,2.83,1.54,3.99,2.71,1.16,1.18,2.03,2.55,2.63,4.11.6,1.56.9,3.21.9,4.96,0,3.58-1.01,6.43-3.03,8.57-2.02,2.14-5.08,3.65-9.18,4.55,1.72.92,3.37,2.27,4.94,4.06,1.57,1.79,2.97,3.69,4.2,5.71,1.23,2.02,2.19,3.84,2.88,5.46.69,1.62,1.03,2.74,1.03,3.35s-.2,1.26-.61,1.88c-.4.62-.95,1.11-1.65,1.47-.7.36-1.51.54-2.42.54-1.09,0-2.01-.26-2.75-.77-.74-.51-1.38-1.16-1.91-1.95-.54-.79-1.26-1.94-2.18-3.47l-3.89-6.48c-1.4-2.38-2.64-4.19-3.75-5.43-1.1-1.24-2.22-2.09-3.35-2.55-1.13-.46-2.56-.69-4.29-.69Zm5.56-20.15h-8.96v13.18h8.7c2.33,0,4.3-.2,5.89-.61,1.59-.4,2.81-1.09,3.65-2.06.84-.97,1.26-2.31,1.26-4.01,0-1.33-.34-2.5-1.01-3.52-.68-1.01-1.61-1.77-2.81-2.27-1.13-.48-3.37-.72-6.71-.72Z" fill="#7063bf" stroke-width="0"/><path d="m129.28,9.11c4.97,0,9.24,1.01,12.81,3.03,3.57,2.02,6.26,4.89,8.1,8.6s2.75,8.09,2.75,13.1c0,3.71-.5,7.08-1.5,10.11-1,3.03-2.51,5.66-4.51,7.88-2.01,2.22-4.47,3.93-7.39,5.1-2.92,1.18-6.27,1.77-10.04,1.77s-7.11-.61-10.08-1.82c-2.97-1.21-5.44-2.92-7.43-5.12-1.99-2.2-3.48-4.85-4.5-7.95-1.01-3.1-1.52-6.44-1.52-10.04s.53-7.07,1.59-10.14c1.06-3.08,2.59-5.69,4.6-7.85,2.01-2.16,4.45-3.81,7.33-4.96,2.88-1.14,6.15-1.72,9.81-1.72Zm13.8,24.67c0-3.51-.57-6.55-1.7-9.13-1.13-2.57-2.75-4.52-4.86-5.84-2.11-1.32-4.52-1.98-7.25-1.98-1.94,0-3.74.37-5.38,1.1-1.65.73-3.06,1.79-4.25,3.19-1.19,1.4-2.13,3.18-2.81,5.35-.69,2.17-1.03,4.61-1.03,7.31s.34,5.19,1.03,7.39c.69,2.2,1.66,4.03,2.91,5.48s2.69,2.54,4.32,3.25,3.41,1.08,5.35,1.08c2.49,0,4.77-.62,6.85-1.87,2.08-1.24,3.74-3.16,4.97-5.76,1.23-2.59,1.85-5.79,1.85-9.59Z" fill="#7063bf" stroke-width="0"/><path d="m199.3,50.33l-7.75-28.76-7.85,28.76c-.61,2.18-1.1,3.75-1.46,4.69-.36.95-.99,1.8-1.88,2.55-.89.75-2.08,1.13-3.57,1.13-1.2,0-2.19-.22-2.96-.67-.77-.45-1.4-1.08-1.88-1.9-.48-.82-.87-1.79-1.18-2.91-.31-1.12-.58-2.16-.82-3.12l-7.98-32.29c-.48-1.88-.72-3.3-.72-4.29,0-1.24.44-2.29,1.31-3.14s1.95-1.28,3.24-1.28c1.77,0,2.96.57,3.57,1.7s1.15,2.78,1.6,4.94l6.28,28,7.03-26.21c.52-2.01.99-3.53,1.41-4.58.41-1.05,1.09-1.95,2.03-2.71.94-.76,2.21-1.14,3.83-1.14s2.91.4,3.81,1.19c.91.8,1.53,1.66,1.88,2.6s.82,2.49,1.41,4.64l7.1,26.21,6.28-28c.31-1.46.59-2.61.87-3.44.27-.83.74-1.57,1.41-2.22.67-.65,1.63-.98,2.9-.98s2.34.42,3.22,1.26c.88.84,1.33,1.89,1.33,3.16,0,.89-.24,2.32-.72,4.29l-7.98,32.29c-.55,2.18-1,3.78-1.36,4.79-.36,1.01-.97,1.9-1.83,2.67-.86.76-2.08,1.15-3.65,1.15-1.48,0-2.67-.37-3.57-1.11-.89-.74-1.52-1.58-1.87-2.5s-.84-2.51-1.47-4.76Z" fill="#7063bf" stroke-width="0"/><path d="m244.13,14.93l18.68,28.27V14.67c0-1.85.4-3.24,1.19-4.17.8-.93,1.87-1.39,3.22-1.39s2.5.46,3.3,1.39c.81.93,1.21,2.32,1.21,4.17v37.72c0,4.21-1.75,6.31-5.23,6.31-.87,0-1.66-.13-2.36-.38s-1.35-.65-1.96-1.19-1.18-1.18-1.7-1.91-1.05-1.48-1.57-2.24l-18.22-27.94v28.1c0,1.83-.42,3.22-1.28,4.16-.85.94-1.94,1.41-3.27,1.41s-2.48-.47-3.3-1.42c-.83-.95-1.24-2.33-1.24-4.14V16.14c0-1.57.17-2.8.52-3.7.41-.98,1.1-1.78,2.06-2.4.96-.62,2-.93,3.11-.93.87,0,1.62.14,2.24.42.62.28,1.17.67,1.64,1.15.47.48.95,1.1,1.44,1.86.49.76,1,1.56,1.52,2.39Z" fill="#7063bf" stroke-width="0"/><path d="m342.14,43.49c0,2.9-.75,5.51-2.24,7.82-1.49,2.31-3.68,4.12-6.56,5.43s-6.29,1.96-10.24,1.96c-4.73,0-8.64-.89-11.71-2.68-2.18-1.29-3.95-3-5.32-5.15-1.36-2.15-2.04-4.24-2.04-6.26,0-1.18.41-2.19,1.23-3.03.82-.84,1.86-1.26,3.12-1.26,1.02,0,1.89.33,2.6.98s1.31,1.62,1.82,2.91c.61,1.53,1.27,2.8,1.98,3.83.71,1.03,1.71,1.87,2.99,2.54,1.29.67,2.98,1,5.07,1,2.88,0,5.22-.67,7.02-2.01,1.8-1.34,2.7-3.01,2.7-5.02,0-1.59-.49-2.88-1.46-3.88-.97-.99-2.22-1.75-3.76-2.27-1.54-.52-3.59-1.08-6.17-1.67-3.45-.81-6.33-1.75-8.65-2.83-2.32-1.08-4.17-2.55-5.53-4.42-1.36-1.86-2.04-4.18-2.04-6.95s.72-4.98,2.16-7.03c1.44-2.05,3.52-3.63,6.25-4.73,2.73-1.1,5.93-1.65,9.62-1.65,2.94,0,5.49.37,7.64,1.1s3.93,1.7,5.35,2.91c1.42,1.21,2.45,2.48,3.11,3.81.65,1.33.98,2.63.98,3.89,0,1.16-.41,2.2-1.23,3.12-.82.93-1.84,1.39-3.06,1.39-1.11,0-1.96-.28-2.54-.83-.58-.56-1.21-1.47-1.88-2.73-.87-1.81-1.92-3.22-3.14-4.24-1.22-1.01-3.18-1.52-5.89-1.52-2.51,0-4.53.55-6.07,1.65-1.54,1.1-2.31,2.43-2.31,3.97,0,.96.26,1.79.79,2.49.52.7,1.24,1.3,2.16,1.8.92.5,1.84.9,2.78,1.18.94.28,2.49.7,4.65,1.24,2.7.63,5.15,1.33,7.34,2.09,2.19.76,4.06,1.69,5.59,2.78,1.54,1.09,2.74,2.47,3.6,4.14.86,1.67,1.29,3.71,1.29,6.13Z" fill="#7063bf" stroke-width="0"/><path d="m353.73,38.06V15c0-1.96.44-3.44,1.33-4.42.88-.98,2.04-1.47,3.48-1.47s2.7.49,3.58,1.47c.88.98,1.32,2.45,1.32,4.42v23.59c0,2.68.3,4.92.9,6.72.6,1.8,1.66,3.2,3.19,4.19,1.53.99,3.66,1.49,6.41,1.49,3.79,0,6.48-1.01,8.05-3.03s2.36-5.08,2.36-9.18V15c0-1.98.44-3.46,1.31-4.43.87-.97,2.04-1.46,3.5-1.46s2.64.49,3.55,1.46c.91.97,1.36,2.45,1.36,4.43v23.06c0,3.75-.37,6.88-1.1,9.39s-2.11,4.71-4.14,6.61c-1.75,1.62-3.77,2.79-6.08,3.53-2.31.74-5.02,1.11-8.11,1.11-3.69,0-6.86-.4-9.52-1.19-2.66-.8-4.83-2.03-6.51-3.7-1.68-1.67-2.91-3.81-3.7-6.41-.79-2.61-1.18-5.72-1.18-9.34Z" fill="#7063bf" stroke-width="0"/><path d="m451.65,38.39v9.19c0,1.22-.12,2.2-.36,2.93-.24.73-.68,1.39-1.33,1.98-.64.59-1.47,1.16-2.47,1.7-2.9,1.57-5.69,2.72-8.38,3.44s-5.61,1.08-8.77,1.08c-3.69,0-7.04-.57-10.08-1.7-3.03-1.13-5.62-2.78-7.75-4.94s-3.78-4.78-4.92-7.85c-1.15-3.08-1.72-6.51-1.72-10.31s.56-7.14,1.67-10.24c1.11-3.1,2.75-5.73,4.91-7.88,2.16-2.16,4.79-3.81,7.88-4.96,3.1-1.14,6.61-1.72,10.53-1.72,3.23,0,6.08.43,8.57,1.29s4.5,1.95,6.05,3.25,2.72,2.69,3.5,4.15c.79,1.46,1.18,2.76,1.18,3.89,0,1.22-.45,2.26-1.36,3.12-.91.86-1.99,1.29-3.25,1.29-.7,0-1.37-.16-2.01-.49s-1.18-.79-1.62-1.37c-1.2-1.88-2.21-3.29-3.04-4.25-.83-.96-1.95-1.77-3.35-2.42-1.41-.65-3.2-.98-5.38-.98s-4.25.39-6.02,1.16c-1.77.77-3.28,1.9-4.53,3.37-1.25,1.47-2.21,3.28-2.88,5.41-.67,2.14-1,4.5-1,7.1,0,5.63,1.29,9.96,3.88,12.99,2.58,3.03,6.19,4.55,10.81,4.55,2.25,0,4.36-.29,6.33-.88s3.98-1.43,6-2.52v-7.79h-7.52c-1.81,0-3.18-.27-4.11-.82-.93-.54-1.39-1.47-1.39-2.78,0-1.07.39-1.95,1.16-2.65.77-.7,1.83-1.05,3.16-1.05h11.02c1.35,0,2.5.12,3.43.36s1.7.77,2.27,1.6c.58.83.87,2.07.87,3.73Z" fill="#7063bf" stroke-width="0"/><path d="m492.33,52.46l-2.29-6.02h-19.5l-2.29,6.15c-.89,2.4-1.66,4.02-2.29,4.86-.63.84-1.67,1.26-3.11,1.26-1.22,0-2.3-.45-3.24-1.34-.94-.89-1.41-1.91-1.41-3.04,0-.65.11-1.33.33-2.03.22-.7.58-1.67,1.08-2.91l12.27-31.14c.35-.89.77-1.97,1.26-3.22.49-1.25,1.01-2.29,1.57-3.12.56-.83,1.29-1.5,2.19-2.01.9-.51,2.02-.77,3.35-.77s2.48.26,3.39.77c.9.51,1.64,1.17,2.19,1.98.56.81,1.03,1.67,1.41,2.6.38.93.87,2.17,1.46,3.71l12.53,30.95c.98,2.36,1.47,4.07,1.47,5.14s-.46,2.13-1.39,3.06c-.93.93-2.04,1.39-3.35,1.39-.76,0-1.42-.14-1.96-.41-.55-.27-1-.64-1.37-1.11-.37-.47-.77-1.19-1.19-2.16-.42-.97-.79-1.83-1.1-2.57Zm-19.24-13.32h14.33l-7.23-19.79-7.1,19.79Z" fill="#7063bf" stroke-width="0"/><path d="m526.17,37.38h-3.4v15.41c0,2.03-.45,3.52-1.34,4.48-.89.96-2.06,1.44-3.5,1.44-1.55,0-2.75-.5-3.6-1.51-.85-1-1.28-2.47-1.28-4.42V15.88c0-2.09.47-3.61,1.41-4.55.94-.94,2.45-1.41,4.55-1.41h15.8c2.18,0,4.05.09,5.59.28,1.55.19,2.94.56,4.19,1.13,1.5.63,2.83,1.54,3.99,2.71,1.16,1.18,2.03,2.55,2.63,4.11.6,1.56.9,3.21.9,4.96,0,3.58-1.01,6.43-3.03,8.57-2.02,2.14-5.08,3.65-9.18,4.55,1.72.92,3.37,2.27,4.94,4.06,1.57,1.79,2.97,3.69,4.2,5.71,1.23,2.02,2.19,3.84,2.88,5.46.69,1.62,1.03,2.74,1.03,3.35s-.2,1.26-.61,1.88c-.4.62-.95,1.11-1.65,1.47-.7.36-1.51.54-2.42.54-1.09,0-2.01-.26-2.75-.77-.74-.51-1.38-1.16-1.91-1.95-.54-.79-1.26-1.94-2.18-3.47l-3.89-6.48c-1.4-2.38-2.64-4.19-3.75-5.43-1.1-1.24-2.22-2.09-3.35-2.55-1.13-.46-2.56-.69-4.29-.69Zm5.56-20.15h-8.96v13.18h8.7c2.33,0,4.3-.2,5.89-.61,1.59-.4,2.81-1.09,3.65-2.06.84-.97,1.26-2.31,1.26-4.01,0-1.33-.34-2.5-1.01-3.52-.68-1.01-1.61-1.77-2.81-2.27-1.13-.48-3.37-.72-6.71-.72Z" fill="#7063bf" stroke-width="0"/><path d="m138.82,113.01l-7.69-30.55v33.11c0,1.83-.41,3.21-1.23,4.12-.82.92-1.9,1.38-3.26,1.38s-2.38-.45-3.21-1.36c-.83-.9-1.24-2.28-1.24-4.14v-37.95c0-2.09.54-3.51,1.64-4.24,1.09-.73,2.56-1.1,4.42-1.1h3.01c1.81,0,3.12.16,3.94.49.82.33,1.42.92,1.82,1.77.39.85.84,2.24,1.34,4.16l6.97,26.27,6.97-26.27c.5-1.92.95-3.3,1.34-4.16.39-.85,1-1.44,1.82-1.77.82-.33,2.13-.49,3.94-.49h3.01c1.85,0,3.33.37,4.42,1.1,1.09.73,1.64,2.14,1.64,4.24v37.95c0,1.83-.41,3.21-1.23,4.12-.82.92-1.91,1.38-3.29,1.38-1.29,0-2.34-.46-3.17-1.38-.83-.92-1.24-2.29-1.24-4.12v-33.11l-7.69,30.55c-.5,1.99-.91,3.44-1.23,4.37s-.9,1.77-1.75,2.54-2.03,1.15-3.53,1.15c-1.13,0-2.09-.25-2.88-.74-.79-.49-1.4-1.12-1.83-1.88-.44-.76-.78-1.61-1.03-2.54-.25-.93-.51-1.89-.77-2.9Z" fill="#7063bf" stroke-width="0"/><path d="m182.11,115.14v-37.79c0-1.96.45-3.44,1.34-4.42.89-.98,2.05-1.47,3.47-1.47s2.64.49,3.55,1.46c.91.97,1.36,2.45,1.36,4.43v37.79c0,1.99-.45,3.47-1.36,4.45s-2.09,1.47-3.55,1.47-2.55-.5-3.45-1.49-1.36-2.47-1.36-4.43Z" fill="#7063bf" stroke-width="0"/><path d="m215.49,77.36v34.91h19.7c1.57,0,2.77.38,3.61,1.14.84.76,1.26,1.72,1.26,2.88s-.42,2.13-1.24,2.86c-.83.73-2.04,1.1-3.63,1.1h-23.46c-2.12,0-3.64-.47-4.56-1.41-.93-.94-1.39-2.45-1.39-4.55v-36.93c0-1.96.44-3.44,1.33-4.42.88-.98,2.04-1.47,3.48-1.47s2.64.49,3.55,1.46c.91.97,1.36,2.45,1.36,4.43Z" fill="#7063bf" stroke-width="0"/><path d="m259.5,77.36v16.81l19.07-19.89c.92-.96,1.7-1.67,2.34-2.13s1.5-.69,2.57-.69c1.4,0,2.52.41,3.39,1.23.86.82,1.29,1.82,1.29,2.99,0,1.42-.73,2.83-2.19,4.22l-11.81,11.19,13.61,19.5c.96,1.35,1.68,2.54,2.16,3.55.48,1.01.72,2,.72,2.96,0,1.07-.42,2-1.26,2.78-.84.79-1.98,1.18-3.42,1.18-1.35,0-2.45-.29-3.3-.87-.85-.58-1.57-1.35-2.16-2.31-.59-.96-1.11-1.83-1.57-2.62l-11.48-17.67-7.95,7.62v9.91c0,2.01-.46,3.5-1.37,4.47-.92.97-2.09,1.46-3.53,1.46-.83,0-1.63-.22-2.39-.65-.76-.44-1.35-1.03-1.77-1.77-.31-.61-.49-1.32-.56-2.13-.07-.81-.1-1.97-.1-3.5v-35.66c0-1.96.43-3.44,1.29-4.42s2.03-1.47,3.52-1.47,2.64.49,3.55,1.46c.91.97,1.36,2.45,1.36,4.43Z" fill="#7063bf" stroke-width="0"/><path d="m353.78,80.3h-10.6v34.84c0,2.01-.45,3.5-1.34,4.47-.89.97-2.05,1.46-3.47,1.46s-2.61-.49-3.52-1.47-1.36-2.46-1.36-4.45v-34.84h-10.6c-1.66,0-2.89-.36-3.7-1.1-.81-.73-1.21-1.7-1.21-2.89s.42-2.22,1.26-2.95c.84-.72,2.05-1.08,3.65-1.08h30.88c1.68,0,2.93.37,3.75,1.11.82.74,1.23,1.71,1.23,2.91s-.42,2.16-1.24,2.89c-.83.73-2.07,1.1-3.73,1.1Z" fill="#7063bf" stroke-width="0"/><path d="m399.39,79.78h-21.89v11.78h20.15c1.48,0,2.59.33,3.32,1,.73.67,1.1,1.54,1.1,2.63s-.36,1.98-1.08,2.67c-.72.69-1.83,1.03-3.34,1.03h-20.15v13.64h22.64c1.53,0,2.68.35,3.45,1.06.77.71,1.16,1.65,1.16,2.83s-.39,2.06-1.16,2.76c-.77.71-1.93,1.06-3.45,1.06h-26.4c-2.12,0-3.64-.47-4.56-1.41-.93-.94-1.39-2.45-1.39-4.55v-36.05c0-1.4.21-2.54.62-3.42.41-.88,1.06-1.53,1.95-1.93.88-.4,2.01-.61,3.39-.61h25.65c1.55,0,2.7.34,3.45,1.03.75.69,1.13,1.59,1.13,2.7s-.38,2.04-1.13,2.73c-.75.69-1.9,1.03-3.45,1.03Z" fill="#7063bf" stroke-width="0"/><path d="m446.45,114.81l-2.29-6.02h-19.5l-2.29,6.15c-.89,2.4-1.66,4.02-2.29,4.86-.63.84-1.67,1.26-3.11,1.26-1.22,0-2.3-.45-3.24-1.34-.94-.89-1.41-1.91-1.41-3.04,0-.65.11-1.33.33-2.03.22-.7.58-1.67,1.08-2.91l12.27-31.14c.35-.89.77-1.97,1.26-3.22.49-1.25,1.01-2.29,1.57-3.12.56-.83,1.29-1.5,2.19-2.01.9-.51,2.02-.77,3.35-.77s2.48.26,3.39.77c.9.51,1.64,1.17,2.19,1.98.56.81,1.03,1.67,1.41,2.6.38.93.87,2.17,1.46,3.71l12.53,30.95c.98,2.36,1.47,4.07,1.47,5.14s-.46,2.13-1.39,3.06c-.93.93-2.04,1.39-3.35,1.39-.76,0-1.42-.14-1.96-.41-.55-.27-1-.64-1.37-1.11-.37-.47-.77-1.19-1.19-2.16-.42-.97-.79-1.83-1.1-2.57Zm-19.24-13.32h14.33l-7.23-19.79-7.1,19.79Z" fill="#7063bf" stroke-width="0"/><g id="drinkBrown"><path d="m40.01,191.89c12.38-30.05,467.79-43.02,477.58,0,9.78,43.02-50.33,637.04-73.31,684.78-22.98,47.73-307.5,46.56-330.84,0C90.1,830.11,27.63,221.95,40.01,191.89Z" fill="#e5c7ac" stroke="#e5c7ac" stroke-miterlimit="10" stroke-width="7"/><path d="m53.26,427.68s65.76-40.98,142.37-8.53c76.61,32.44,130.83,13.44,189.76-.58,58.93-14.02,89.33-13.66,118.87,4.64,0,0-3,31-5,51-69.37,8.43-90.6,43.43-150,41s-47.79-33.5-109.32-29.45c-61.52,4.06-180.68,4.45-180.68,4.45,0,0-3-38.44-6-62.53Z" fill="#d75f00" stroke-width="0"/><path d="m57.26,470.21s62.76-59.54,139.37-12.4c76.61,47.14,130.83,19.53,189.76-.84,58.93-20.37,84.33-16.36,113.87,10.24.07-.51-28.99,253.65-30,260-69.37,12.24-66.96-27.46-126.36-30.99-59.4-3.54-42.43,49.5-103.95,55.39-61.52,5.89-154.68-36.4-154.68-36.4,0,0-25.88-210.32-28-245Z" fill="#db9" stroke-width="0"/><path d="m473.26,703.21c-63,7-66.46-52.88-137-50-59.46,2.43-86,57-124,48-105.59-25.01-131-17-131-17,4,33,9,68,12,90,27.95,42.92,350,32,373-15,1-5,6-47,7-56Z" fill="#d75f00" stroke-width="0"/><path d="m69.26,584.21s50.66-83.54,132.38-73.28c81.72,10.26,182.7,100.44,219.62,52.28,23-30,49-89,77-79l-5,48c-70.14,18.78-35.13,93.77-93.54,95.9-52.67,1.92-162.81-101.49-229.46-70.9-56.47,25.92-94,88-94,88l-7-61Z" fill="#ac3b01" stroke-width="0"/><path d="m39.26,194.21c6.36-12.8,93-25,125-25,45.79,0,13,214,40,214,59,3,72-194,136-189,56-2,41.96,97.69,77,84,35.21-13.76,38-114,100-86,.06,38.25-1.19,90.22-5,133-71.98-9.51-61.4,122.85-116,102-28.11-10.73-20.1-142.11-66-149-39-6-79,135-126,137-60-8-44-129-80-134-42.94-5.96-80,40-80,40-4.14-47.77-6.6-91.85-5-127Z" fill="#613021" stroke-width="0"/><path d="m130.61,453.86c-1.75-9.46-3.18-18.98-4.47-28.52l1.07,7.98c-7.07-52.77-10.76-106.18-11.9-159.39-.31-14.57-.38-29.14-.05-43.71.35-15.7-14.05-30.71-30-30s-29.62,13.18-30,30c-1.44,63.83,2.73,128.27,10.48,191.61,1.96,16.04,4.08,32.09,7.02,47.99,1.3,7.03,7.82,14.44,13.79,17.93,6.43,3.76,15.91,5.36,23.12,3.02,16.56-5.36,24.02-20.33,20.95-36.9h0Z" fill="#f4ddce" stroke-width="0"/><path d="m471.26,727.21c-69.37,12.24-75.14-35.58-134.54-39.12s-42.43,49.5-103.95,55.39c-61.52,5.89-147.51-27.28-147.51-27.28,8.81,69.07,19.28,136.1,30,162,27.95,42.92,308,44,331-3,8.6-38.76,15.55-77.43,20.92-116.01,1.48-10.67,2.84-21.33,4.08-31.99Z" fill="#db9" stroke-width="0"/><path d="m455.26,828.21c-65.51,2.6-49.17-14.59-109-23-58.93-8.29-69.48,54.11-131,60-61.52,5.89-115-44-115-44,5,29,6,34,14,57,27.95,42.92,308,44,331-3,6-22,8-36,10-47Z" fill="#613021" stroke-width="0"/><circle cx="340.09" cy="645.66" r="27.7" fill="#333" stroke-width="0"/><path d="m129.89,524.15c-.04-.07-.07-.14-.11-.21l3.02,7.17c-.02-.07-.04-.13-.05-.19l1.07,7.98c0-.06,0-.12,0-.18l-1.07,7.98c0-.06.02-.11.04-.16l-3.02,7.17c.03-.07.06-.13.11-.18l-4.69,6.07s.08-.08.12-.12l-6.07,4.69c.1-.08.21-.13.32-.18l-7.17,3.02c.18-.07.35-.11.54-.13l-7.98,1.07c.25-.03.49-.02.74,0l-7.98-1.07c.19.03.36.07.54.14l-7.17-3.02c.1.04.18.09.27.15l-6.07-4.69c.06.05.11.1.16.16l-4.69-6.07s.06.09.08.14l-3.02-7.17c.02.05.04.1.05.15l-1.07-7.98c0,.06,0,.11,0,.17l1.07-7.98c-.01.09-.04.17-.07.25l3.02-7.17c-.03.07-.07.14-.11.21-2.19,3.44-3.38,7.16-3.56,11.15-.89,3.99-.71,7.98.54,11.96.93,3.9,2.72,7.3,5.37,10.2,2.12,3.27,4.92,5.84,8.42,7.73l7.17,3.02c5.32,1.43,10.63,1.43,15.95,0l7.17-3.02c4.51-2.67,8.1-6.25,10.76-10.76,2.82-4.71,4.28-10.27,4.27-15.75,0-2.7-.26-5.5-1.09-8.08-.16-.49-2.8-6.76-3.05-7.24-1.23-2.34-2.98-4.42-4.85-6.29s-3.97-3.62-6.31-4.86c-1.14-.61-3.96-1.68-3.7-1.57,2.32.98-2.58-1.24-3.74-1.57-2.82-.8-5.8-1.16-8.72-1.19-1.37-.01-4.19.53-4.36.56-.54.07-2.99.25-4.34.6-4.7,1.24-10.45,4.38-13.79,8-.91.99-.83,1.06-2.42,3.12,1.16-1.51-1.8,2.09-2.42,3.15-.18.3-2.94,6.87-3.06,7.24-.02.05-.02.11-.04.16-.58,2.65-.94,5.32-1.07,8,0,.03,0,.06,0,.09.02.53.97,7.58,1.09,8.1.6,2.64,1.83,5.16,3.17,7.51,1.89,3.5,4.46,6.3,7.73,8.42,2.9,2.65,6.3,4.44,10.2,5.37,3.99,1.25,7.98,1.43,11.96.54,3.99-.18,7.71-1.37,11.15-3.56l6.07-4.69c3.72-3.74,6.29-8.16,7.72-13.24l1.07-7.98c-.02-5.42-1.38-10.46-4.1-15.14h0Z" fill="#f4ddce" stroke-width="0"/><circle cx="291.05" cy="768.24" r="27.7" fill="#333" stroke-width="0"/><circle cx="219.16" cy="673.95" r="27.7" fill="#333" stroke-width="0"/><circle cx="375.32" cy="721.68" r="35.36" fill="#333" stroke-width="0"/><circle cx="169.07" cy="741.72" r="35.36" fill="#333" stroke-width="0"/><circle cx="218.57" cy="821.86" r="33" fill="#333" stroke-width="0"/><circle cx="363.54" cy="817.15" r="33" fill="#333" stroke-width="0"/></g></svg>