<?xml version="1.0" encoding="UTF-8"?><svg id="Layer_1" xmlns="http://www.w3.org/2000/svg" width="564.87" height="853.58" viewBox="0 0 564.87 853.58"><path d="m36.38,17.94h-10.6v34.84c0,2.01-.45,3.5-1.34,4.47-.89.97-2.05,1.46-3.47,1.46s-2.61-.49-3.52-1.47-1.36-2.46-1.36-4.45V17.94H5.5c-1.66,0-2.89-.36-3.7-1.1-.81-.73-1.21-1.7-1.21-2.89s.42-2.22,1.26-2.95c.84-.72,2.05-1.08,3.65-1.08h30.88c1.68,0,2.93.37,3.75,1.11.82.74,1.23,1.71,1.23,2.91s-.42,2.16-1.24,2.89c-.83.73-2.07,1.1-3.73,1.1Z" fill="#7063bf" stroke-width="0"/><path d="m76.86,52.46l-2.29-6.02h-19.5l-2.29,6.15c-.89,2.4-1.66,4.02-2.29,4.86-.63.84-1.67,1.26-3.11,1.26-1.22,0-2.3-.45-3.24-1.34-.94-.89-1.41-1.91-1.41-3.04,0-.65.11-1.33.33-2.03.22-.7.58-1.67,1.08-2.91l12.27-31.14c.35-.89.77-1.97,1.26-3.22.49-1.25,1.01-2.29,1.57-3.12.56-.83,1.29-1.5,2.19-2.01.9-.51,2.02-.77,3.35-.77s2.48.26,3.39.77c.9.51,1.64,1.17,2.19,1.98.56.81,1.03,1.67,1.41,2.6.38.93.87,2.17,1.46,3.71l12.53,30.95c.98,2.36,1.47,4.07,1.47,5.14s-.46,2.13-1.39,3.06c-.93.93-2.04,1.39-3.35,1.39-.76,0-1.42-.14-1.96-.41-.55-.27-1-.64-1.37-1.11-.37-.47-.77-1.19-1.19-2.16-.42-.97-.79-1.83-1.1-2.57Zm-19.24-13.32h14.33l-7.23-19.79-7.1,19.79Z" fill="#7063bf" stroke-width="0"/><path d="m110.7,37.38h-3.4v15.41c0,2.03-.45,3.52-1.34,4.48-.89.96-2.06,1.44-3.5,1.44-1.55,0-2.75-.5-3.6-1.51-.85-1-1.28-2.47-1.28-4.42V15.88c0-2.09.47-3.61,1.41-4.55.94-.94,2.45-1.41,4.55-1.41h15.8c2.18,0,4.05.09,5.59.28,1.55.19,2.94.56,4.19,1.13,1.5.63,2.83,1.54,3.99,2.71,1.16,1.18,2.03,2.55,2.63,4.11.6,1.56.9,3.21.9,4.96,0,3.58-1.01,6.43-3.03,8.57-2.02,2.14-5.08,3.65-9.18,4.55,1.72.92,3.37,2.27,4.94,4.06,1.57,1.79,2.97,3.69,4.2,5.71,1.23,2.02,2.19,3.84,2.88,5.46.69,1.62,1.03,2.74,1.03,3.35s-.2,1.26-.61,1.88c-.4.62-.95,1.11-1.65,1.47-.7.36-1.51.54-2.42.54-1.09,0-2.01-.26-2.75-.77-.74-.51-1.38-1.16-1.91-1.95-.54-.79-1.26-1.94-2.18-3.47l-3.89-6.48c-1.4-2.38-2.64-4.19-3.75-5.43-1.1-1.24-2.22-2.09-3.35-2.55-1.13-.46-2.56-.69-4.29-.69Zm5.56-20.15h-8.96v13.18h8.7c2.33,0,4.3-.2,5.89-.61,1.59-.4,2.81-1.09,3.65-2.06.84-.97,1.26-2.31,1.26-4.01,0-1.33-.34-2.5-1.01-3.52-.68-1.01-1.61-1.77-2.81-2.27-1.13-.48-3.37-.72-6.71-.72Z" fill="#7063bf" stroke-width="0"/><path d="m170.22,9.11c4.97,0,9.24,1.01,12.81,3.03,3.57,2.02,6.26,4.89,8.1,8.6s2.75,8.09,2.75,13.1c0,3.71-.5,7.08-1.5,10.11-1,3.03-2.51,5.66-4.51,7.88-2.01,2.22-4.47,3.93-7.39,5.1-2.92,1.18-6.27,1.77-10.04,1.77s-7.11-.61-10.08-1.82c-2.97-1.21-5.44-2.92-7.43-5.12-1.99-2.2-3.48-4.85-4.5-7.95-1.01-3.1-1.52-6.44-1.52-10.04s.53-7.07,1.59-10.14c1.06-3.08,2.59-5.69,4.6-7.85,2.01-2.16,4.45-3.81,7.33-4.96,2.88-1.14,6.15-1.72,9.81-1.72Zm13.8,24.67c0-3.51-.57-6.55-1.7-9.13-1.13-2.57-2.75-4.52-4.86-5.84-2.11-1.32-4.52-1.98-7.25-1.98-1.94,0-3.74.37-5.38,1.1-1.65.73-3.06,1.79-4.25,3.19-1.19,1.4-2.13,3.18-2.81,5.35-.69,2.17-1.03,4.61-1.03,7.31s.34,5.19,1.03,7.39c.69,2.2,1.66,4.03,2.91,5.48s2.69,2.54,4.32,3.25,3.41,1.08,5.35,1.08c2.49,0,4.77-.62,6.85-1.87,2.08-1.24,3.74-3.16,4.97-5.76,1.23-2.59,1.85-5.79,1.85-9.59Z" fill="#7063bf" stroke-width="0"/><path d="m241.69,50.66l-7.69-30.55v33.11c0,1.83-.41,3.21-1.23,4.12-.82.92-1.9,1.38-3.26,1.38s-2.38-.45-3.21-1.36c-.83-.9-1.24-2.28-1.24-4.14V15.26c0-2.09.54-3.51,1.64-4.24,1.09-.73,2.56-1.1,4.42-1.1h3.01c1.81,0,3.12.16,3.94.49.82.33,1.42.92,1.82,1.77.39.85.84,2.24,1.34,4.16l6.97,26.27,6.97-26.27c.5-1.92.95-3.3,1.34-4.16.39-.85,1-1.44,1.82-1.77.82-.33,2.13-.49,3.94-.49h3.01c1.85,0,3.33.37,4.42,1.1,1.09.73,1.64,2.14,1.64,4.24v37.95c0,1.83-.41,3.21-1.23,4.12-.82.92-1.91,1.38-3.29,1.38-1.29,0-2.34-.46-3.17-1.38-.83-.92-1.24-2.29-1.24-4.12V20.1l-7.69,30.55c-.5,1.99-.91,3.44-1.23,4.37s-.9,1.77-1.75,2.54-2.03,1.15-3.53,1.15c-1.13,0-2.09-.25-2.88-.74-.79-.49-1.4-1.12-1.83-1.88-.44-.76-.78-1.61-1.03-2.54-.25-.93-.51-1.89-.77-2.9Z" fill="#7063bf" stroke-width="0"/><path d="m284.98,52.78V15c0-1.96.45-3.44,1.34-4.42.89-.98,2.05-1.47,3.47-1.47s2.64.49,3.55,1.46c.91.97,1.36,2.45,1.36,4.43v37.79c0,1.99-.45,3.47-1.36,4.45s-2.09,1.47-3.55,1.47-2.55-.5-3.45-1.49-1.36-2.47-1.36-4.43Z" fill="#7063bf" stroke-width="0"/><path d="m318.36,15v34.91h19.7c1.57,0,2.77.38,3.61,1.14.84.76,1.26,1.72,1.26,2.88s-.42,2.13-1.24,2.86c-.83.73-2.04,1.1-3.63,1.1h-23.46c-2.12,0-3.64-.47-4.56-1.41-.93-.94-1.39-2.45-1.39-4.55V15c0-1.96.44-3.44,1.33-4.42.88-.98,2.04-1.47,3.48-1.47s2.64.49,3.55,1.46c.91.97,1.36,2.45,1.36,4.43Z" fill="#7063bf" stroke-width="0"/><path d="m362.38,15v16.81l19.07-19.89c.92-.96,1.7-1.67,2.34-2.13s1.5-.69,2.57-.69c1.4,0,2.52.41,3.39,1.23.86.82,1.29,1.82,1.29,2.99,0,1.42-.73,2.83-2.19,4.22l-11.81,11.19,13.61,19.5c.96,1.35,1.68,2.54,2.16,3.55.48,1.01.72,2,.72,2.96,0,1.07-.42,2-1.26,2.78-.84.79-1.98,1.18-3.42,1.18-1.35,0-2.45-.29-3.3-.87-.85-.58-1.57-1.35-2.16-2.31-.59-.96-1.11-1.83-1.57-2.62l-11.48-17.67-7.95,7.62v9.91c0,2.01-.46,3.5-1.37,4.47-.92.97-2.09,1.46-3.53,1.46-.83,0-1.63-.22-2.39-.65-.76-.44-1.35-1.03-1.77-1.77-.31-.61-.49-1.32-.56-2.13-.07-.81-.1-1.97-.1-3.5V15c0-1.96.43-3.44,1.29-4.42s2.03-1.47,3.52-1.47,2.64.49,3.55,1.46c.91.97,1.36,2.45,1.36,4.43Z" fill="#7063bf" stroke-width="0"/><path d="m456.65,17.94h-10.6v34.84c0,2.01-.45,3.5-1.34,4.47-.89.97-2.05,1.46-3.47,1.46s-2.61-.49-3.52-1.47-1.36-2.46-1.36-4.45V17.94h-10.6c-1.66,0-2.89-.36-3.7-1.1-.81-.73-1.21-1.7-1.21-2.89s.42-2.22,1.26-2.95c.84-.72,2.05-1.08,3.65-1.08h30.88c1.68,0,2.93.37,3.75,1.11.82.74,1.23,1.71,1.23,2.91s-.42,2.16-1.24,2.89c-.83.73-2.07,1.1-3.73,1.1Z" fill="#7063bf" stroke-width="0"/><path d="m502.27,17.42h-21.89v11.78h20.15c1.48,0,2.59.33,3.32,1,.73.67,1.1,1.54,1.1,2.63s-.36,1.98-1.08,2.67c-.72.69-1.83,1.03-3.34,1.03h-20.15v13.64h22.64c1.53,0,2.68.35,3.45,1.06.77.71,1.16,1.65,1.16,2.83s-.39,2.06-1.16,2.76c-.77.71-1.93,1.06-3.45,1.06h-26.4c-2.12,0-3.64-.47-4.56-1.41-.93-.94-1.39-2.45-1.39-4.55V15.88c0-1.4.21-2.54.62-3.42.41-.88,1.06-1.53,1.95-1.93.88-.4,2.01-.61,3.39-.61h25.65c1.55,0,2.7.34,3.45,1.03.75.69,1.13,1.59,1.13,2.7s-.38,2.04-1.13,2.73c-.75.69-1.9,1.03-3.45,1.03Z" fill="#7063bf" stroke-width="0"/><path d="m549.32,52.46l-2.29-6.02h-19.5l-2.29,6.15c-.89,2.4-1.66,4.02-2.29,4.86-.63.84-1.67,1.26-3.11,1.26-1.22,0-2.3-.45-3.24-1.34-.94-.89-1.41-1.91-1.41-3.04,0-.65.11-1.33.33-2.03.22-.7.58-1.67,1.08-2.91l12.27-31.14c.35-.89.77-1.97,1.26-3.22.49-1.25,1.01-2.29,1.57-3.12.56-.83,1.29-1.5,2.19-2.01.9-.51,2.02-.77,3.35-.77s2.48.26,3.39.77c.9.51,1.64,1.17,2.19,1.98.56.81,1.03,1.67,1.41,2.6.38.93.87,2.17,1.46,3.71l12.53,30.95c.98,2.36,1.47,4.07,1.47,5.14s-.46,2.13-1.39,3.06c-.93.93-2.04,1.39-3.35,1.39-.76,0-1.42-.14-1.96-.41-.55-.27-1-.64-1.37-1.11-.37-.47-.77-1.19-1.19-2.16-.42-.97-.79-1.83-1.1-2.57Zm-19.24-13.32h14.33l-7.23-19.79-7.1,19.79Z" fill="#7063bf" stroke-width="0"/><g id="drinkTaro"><path d="m43.67,129.94c12.38-30.05,467.79-43.02,477.58,0,9.78,43.02-50.33,637.04-73.31,684.78-22.98,47.73-307.5,46.56-330.84,0C93.76,768.16,31.29,160,43.67,129.94Z" fill="#b995c6" stroke-width="0"/><path d="m43.67,129.94c12.38-30.05,467.79-43.02,477.58,0,9.78,43.02-50.33,637.04-73.31,684.78-22.98,47.73-307.5,46.56-330.84,0C93.76,768.16,31.29,160,43.67,129.94Z" fill="#b995c6" stroke="#b995c6" stroke-miterlimit="10" stroke-width="7"/><path d="m60.92,408.26s62.76-59.54,139.37-12.4c76.61,47.14,130.83,19.53,189.76-.84,58.93-20.37,84.33-16.36,113.87,10.24.07-.51-28.99,253.65-30,260-69.37,12.24-66.96-27.46-126.36-30.99-59.4-3.54-42.43,49.5-103.95,55.39-61.52,5.89-154.68-36.4-154.68-36.4,0,0-25.88-210.32-28-245Z" fill="#a481ad" stroke-width="0"/><path d="m134.27,391.91c-1.75-9.46-3.18-18.98-4.47-28.52l1.07,7.98c-7.07-52.77-10.76-106.18-11.9-159.39-.31-14.57-.38-29.14-.05-43.71.35-15.7-14.05-30.71-30-30s-29.62,13.18-30,30c-1.44,63.83,2.73,128.27,10.48,191.61,1.96,16.04,4.08,32.09,7.02,47.99,1.3,7.03,7.82,14.44,13.79,17.93,6.43,3.76,15.91,5.36,23.12,3.02,16.56-5.36,24.02-20.33,20.95-36.9h0Z" fill="#e5d6ef" stroke-width="0"/><path d="m473.92,665.26c-69.37,12.24-75.14-35.58-134.54-39.12s-42.43,49.5-103.95,55.39c-61.52,5.89-146.51-28.28-146.51-28.28,8.81,69.07,18.28,137.1,29,163,27.95,42.92,308,44,331-3,10.97-49.47,19.28-98.8,25-148Z" fill="#7e538d" stroke-width="0"/><circle cx="343.75" cy="583.71" r="27.7" fill="#333" stroke-width="0"/><path d="m133.55,462.2c-.04-.07-.07-.14-.11-.21l3.02,7.17c-.02-.07-.04-.13-.05-.19l1.07,7.98c0-.06,0-.12,0-.18l-1.07,7.98c0-.06.02-.11.04-.16l-3.02,7.17c.03-.07.06-.13.11-.18l-4.69,6.07s.08-.08.12-.12l-6.07,4.69c.1-.08.21-.13.32-.18l-7.17,3.02c.18-.07.35-.11.54-.13l-7.98,1.07c.25-.03.49-.02.74,0l-7.98-1.07c.19.03.36.07.54.14l-7.17-3.02c.1.04.18.09.27.15l-6.07-4.69c.06.05.11.1.16.16l-4.69-6.07s.06.09.08.14l-3.02-7.17c.02.05.04.1.05.15l-1.07-7.98c0,.06,0,.11,0,.17l1.07-7.98c-.01.09-.04.17-.07.25l3.02-7.17c-.03.07-.07.14-.11.21-2.19,3.44-3.38,7.16-3.56,11.15-.89,3.99-.71,7.98.54,11.96.93,3.9,2.72,7.3,5.37,10.2,2.12,3.27,4.92,5.84,8.42,7.73l7.17,3.02c5.32,1.43,10.63,1.43,15.95,0l7.17-3.02c4.51-2.67,8.1-6.25,10.76-10.76,2.82-4.71,4.28-10.27,4.27-15.75,0-2.7-.26-5.5-1.09-8.08-.16-.49-2.8-6.76-3.05-7.24-1.23-2.34-2.98-4.42-4.85-6.29s-3.97-3.62-6.31-4.86c-1.14-.61-3.96-1.68-3.7-1.57,2.32.98-2.58-1.24-3.74-1.57-2.82-.8-5.8-1.16-8.72-1.19-1.37-.01-4.19.53-4.36.56-.54.07-2.99.25-4.34.6-4.7,1.24-10.45,4.38-13.79,8-.91.99-.83,1.06-2.42,3.12,1.16-1.51-1.8,2.09-2.42,3.15-.18.3-2.94,6.87-3.06,7.24-.02.05-.02.11-.04.16-.58,2.65-.94,5.32-1.07,8,0,.03,0,.06,0,.09.02.53.97,7.58,1.09,8.1.6,2.64,1.83,5.16,3.17,7.51,1.89,3.5,4.46,6.3,7.73,8.42,2.9,2.65,6.3,4.44,10.2,5.37,3.99,1.25,7.98,1.43,11.96.54,3.99-.18,7.71-1.37,11.15-3.56l6.07-4.69c3.72-3.74,6.29-8.16,7.72-13.24l1.07-7.98c-.02-5.42-1.38-10.46-4.1-15.14h0Z" fill="#e5d6ef" stroke-width="0"/><circle cx="294.71" cy="706.29" r="27.7" fill="#333" stroke-width="0"/><circle cx="222.82" cy="612" r="27.7" fill="#333" stroke-width="0"/><circle cx="378.98" cy="659.73" r="35.36" fill="#333" stroke-width="0"/><circle cx="172.72" cy="679.77" r="35.36" fill="#333" stroke-width="0"/><circle cx="222.23" cy="759.91" r="33" fill="#333" stroke-width="0"/><circle cx="367.2" cy="755.2" r="33" fill="#333" stroke-width="0"/></g></svg>