<?xml version="1.0" encoding="utf-8"?>
<!-- Generator: Adobe Illustrator 28.0.0, SVG Export Plug-In . SVG Version: 6.00 Build 0)  -->
<svg version="1.1" id="Layer_1" xmlns="http://www.w3.org/2000/svg" xmlns:xlink="http://www.w3.org/1999/xlink" x="0px" y="0px"
	 viewBox="0 0 24 24" style="enable-background:new 0 0 24 24;" xml:space="preserve">
<style type="text/css">
	.st0{fill:#FFFFFF;}
</style>
<path class="st0" d="M11.7,2c-5,0.2-9.3,4.2-9.6,9.3c-0.4,5.3,3.4,9.8,8.5,10.6v-7.2H8.9c-0.7,0-1.3-0.6-1.3-1.3l0,0
	c0-0.7,0.6-1.3,1.3-1.3h1.6v-1.7c0-2.9,1.4-4.2,3.8-4.2c0.4,0,0.7,0,0.9,0c0.6,0,1.1,0.6,1.1,1.2l0,0c0,0.7-0.5,1.2-1.2,1.2h-0.4
	c-1,0-1.4,1-1.4,2.1V12h1.9c0.6,0,1,0.5,1,1.1l-0.1,0.7c-0.1,0.5-0.5,0.8-1,0.8h-1.8v7.2c4.9-0.7,8.6-4.8,8.6-9.9
	C22,6.4,17.3,1.8,11.7,2z"/>
</svg>
