<?xml version="1.0" encoding="utf-8"?>
<!-- Generator: Adobe Illustrator 28.0.0, SVG Export Plug-In . SVG Version: 6.00 Build 0)  -->
<svg version="1.1" id="Layer_1" xmlns="http://www.w3.org/2000/svg" xmlns:xlink="http://www.w3.org/1999/xlink" x="0px" y="0px"
	 viewBox="0 0 24 24" style="enable-background:new 0 0 24 24;" xml:space="preserve">
<style type="text/css">
	.st0{fill:#FFFFFF;}
</style>
<path class="st0" d="M10.1,8l5.6,8h-1.5L8.6,8H10.1z M21,7v10c0,2.2-1.8,4-4,4H7c-2.2,0-4-1.8-4-4V7c0-2.2,1.8-4,4-4h10
	C19.2,3,21,4.8,21,7z M17.5,17l-4.2-6l3.4-4h-1.3l-2.7,3.2L10.6,7H6.7l3.9,5.6L6.9,17h1.3l3-3.5l2.5,3.5H17.5z"/>
</svg>
