<?xml version="1.0" encoding="UTF-8"?><svg id="Layer_1" xmlns="http://www.w3.org/2000/svg" width="529.75" height="529.94" viewBox="0 0 529.75 529.94"><g id="logo-improved"><circle cx="264.68" cy="265.26" r="259" fill="#dcccf2" stroke-width="0"/><path d="m265.11,0C118.62-.1-.63,119.28,0,265.19c-.22,144.72,116.28,263.14,261.4,264.73,149.93,1.64,265.97-117.77,268.31-260.09C532.2,118.36,409.97.1,265.11,0Zm-2.18,518.71c-140.12-.8-254.93-115.77-251.71-259.99C14.24,123.09,125.19,11.32,265.04,11.27c139.5.14,255.22,113.28,253.43,257.19-1.72,137.92-113.39,251.07-255.54,250.26Z" fill="#d984c2" stroke-width="0"/><path d="m264.96,24.66c-132.52-.59-239.78,107.42-240.54,238.62-.78,133.5,106.14,239.89,235.62,242.16,137.27,2.41,245.44-108.09,245.23-240.77-.21-133.66-109.28-240.61-240.31-240.01Zm-.86,475.05c-129.42-.18-236.05-107.29-233.92-238.91,2.03-125.52,105.8-231.34,234.81-230.27,127.78-1.09,235.84,104.85,234.5,236.94-1.29,127.09-105.02,232.42-235.39,232.23Z" fill="#d984c2" stroke-width="0"/><path d="m267.9,78.59c-105.94-1.47-188.58,82.54-189.47,184.57-.92,105.68,84.37,188.05,186.25,188.21,102.8.16,187.05-84.07,186.37-186.48.29-101.94-81.65-184.9-183.14-186.3Zm-5.53,367c-96-1.32-178.25-79.39-178.18-180.8.07-99.9,80.95-181.22,182.28-180.46,99.69.74,179.71,82.77,178.71,180.8,1.16,98.37-81.51,181.85-182.81,180.46Z" fill="#d984c2" stroke-width="0"/><path d="m149.01,85.28c2.56,4.66,5.12,9.33,7.73,13.97.86,1.53,2.1,2.59,3.94,1.63,1.71-.89,1.96-2.47,1.3-4.16-.36-.91-.93-1.74-1.4-2.61-2.36-4.32-4.71-8.65-7.57-13.89,3.97,1.78,6.87,3.15,9.82,4.4,3.46,1.46,4.58.7,5.4-2.87.73-3.16.25-6.55,1.88-10.03,2.77,5.03,5.32,9.67,7.87,14.31,1.03,1.88,2.08,4.09,4.74,2.73,2.6-1.34,1.66-3.4.56-5.38-4.02-7.25-8-14.52-11.97-21.8-.81-1.49-1.7-2.89-3.66-2.49-1.89.39-2.29,1.89-2.53,3.63-.69,5.06-1.55,10.09-2.38,15.43-5.04-2.26-9.67-4.3-14.27-6.41-1.56-.72-3.12-1.22-4.4.29-1.22,1.44-.7,2.95.16,4.46,1.65,2.9,3.18,5.87,4.79,8.8Z" fill="#d984c2" stroke-width="0"/><path d="m336.77,476.49c-2.9-1.83-3.64-3.82-1.56-6.83.97-1.4.23-2.93-1.23-3.79-1.55-.91-2.56.2-3.48,1.22-.41.45-.71,1.01-.98,1.56-.88,1.74-1.94.93-3.03.26-1.43-.88-.54-1.56.16-2.28,1.53-1.58,2.42-3.43,2.35-4.91-.02-4.64-1.82-7.38-5.34-8.92-3.46-1.52-6.65-.71-9.24,1.8-2.73,2.65-3.61,6.06-1.83,9.52,1.09,2.12.95,3.55-.18,5.62-2.57,4.7-.91,10.36,3.48,13.43,3.99,2.79,10.25,2.13,13.42-1.89,1.52-1.93,2.52-1.78,4.17-.6,1.43,1.02,2.89.79,3.93-.6.98-1.31.62-2.8-.64-3.6Zm-16.59-18.6c1.96-.09,2.85,1.06,3.25,2.86-.18,1.77-1.25,3-3.01,3.02-1.79.02-2.98-1.38-3.01-3.06-.03-1.54.98-2.73,2.77-2.82Zm1.3,21.43c-2.71-.02-4.68-2.43-4.5-5.64.16-1.16.49-2.63,2.33-2.86.84-.11,6.59,4.54,6.44,5.14-.55,2.18-2.05,3.38-4.26,3.36Z" fill="#d984c2" stroke-width="0"/><path d="m241.87,48.78c.3,6.43.55,12.86.93,19.28.12,1.96.79,3.74,3.32,3.59,2.45-.15,2.51-1.92,2.5-3.75-.02-2.8,0-5.61,0-8.41.36-.22.72-.44,1.08-.66,1.18,1.44,2.28,2.95,3.56,4.3,2.13,2.24,4.31,4.46,6.61,6.53,1.34,1.21,3.06,2.02,4.61.36,1.48-1.58.68-3.22-.43-4.68-.37-.49-.86-.89-1.31-1.32-2.6-2.47-5.13-5.03-7.85-7.36-1.82-1.55-1.46-2.72-.09-4.28,2.53-2.88,4.92-5.88,7.35-8.85,1.39-1.7,2.75-3.66.54-5.48-2.17-1.78-3.64.18-4.91,1.68-3.16,3.74-6.24,7.54-9.66,11.69-.7-3.52-.15-6.6-.83-9.61-.42-1.86-.88-3.71-3.02-3.43-2.33.3-2.99,2.16-2.67,4.48.26,1.95.19,3.95.29,5.93Z" fill="#d984c2" stroke-width="0"/><path d="m238.95,458.17c-4.14-.71-8.3-1.27-12.82-1.95-2.06-.49-3.46.41-3.87,2.88-1.4,8.41-2.84,16.8-4.19,25.21-.38,2.37.74,3.72,3.17,4.09,4.15.63,8.29,1.36,12.42,2.08,2.04.35,3.91.11,4.34-2.25.46-2.52-1.54-3.09-3.44-3.45-2.67-.5-5.35-.98-8.04-1.31-2.04-.25-2.59-.89-2.1-3.11,1.1-5.01.91-5.04,6.14-4.07,1.21.22,2.45.37,3.68.46,1.69.13,2.96-.45,3.17-2.32.19-1.72-.49-2.87-2.35-3.14-2.08-.3-4.14-.71-6.22-.98-4.25-.54-1.73-3.44-1.84-5.36-.15-2.45,1.39-2.86,3.43-2.49,2.55.47,5.1.97,7.66,1.34,1.91.28,3.97.32,4.35-2.2.37-2.48-1.61-3.14-3.49-3.47Z" fill="#d984c2" stroke-width="0"/><path d="m416.57,426.99c-2.24,1.94-4.48,3.9-6.78,5.77-.58.47-1.03,1.37-2.19.84-3.6-1.63-4.35-5.19-1.57-7.82,1.17-1.11,2.35-2.2,3.51-3.32,1.18-1.14,1.87-2.53.62-3.91-1.29-1.43-2.89-1.19-4.31-.03-1.53,1.25-3.07,2.51-4.51,3.87-1.24,1.17-2.57,2.53-3.67.21-.89-1.87-5.27-2.99-1.57-6.12,2.36-2,4.65-4.08,6.92-6.19.86-.8,1.31-1.84.6-3.01-.54-.88-1.26-1.53-2.39-1.51-1.34-.04-2.35.68-3.29,1.51-2.87,2.55-5.62,5.24-8.61,7.64-2.67,2.15-2.58,4.09-.39,6.49,5.5,6.04,10.96,12.12,16.33,18.27,1.72,1.97,3.31,1.88,5.07.32,3.33-2.96,6.63-5.96,9.92-8.96,1.27-1.16,2.31-2.46.83-4.12-1.49-1.68-3.03-1.23-4.54.07Z" fill="#d984c2" stroke-width="0"/><path d="m448.9,393.83c-.84-.49-1.8-.81-2.74-1.09-8.06-2.39-16.13-4.73-24.18-7.15-1.6-.48-3.11-1.04-4.43.49-1.4,1.61-.33,3.03.45,4.41,4.32,7.65,8.66,15.29,13.03,22.92.98,1.71,2.32,3.2,4.48,1.93,2.25-1.32,1.15-3.13.38-4.86-.58-1.3-2.33-2.58-1.4-3.96,2-2.96,4.21-5.85,6.75-8.35,1.68-1.65,3.68.51,5.03.57,2.16.48,3.22-.32,3.77-1.7.51-1.29.07-2.5-1.14-3.21Zm-14.16,3.11c-.76.95-1.64,1.83-2.29,2.85-1.08,1.69-1.98,1.67-2.75-.15-.9-2.1-2.7-3.76-3.13-6.32,2.91-.24,5.27,1.17,7.77,1.93.95.29.98.96.4,1.68Z" fill="#d984c2" stroke-width="0"/><path d="m125.38,402.66c-.05-2.35-1.83-2.86-3.95-2.83-4.78.08-9.55.03-14.88.03,2.07-3.14,4.77-4.7,6.93-6.79,1.32-1.28,1.69-2.86.47-4.3-1.12-1.32-2.74-1.26-3.99-.16-6.6,5.78-13.15,11.62-19.68,17.48-1.38,1.24-1.58,2.91-.36,4.31,1.31,1.5,2.87,1.06,4.25-.14,2.13-1.86,4.25-3.71,7.34-6.41-.64,5.61-1.16,10.12-1.66,14.63-.24,2.2-.3,4.59,2.58,4.82,2.7.21,2.94-2.21,3.16-4.16.4-3.56.65-7.13.93-10.7.19-2.31,1.09-3.57,3.73-3.34,3.8.33,7.64.52,11.45.46,1.7-.02,3.72-.71,3.67-2.9Z" fill="#d984c2" stroke-width="0"/><path d="m268.67,473.83c-1.38-.8-2.93-1.3-4.37-2-1.84-.9-3.92-2.01-2.76-4.42,1.05-2.17,3.21-2.49,5.44-1.42.56.27,1.12.54,1.71.7,1.55.42,2.66-.21,3.32-1.63.61-1.32.26-2.45-.91-3.25-3.2-2.2-6.67-2.51-10.22-1.07-3.26,1.33-5.31,3.9-5.37,7.37-.06,3.7,1.77,6.62,5.28,8.27,2.01.95,4.11,1.78,5.97,2.97,2.63,1.68,2.57,4.67-.06,6.33-2.86,1.81-5.4,1.44-7.35-1.49-1.03-1.54-2.36-2.31-4.08-1.27-1.97,1.19-1.57,2.88-.59,4.51,1.95,3.25,4.86,4.79,8.62,4.79,5.58.05,9.29-2.65,10.74-7.84,1.2-4.28-.53-7.75-5.4-10.57Z" fill="#d984c2" stroke-width="0"/><path d="m370.46,102.23c2.44,1.57,3.78-.59,4.57-2.29,3.54-7.59,9.51-11.98,17.46-14.02,1.18-.3,2.32-.85,3.41-1.43.99-.53,1.8-1.31,2.07-2.49.24-2.05-2.1-3.55-4.54-2.68-3.14,1.12-6.21,2.43-9.28,3.74-1.6.68-2.32.31-2.31-1.47.01-2.35.06-4.71-.1-7.05-.16-2.41.83-5.97-3.16-5.86-3.73.11-2.88,3.53-2.63,5.76.9,8.2.5,15.94-5.66,22.37-1.57,1.64-2.21,3.9.17,5.42Z" fill="#d984c2" stroke-width="0"/><path d="m305.72,46.98c3.27.3,3.56,1.76,2.84,4.65-1.71,6.82-3.05,13.72-4.49,20.42.02,1.86.55,3.12,2.42,3.33,1.72.19,2.83-.49,3.23-2.28,1.41-6.38,2.99-12.73,4.22-19.15.64-3.31,1.25-5.72,5.52-4.02,1.53.61,3.64.52,4.19-1.8.55-2.36-.97-3.42-2.98-3.88-4.57-1.05-9.14-2.1-13.74-2.98-1.88-.36-4.28-.94-4.92,1.79-.67,2.84,1.54,3.73,3.72,3.93Z" fill="#d984c2" stroke-width="0"/><path d="m338.82,85.6c2.35.88,3.54-.68,4.38-2.79,2.53-6.32,5.18-12.59,7.84-18.86.39-.91.41-2.28,2.01-2.33,1.34.54,2.68,1.21,4.09,1.63,1.37.41,2.84.34,3.54-1.18.61-1.32.6-2.97-.78-3.67-5.4-2.74-10.98-5.12-16.79-6.86-1.27-.38-2.49.24-2.91,1.67-.37,1.27-.23,2.52,1,3.3.83.53,1.73,1.04,2.67,1.28,2.36.59,2.78,1.59,1.74,3.93-2.77,6.22-5.22,12.57-7.79,18.88-.77,1.89-1.65,4.02.99,5.01Z" fill="#d984c2" stroke-width="0"/><path d="m193.23,446.66c-5.04-2.37-10.13-4.61-15.24-6.84-1.33-.58-2.4.02-3.16,1.19-.92,1.43-.42,2.72.73,3.6.95.74,2.21,1.06,3.3,1.64.7.38,1.79.45,1.62,1.76-.33.72-.71,1.51-1.06,2.3-2.65,6-5.27,12.02-7.96,17.99-.82,1.83-.93,3.47,1.03,4.43,2.28,1.11,3.41-.41,4.22-2.28,2.23-5.1,4.48-10.2,6.7-15.31,2.16-4.97,2.15-5.01,7.28-3.55,1.71.49,2.93-.03,3.73-1.52.8-1.51.14-2.79-1.19-3.42Z" fill="#d984c2" stroke-width="0"/><path d="m375.56,437.13c-1.64-2.46-2.15-4.28,1.14-5.61,1.3-.53,2.32-1.44,2.43-3.27.02-2.17-2.4-3.21-4.98-1.69-3.84,2.25-7.57,4.68-11.36,7.01-1.89,1.17-3.75,2.49-2.18,4.98,1.57,2.5,3.48,1.06,5.05-.11,2.17-1.63,3.47-1.37,4.9,1.09,3.15,5.46,6.61,10.74,9.96,16.08,1.06,1.69,2.18,3.7,4.61,2.27,2.64-1.56,1.3-3.58.17-5.39-3.21-5.14-6.36-10.32-9.73-15.35Z" fill="#d984c2" stroke-width="0"/><path d="m162.83,431.26c-3.79-2.57-7.62-5.08-11.41-7.64-1.67-1.13-3.37-1.94-4.82.13-1.47,2.1-.12,3.35,1.58,4.51,1.07.73,2.52,1.13,2.93,2.82-.43.65-.9,1.37-1.37,2.08-3.6,5.48-7.19,10.96-10.8,16.43-1.1,1.67-1.99,3.39.18,4.8,2.09,1.36,3.41.03,4.54-1.67,3.41-5.16,6.98-10.22,10.22-15.48,1.65-2.67,3.06-3.98,5.83-1.39,1.51,1.41,3.38,1.93,4.8-.09,1.5-2.12-.08-3.42-1.68-4.51Z" fill="#d984c2" stroke-width="0"/><path d="m212.74,74.17c.46,2.17,1.6,2.92,3.66,2.91,4.1-.91,8.22-1.72,12.28-2.77,1.62-.42,2.43-1.81,1.91-3.5-.5-1.62-1.76-2.39-3.47-2.05-2.06.4-4.15.75-6.13,1.41-2.35.78-3.27.1-3.75-2.32-1.37-6.91-2.96-13.77-4.51-20.64-.42-1.86-1.53-3.33-3.63-2.86-2.08.47-2.51,2.22-2.08,4.13,1.9,8.56,3.9,17.11,5.72,25.69Z" fill="#d984c2" stroke-width="0"/><path d="m280.35,71.56c2.14.18,3.03-1.21,3.19-3.24.68-8.37,1.4-16.74,2.14-25.54.2-1.77.25-4.07-2.59-4.48-2.23-.32-3.02,1.45-3.19,3.29-.79,8.74-1.5,17.48-2.22,26.22-.16,1.96.52,3.57,2.66,3.75Z" fill="#d984c2" stroke-width="0"/><path d="m189.78,64.44c1.9,5.23,3.8,10.47,5.74,15.69.55,1.48,1.47,2.77,3.25,2.42,1.47-.28,2.27-1.41,2.25-3.24-.04-.25-.07-.76-.23-1.22-2.97-8.4-5.93-16.81-8.98-25.18-.62-1.71-2.03-2.64-3.85-1.9-1.75.71-2.24,2.18-1.58,3.99,1.14,3.14,2.25,6.29,3.39,9.44Z" fill="#d984c2" stroke-width="0"/><path d="m136.97,412.29c-1.4-1.43-2.99-.99-4.21.38-5.83,6.54-11.62,13.12-17.4,19.69-.91,1.03-.99,2.25-.44,3.46.47,1.02,1.41,1.31,2.47,1.27,1.11.07,1.87-.56,2.54-1.31,5.64-6.38,11.27-12.76,16.88-19.17,1.18-1.35,1.49-2.97.16-4.33Z" fill="#d984c2" stroke-width="0"/><path d="m209.12,452.05c-2.08-.68-3.18.53-3.74,2.49-1.71,5.92-3.48,11.82-5.24,17.72-.74,2.48-1.51,4.95-2.15,7.05-.16,2.1.52,3.41,2.22,3.7,1.98.34,2.83-1.04,3.33-2.72,2.39-8.03,4.73-16.08,7.22-24.07.63-2.02.38-3.5-1.64-4.16Z" fill="#d984c2" stroke-width="0"/><path d="m398.82,106.11c4.05,3.6,8.12,7.19,12.1,10.87,1.61,1.49,3.21,2.1,4.77.3,1.61-1.86.42-3.45-1.04-4.77-3.93-3.55-7.9-7.07-11.84-10.61-.74-.67-1.45-1.36-2.56-1.28-1.21-.06-2.26.31-2.67,1.53-.53,1.57,0,2.87,1.23,3.96Z" fill="#d984c2" stroke-width="0"/><path d="m124.51,111.44c4.25-3.58,8.51-7.15,12.76-10.72.79-.66,1.32-1.46,1.49-2.77-.09-.77-.39-1.76-1.34-2.23-1.48-.72-2.84-.34-4.1.73-4.14,3.52-8.31,7-12.47,10.5-1.5,1.26-2.21,2.79-.86,4.5,1.41,1.77,3,1.26,4.51-.01Z" fill="#d984c2" stroke-width="0"/><path d="m356.61,127.83c-.32-2.95-1.64-3.31-4.05-3.38-16.95-.55-31.98,4.37-44.83,15.56-1.58,1.38-2.96,1.73-4.99.79-12.48-5.72-25.79-7.63-39.36-7.96-13.15-.32-25.86,2.03-38.03,7.09-1.52.63-2.53.75-3.95-.44-12.58-10.56-27.13-15.35-43.55-15.14-3.92.05-4.9,1.67-5.1,4.88-1.15,18.17,1,35.86,7.98,52.78.83,2.02.77,3.71.09,5.68-3.42,9.9-5.1,20.08-5.07,30.59.09,24.31.03,48.62.03,72.93,0,17.61-.1,35.23.04,52.84.08,10.03-.53,20.06.47,30.09,2.49,25.06,24.34,45.06,49.44,45.08,25.79.02,51.59,0,77.38.02,3.11,0,6.17-.23,9.23-.77,23.22-4.02,41.2-25.17,41.21-48.67.03-52.71,0-105.43.02-158.14,0-8.16-1.63-15.99-4.49-23.56-.9-2.38-.87-4.4.06-6.76,6.77-17.22,9.5-35.01,7.48-53.5Zm-53.12,56.93c5.37.06,9.75,4.32,9.85,9.59.11,5.37-4.38,10.17-9.62,10.28-5.52.12-9.87-4.21-9.91-9.87-.04-5.61,4.26-10.06,9.68-10.01Zm-54.64,30.66c2.43,2.52,5.24,2.84,8.19,1.6,2.08-.87,5.06-1.25,4.96-4.2-.12-3.63,1.94-8.02-3.12-10.41-1.6-.76-4.56-1.65-3.92-3.8.73-2.48,3.67-1.06,5.62-1.21,2.71-.21,5.45-.09,8.17-.04,1.17.02,2.79-.45,3.15,1.13.31,1.35-.91,2.21-2.04,2.8-3.43,1.83-4.5,4.53-4.4,8.47.09,3.59.92,5.76,4.43,6.99,3.37,1.18,6.28,1.43,8.74-2.39,1.34,5.34-.98,8.21-5.27,6.41-6.28-2.63-11.76-3.41-18.18.06-4.24,2.29-6.75-.3-6.32-5.41Zm-23.61-30.66c5.25.13,9.36,4.55,9.33,10.03-.03,5.63-4.42,9.98-9.93,9.84-5.24-.13-9.71-4.91-9.61-10.29.1-5.38,4.72-9.73,10.21-9.59Zm118.39,187.58c-.42,17.8-16.45,34.08-34.11,36.53-3.45.48-6.89.67-10.35.67-11.4-.02-22.81,0-34.21,0-12.27,0-24.54.02-36.82,0-20.92-.04-37.04-12.98-41.66-33.33-.61-2.7-.54-5.42-.55-8.13-.04-21.33-.02-42.65-.02-63.98,0-4.3-.01-4.23,4.25-2.78,23.07,7.88,45.66,7.03,67.74-3.7,8.35-4.06,16.41-8.73,25.07-12.14,20.17-7.95,39.76-5.56,58.98,3.35,1.44.67,1.96,1.63,1.95,3.19-.06,26.78.36,53.57-.27,80.34Z" fill="#d984c2" stroke-width="0"/><path d="m312.51,356.62c-12.5-.04-22.28,9.61-22.28,21.97,0,12.33,9.83,22.04,22.27,22.01,12.26-.03,21.7-9.6,21.71-22.01,0-12.5-9.31-21.94-21.69-21.97Z" fill="#d984c2" stroke-width="0"/><path d="m295.88,356.69c7.58.05,13.61-5.73,13.7-13.12.1-7.91-5.54-13.72-13.35-13.73-7.68-.02-13.44,5.63-13.5,13.23-.05,7.53,5.79,13.58,13.14,13.62Z" fill="#d984c2" stroke-width="0"/><path d="m275.82,358.99c-6.5-.07-12.28,5.59-12.2,11.95.08,6.54,5.33,11.75,11.88,11.8,6.77.06,12.12-5.13,12.18-11.82.06-6.17-5.6-11.86-11.86-11.93Z" fill="#d984c2" stroke-width="0"/><path d="m328.44,335.33c-5.41.12-10.53,5.24-10.59,10.57-.06,5.95,4.84,10.79,10.94,10.79,5.8,0,10.52-4.85,10.49-10.76-.03-5.57-5.3-10.72-10.84-10.6Z" fill="#d984c2" stroke-width="0"/></g></svg>