<?xml version="1.0" encoding="UTF-8"?><svg id="Layer_1" xmlns="http://www.w3.org/2000/svg" width="624.74" height="216.9" viewBox="0 0 624.74 216.9"><path d="m240.56,68.48c-6.03,8.06-12.05,16.12-18.08,24.18-1.6,2.14-3.18,4.29-4.79,6.41-4.02,5.3-10.73,5.3-14.75-.05-7.29-9.71-14.54-19.44-21.81-29.16-.32-.42-.65-.83-1.08-1.37-.49.77-.28,1.49-.28,2.16-.01,19.09-.04,38.18.01,57.27,0,3.66-.96,6.74-4.22,8.7-2.98,1.78-6.11,1.85-9.12.13-3.05-1.74-4.39-4.51-4.38-7.99,0-19.76,0-39.52,0-59.27,0-9.08,0-18.16,0-27.23,0-4.41,2.25-7.76,5.99-8.97,3.99-1.29,7.61-.04,10.35,3.61,10.3,13.71,20.59,27.42,30.89,41.13.32.42.65.84,1.07,1.37,5.49-7.31,10.92-14.55,16.35-21.79,5.24-6.99,10.49-13.97,15.74-20.95,2.59-3.44,6.34-4.65,10.26-3.32,3.61,1.23,5.88,4.52,5.88,8.64,0,28.97,0,57.94,0,86.91,0,5.23-3.8,9.07-8.88,9.09-5.01.02-8.74-3.87-8.75-9.15,0-19.42,0-38.85,0-58.27v-1.94c-.13-.04-.26-.08-.39-.12Z" fill="#fff" stroke-width="0"/><path d="m347.31,94.29c.91-.19,1.23-.82,1.68-1.27,7.43-7.4,14.84-14.81,22.26-22.22,3.61-3.61,9.37-3.84,12.79-.53,3.52,3.42,3.44,9.19-.25,12.91-6.16,6.21-12.34,12.4-18.58,18.53-.99.97-1.03,1.47-.01,2.46,6.21,6.06,12.35,12.2,18.5,18.32,3.78,3.76,3.95,9.3.41,12.85-3.59,3.6-8.99,3.49-12.85-.34-7.39-7.34-14.74-14.72-22.12-22.07-.5-.5-.88-1.16-1.83-1.44,0,5.8.03,11.51,0,17.22-.03,4.24-2.17,7.37-5.81,8.69-5.61,2.03-11.42-1.71-11.86-7.65-.02-.27-.02-.53-.02-.8,0-29.03-.01-58.07,0-87.1,0-5.18,3.75-8.97,8.73-8.98,5.12,0,8.93,3.7,8.94,8.99.05,16.82.02,33.64.02,50.46,0,.64,0,1.27,0,1.98Z" fill="#fff" stroke-width="0"/><path d="m591.13,108.55c5.63-11.9,11.14-23.56,16.66-35.22,1.75-3.69,5.06-5.79,8.71-5.55,3.72.25,6.88,2.74,7.89,6.35.63,2.25.41,4.47-.61,6.61-8.05,16.94-15.93,33.96-24.19,50.79-5.83,11.89-10.98,24.07-16.62,36.04-1.71,3.63-5.1,5.7-8.79,5.34-6.36-.63-9.87-6.73-7.22-12.63,4.44-9.89,8.89-19.77,13.39-29.63.58-1.26.54-2.25-.07-3.53-7.34-15.36-14.61-30.75-21.88-46.14-2.39-5.05-.76-10.11,3.95-12.36,4.55-2.17,9.47-.24,11.9,4.79,5.37,11.14,10.67,22.32,16,33.48.23.47.5.93.89,1.65Z" fill="#fff" stroke-width="0"/><path d="m463.15,108.38c0,6.87.01,13.75,0,20.62-.01,5.07-3.4,8.66-8.34,8.88-4.88.22-8.66-3.1-9.03-8.16-.23-3.12-.13-6.27-.13-9.4-.01-10.95-.04-21.89.03-32.84,0-1.6-.3-2.26-2.05-2.13-2.26.16-4.54.06-6.81.03-4.98-.06-8.71-3.86-8.68-8.79.03-4.92,3.78-8.73,8.72-8.82,2.27-.04,4.55-.14,6.81.04,1.78.14,2.03-.55,2.01-2.12-.08-7.74-.06-15.48-.03-23.23.02-4.87,2.27-8.08,6.37-9.29,5.52-1.63,11.07,2.4,11.11,8.17.05,8.14.07,16.29-.03,24.43-.02,1.74.5,2.13,2.12,2.03,2.26-.14,4.54-.06,6.81-.03,5.01.08,8.8,4,8.74,9.01-.05,4.82-3.8,8.55-8.69,8.6-2.47.03-4.95.08-7.41-.02-1.28-.05-1.56.39-1.55,1.59.05,7.14.03,14.28.03,21.42Z" fill="#fff" stroke-width="0"/><path d="m510.32,108.16c0-7.01-.04-14.02.03-21.02.01-1.41-.37-1.84-1.78-1.77-2.4.12-4.81.06-7.21.03-4.88-.06-8.62-3.8-8.67-8.62-.05-4.91,3.69-8.87,8.56-8.98,2.4-.06,4.81-.1,7.21.02,1.47.08,1.91-.3,1.9-1.84-.09-8.14-.06-16.28-.03-24.43.01-4.4,3.18-8.07,7.36-8.64,4.41-.6,8.52,2.01,9.74,6.22.37,1.29.4,2.63.4,3.96,0,7.54.05,15.08-.04,22.62-.02,1.59.25,2.25,2.02,2.11,2.26-.18,4.54-.07,6.81-.04,4.94.08,8.69,3.9,8.71,8.83.02,4.94-3.71,8.72-8.7,8.78-2.14.03-4.29.14-6.41-.03-1.89-.15-2.46.35-2.45,2.35.1,13.21.06,26.43.04,39.64,0,1.26-.03,2.55-.26,3.78-.83,4.3-4.91,7.15-9.51,6.73-4.29-.39-7.67-3.95-7.7-8.28-.05-7.14-.01-14.28-.02-21.42Z" fill="#fff" stroke-width="0"/><path d="m317.65,85.33c0,14.48,0,28.97,0,43.45,0,5.32-3.61,9.1-8.71,9.16-5.05.06-8.91-3.77-8.91-9.04-.03-29.03-.03-58.07,0-87.1,0-5.24,3.85-8.97,8.99-8.93,5,.04,8.63,3.81,8.63,9.01,0,14.48,0,28.97,0,43.45Z" fill="#fff" stroke-width="0"/><path d="m288.12,102.96c0,8.54,0,17.09,0,25.63,0,5.4-3.69,9.32-8.79,9.38-5.08.06-8.84-3.86-8.84-9.3-.01-17.15-.01-34.31,0-51.46,0-5.45,3.73-9.43,8.76-9.43,5.12,0,8.87,4.02,8.87,9.55,0,8.54,0,17.09,0,25.63Z" fill="#fff" stroke-width="0"/><path d="m416.19,102.95c0,8.67,0,17.33,0,26,0,5.16-3.85,9.02-8.93,8.99-4.96-.03-8.69-3.86-8.69-9-.01-17.33-.01-34.67,0-52,0-5.19,3.87-9.18,8.81-9.15,4.93.03,8.81,4.04,8.82,9.17.01,8.67,0,17.33,0,26Z" fill="#fff" stroke-width="0"/><path d="m279.16,54.96c-4.84-.01-8.66-3.91-8.68-8.85-.02-4.87,3.85-8.76,8.73-8.77,4.97-.01,8.95,3.93,8.9,8.83-.05,4.98-3.94,8.8-8.96,8.79Z" fill="#fff" stroke-width="0"/><path d="m407.91,45.28c4.83,0,8.63,3.79,8.61,8.58-.02,4.74-3.91,8.64-8.64,8.63-4.76,0-8.6-3.87-8.6-8.65,0-4.82,3.78-8.57,8.62-8.56Z" fill="#fff" stroke-width="0"/><path d="m477.51,173.44c-23.85,0-47.69,0-71.54,0-.53,0-1.07,0-1.6,0-.35,0-.63-.07-.66-.52-.04-.55.27-.67.72-.67.47,0,.94,0,1.4,0,47.89,0,95.79,0,143.68,0,.27,0,.55-.05.8.01.49.12,1.38-.4,1.33.62-.04.96-.91.55-1.39.55-12.22.03-24.45.02-36.67.02h-36.07Z" fill="#fff" stroke-width="0"/><path d="m273.06,162.17c4.52-.02,7.04,1.87,7.55,5.73.07.5.51,1.25-.45,1.46-.85.19-1.11-.28-1.31-1.04-1.14-4.23-5.95-5.93-9.65-3.48-1.16.77-1.72,1.88-1.61,3.23.11,1.39.98,2.4,2.24,2.82,2.08.69,4.22,1.21,6.35,1.75,3.38.86,4.97,2.62,4.93,5.58-.04,2.83-2.07,5.03-5.25,5.65-2.2.43-4.39.36-6.48-.51-2.57-1.07-4.22-3.76-4.12-6.53.02-.62.1-1,.86-1,.71,0,.83.32.95.94.93,4.81,4.77,6.88,9.35,5.08,1.69-.66,2.83-1.77,2.86-3.69.02-1.95-1.13-3.07-2.88-3.6-1.78-.54-3.58-1.04-5.39-1.48-3.94-.96-5.4-2.61-5.14-5.9.23-2.89,2.64-4.85,6.2-5.02.33-.02.67,0,1,0Z" fill="#fff" stroke-width="0"/><path d="m355.85,172.96c0-2.93.05-5.87-.02-8.8-.03-1.14.17-1.66,1.5-1.63,3.8.09,7.61.02,11.41.04.59,0,1.37-.3,1.37.86,0,1.16-.77.86-1.36.87-3.27.02-6.54.05-9.81-.01-1.05-.02-1.41.29-1.36,1.35.09,1.99-.66,4.53.31,5.83.92,1.25,3.61.29,5.52.37,1.6.07,3.2.02,4.81.01.61,0,1.19-.09,1.16.87-.02.99-.68.8-1.24.8-3,.01-6.01.07-9.01-.03-1.25-.04-1.62.34-1.56,1.56.12,2.19-.75,5.07.34,6.39,1.13,1.37,4.13.32,6.31.4,1.67.07,3.34.01,5.01.01.53,0,1.08-.09,1.08.75,0,.75-.25,1.07-1.04,1.07-4.14-.03-8.28-.03-12.42,0-1.21,0-.99-.81-.99-1.51,0-3.07,0-6.14,0-9.2Z" fill="#fff" stroke-width="0"/><path d="m248.3,172.99c0-3,.05-6-.02-9-.03-1.13.31-1.48,1.45-1.46,3.87.06,7.74.02,11.61.03.6,0,1.37-.28,1.36.87-.01,1.16-.79.84-1.38.85-3.2.02-6.41.07-9.61-.02-1.25-.04-1.63.33-1.56,1.56.12,1.92-.65,4.43.3,5.62,1,1.24,3.62.3,5.53.38,1.6.07,3.2.03,4.8,0,.68-.01,1.14.04,1.1.93-.03.85-.56.75-1.08.75-3.07,0-6.14.05-9.21-.02-1.15-.03-1.5.34-1.45,1.46.08,1.86.08,3.73,0,5.6-.05,1.05.28,1.35,1.33,1.33,3.33-.07,6.67-.03,10.01-.01.52,0,1.24-.31,1.26.74.02.96-.46,1.07-1.23,1.07-4-.02-8.01-.03-12.01,0-.97,0-1.25-.34-1.24-1.28.05-3.13.02-6.27.02-9.4Z" fill="#fff" stroke-width="0"/><path d="m179.87,162.79c-3.04,2.71-5.93,5.35-8.89,7.89-.92.79-.97,1.24-.12,2.17,3.14,3.43,6.18,6.96,9.35,10.55-1.45.56-2.35.15-3.22-.88-2.42-2.85-4.94-5.6-7.36-8.45-.77-.9-1.19-1.14-2.33-.26-2.02,1.58-3.09,3.34-2.64,5.93.1.58.11,1.22,0,1.79-.16.76.72,2.11-.95,2.09-1.55-.02-.77-1.3-.79-1.97-.1-2.87-.04-5.74-.04-8.61s-.02-6.01.02-9.01c0-.61-.43-1.55.89-1.5,1.27.05.88.95.88,1.58.03,3.06.01,6.13.01,9.33,1.03-.26,1.54-.99,2.16-1.53,3.16-2.76,6.33-5.53,9.43-8.36,1.02-.94,2.06-1.27,3.61-.78Z" fill="#fff" stroke-width="0"/><path d="m402.76,38.76c-.04-2.92,2.17-5.2,5.1-5.29,2.95-.09,5.42,2.27,5.45,5.21.04,2.87-2.46,5.36-5.36,5.34-2.85-.02-5.16-2.36-5.2-5.25Z" fill="#fff" stroke-width="0"/><path d="m396.2,49.75c-2.59,0-4.7-2.12-4.66-4.69.04-2.51,2.07-4.55,4.57-4.59,2.6-.04,4.76,2.03,4.77,4.59.01,2.57-2.09,4.68-4.68,4.69Z" fill="#fff" stroke-width="0"/><path d="m414.92,44.46c.03-2.54,2.01-4.52,4.54-4.54,2.6-.02,4.7,2.07,4.68,4.66-.02,2.6-2.12,4.68-4.7,4.65-2.62-.03-4.55-2.07-4.52-4.76Z" fill="#fff" stroke-width="0"/><path d="m202.2,173.8c0-2.66-.07-5.33.03-7.99.05-1.26-.37-1.63-1.58-1.53-1.33.1-2.67.05-4,.01-.64-.02-1.57.36-1.54-.91.03-1.13.86-.81,1.44-.81,4.4-.02,8.8-.01,13.2-.01.66,0,1.34-.14,1.3.94-.04.99-.68.79-1.24.8-1.4.01-2.81.09-4.2-.02-1.31-.1-1.71.33-1.69,1.66.08,5.33.05,10.66.01,15.99,0,.67.48,1.77-.93,1.72-1.25-.04-.78-1.04-.79-1.65-.04-2.73-.02-5.46-.02-8.19Z" fill="#fff" stroke-width="0"/><path d="m223.72,173.9c0-2.66-.08-5.33.03-7.99.05-1.36-.41-1.73-1.7-1.64-1.39.1-2.8.03-4.2.02-.57,0-1.21.15-1.24-.82-.03-.93.52-.91,1.15-.91,4.6,0,9.2,0,13.79,0,.55,0,1.03-.05,1.06.77.02.84-.35.99-1.07.97-1.47-.04-2.94.09-4.4-.04-1.47-.13-1.75.46-1.73,1.8.07,5.33.04,10.65.01,15.98,0,.61.46,1.58-.83,1.6-1.29.02-.86-.95-.87-1.57-.04-2.73-.02-5.46-.02-8.19Z" fill="#fff" stroke-width="0"/><path d="m340.43,174c0-2.8-.05-5.6.02-8.4.03-1.06-.31-1.39-1.36-1.33-1.6.08-3.2.02-4.8.02-.58,0-1.02-.05-1.03-.83,0-.74.33-.9.96-.9,4.74,0,9.47,0,14.21,0,.58,0,.82.2.83.8.01.66-.16.97-.89.95-1.47-.04-2.94.09-4.4-.04-1.46-.13-1.95.28-1.91,1.84.11,5.13.04,10.26.04,15.39,0,.4-.02.8,0,1.2.03.64-.16.98-.9.97-.82,0-.78-.52-.78-1.07,0-2.87,0-5.73,0-8.6Z" fill="#fff" stroke-width="0"/><path d="m186.84,173.05c0-2.99-.02-5.99.02-8.98,0-.62-.42-1.55.89-1.53,1.16.02.81.83.82,1.4.02,6.12.01,12.24,0,18.36,0,.63.2,1.39-.9,1.35-1.13-.03-.81-.85-.82-1.43-.02-3.06-.01-6.12-.01-9.18Z" fill="#fff" stroke-width="0"/><path d="m239.02,172.84c0-3-.01-6,.01-9,0-.51-.31-1.23.72-1.29,1.1-.06.94.65.94,1.3,0,6.13,0,12.27,0,18.4,0,.59.3,1.41-.84,1.41-1.16,0-.8-.85-.81-1.42-.03-3.13-.01-6.27-.01-9.4Z" fill="#fff" stroke-width="0"/><path d="m314.9,182.23c-1.87-1.75-2.5-3.78-1.59-6.24.16-.43.16-.92.19-1.38.03-.54.07-1.08-.75-1.11-.68-.03-.97.22-1.01.89-.06.92-.17,1.84-.31,3.26-1.01-1.24-1.63-2.19-2.44-2.95-1.51-1.43-1.7-2.59.34-3.69.5-.27.88-.82,1.2-1.31,1.16-1.77.94-4.2-.47-5.51-1.54-1.44-4.42-1.61-6.12-.36-1.68,1.23-2.11,3.3-1.23,5.37.47,1.1,2.02,1.93,1.71,2.93-.3.96-1.76,1.52-2.61,2.34-1.66,1.6-2.38,3.58-1.64,5.81.77,2.33,2.62,3.47,4.97,3.76,2.72.34,4.98-.56,6.57-2.83,1.24.92,1.62,3.22,4.02,2.17-.31-.43-.52-.84-.84-1.14Zm-10.94-15.07c-.04-1.35,1.25-2.48,2.82-2.47,1.6,0,2.78,1.06,2.79,2.48,0,1.19-2.12,3.82-3.1,3.84-.64.01-2.48-2.81-2.51-3.85Zm4.01,14.83c-.61.23-1.29.28-1.66.36-2.15-.07-3.72-.66-4.44-2.54-.71-1.84.2-3.21,1.46-4.43.29-.28.63-.5.92-.77,1.05-.99,1.91-1.18,2.76.31.59,1.03,1.46,1.9,2.2,2.84,1.58,2.02,1.23,3.29-1.24,4.22Z" fill="#fff" stroke-width="0"/><path d="m393.77,182.88c-.09-.21-.22-.51-.35-.82-2.37-6.07-4.75-12.13-7.12-18.2-.23-.59-.26-1.29-1.22-1.33-1.05-.04-1.12.73-1.39,1.38-2.43,6.04-4.87,12.08-7.28,18.13-.2.49-1.02,1.19.05,1.57.73.26,1.37,0,1.68-.93.45-1.39,1.15-2.7,1.58-4.09.39-1.25,1.1-1.58,2.35-1.51,1.93.11,3.88.11,5.81,0,1.29-.08,1.92.37,2.29,1.59.45,1.46,1.1,2.85,1.65,4.28.27.72.84.76,1.47.7.41-.04.58-.25.46-.77Zm-11.8-7.49c-.67,0-.85-.31-.63-.85,1.17-2.92,2.37-5.83,3.67-9.03,1.27,3.26,2.4,6.15,3.52,9.04.07.18.07.38.14.84-2.27,0-4.49-.01-6.71,0Z" fill="#fff" stroke-width="0"/><path d="m129.58,45.53c-.31-.78-.4-1.42-.05-2.26,5.45-13.04,7.43-26.61,6.13-40.69-.17-1.85-.7-2.47-2.57-2.54-13.01-.53-24.42,3.37-34.18,12-.59.52-.97.85-1.85.45-9.37-4.24-19.24-6-29.51-6.17-9.6-.16-18.89,1.09-27.75,4.81-1.78.75-2.94.69-4.52-.61C25.76,2.73,14.76-.52,2.53.07,1.05.14.58.66.43,2.18c-1.39,14.21.53,27.91,6.07,41.08.38.89.29,1.61-.02,2.45-2.71,7.33-3.99,14.89-3.97,22.71.04,18.09.01,36.18.01,54.27s0,37.65,0,56.47c0,2.28.15,4.54.57,6.77,3.51,18.54,18.58,30.98,37.48,30.98,18.44,0,36.88,0,55.31,0,20.99,0,37.65-16.61,37.65-37.55,0-37.38-.01-74.76.01-112.13,0-7.48-1.17-14.72-3.96-21.68Zm-33.07-1.12c4.06,0,7.43,3.36,7.36,7.36-.07,3.94-3.38,7.19-7.34,7.19-3.98,0-7.28-3.22-7.35-7.17-.07-4.03,3.25-7.37,7.33-7.38Zm-40.29,22.21c2.63,2.65,7.62,2.34,9.79-.47.54-.7.11-1.55.25-2.31.67-3.43-.55-5.79-3.79-7.24-.91-.41-2.51-.85-2.11-2.26.4-1.43,1.93-.81,2.98-.83,2.8-.07,5.6-.02,8.4-.02.74,0,1.55-.06,1.8.86.22.8-.41,1.19-.94,1.59-.05.04-.1.1-.16.12-4.21,1.77-4.37,5.32-3.98,9.1.03.32.03.7.19.96,1.68,2.7,7.27,2.96,9.15.45.11-.14.26-.25.51-.48.67,1.46.64,2.81-.2,4.01-.82,1.17-2.12,1.19-3.44.97-2.27-.38-4.33-1.28-6.28-2.44-.77-.46-1.35-.51-2.15.03-1.83,1.24-3.84,2.16-6.02,2.57-3.13.59-4.74-1.19-4.01-4.6Zm-17.58-22.21c4,.02,7.23,3.24,7.24,7.22.01,4.1-3.25,7.35-7.34,7.33-4.01-.02-7.2-3.21-7.22-7.23-.02-4.13,3.19-7.34,7.32-7.32Zm87.69,78.75c-.01,6.47,0,12.94,0,19.41,0,12.08,0,24.15,0,36.23,0,15.37-9.96,27.51-25.05,30.46-1.56.3-3.18.4-4.77.41-18.96.03-37.93.02-56.89.02-15.9,0-29.62-13.17-29.82-29.02-.21-16.94-.05-33.89-.05-50.84,0-.25.05-.5.09-.88,4.9,1.78,9.79,3.24,14.85,4.1,13.83,2.34,26.89.03,39.35-6.23,6.24-3.13,12.32-6.62,18.92-8.96,14.64-5.19,28.71-3.22,42.43,3.36.95.46.93,1.14.93,1.95Z" fill="#fff" stroke-width="0"/><path d="m103.06,170.71c-8.79-.09-16.24,7.27-16.29,16.08-.05,9.1,7.07,16.34,16.09,16.36,9.16.02,16.31-6.99,16.38-16.06.06-8.97-7.17-16.29-16.18-16.38Z" fill="#fff" stroke-width="0"/><path d="m90.99,170.84c5.54.03,9.95-4.25,10.07-9.76.11-5.35-4.41-9.94-9.86-10-5.46-.06-9.94,4.31-10.04,9.8-.1,5.41,4.36,9.93,9.84,9.96Z" fill="#fff" stroke-width="0"/><path d="m75.93,172.64c-4.77.03-8.62,3.87-8.67,8.65-.05,4.84,3.84,8.76,8.73,8.78,4.89.02,8.75-3.84,8.74-8.75,0-4.88-3.9-8.71-8.8-8.68Z" fill="#fff" stroke-width="0"/><path d="m115,155.35c-4.33,0-7.75,3.35-7.8,7.64-.04,4.39,3.38,7.85,7.79,7.85,4.45,0,7.8-3.38,7.77-7.85-.03-4.31-3.41-7.63-7.77-7.64Z" fill="#fff" stroke-width="0"/></svg>