<?xml version="1.0" encoding="UTF-8"?>
<svg id="Layer_2" data-name="Layer 2" xmlns="http://www.w3.org/2000/svg" viewBox="0 0 148.24 186.38">
  <g id="Layer_1-2" data-name="Layer 1">
    <g>
      <path d="m147.95,153.15c.19-.39.29-.77.29-1.2,0-1.06-.58-2.07-1.59-2.55-.39-.19-.82-.29-1.2-.29-1.06,0-2.07.63-2.55,1.64l-5.44,11.5-5.49-11.5c-.48-1.01-1.49-1.64-2.55-1.64-.38,0-.82.1-1.2.29-1.01.48-1.59,1.49-1.59,2.55,0,.43.1.82.29,1.2l7.36,15.54-4.57,10.15c-.19.38-.24.77-.24,1.15,0,1.06.58,2.12,1.59,2.55.38.19.82.24,1.2.24,1.06,0,2.07-.58,2.55-1.64l4.81-10.63.34-.53,7.99-16.84Zm-27.96-4.04h-2.84v-8.42c0-1.54-1.25-2.79-2.79-2.79s-2.79,1.25-2.79,2.79v8.42h-2.84c-1.54,0-2.79,1.25-2.79,2.84s1.25,2.79,2.79,2.79h2.84v14.05c0,1.54,1.25,2.79,2.79,2.79s2.79-1.25,2.79-2.79v-14.05h2.84c1.54,0,2.79-1.25,2.79-2.79s-1.25-2.84-2.79-2.84Zm-20.69,0h-2.84v-8.42c0-1.54-1.25-2.79-2.79-2.79s-2.79,1.25-2.79,2.79v8.42h-2.84c-1.54,0-2.79,1.25-2.79,2.84s1.25,2.79,2.79,2.79h2.84v14.05c0,1.54,1.25,2.79,2.79,2.79s2.79-1.25,2.79-2.79v-14.05h2.84c1.54,0,2.79-1.25,2.79-2.79s-1.25-2.84-2.79-2.84Zm-20.74,22.47c1.54,0,2.84-1.25,2.84-2.79v-16.84c0-1.54-1.3-2.84-2.84-2.84s-2.79,1.3-2.79,2.84v16.84c0,1.54,1.25,2.79,2.79,2.79Zm-13.9-11.21l6.45-6.45c.53-.53.82-1.25.82-1.97s-.29-1.44-.82-2.02c-.58-.53-1.25-.77-1.97-.77s-1.44.24-1.97.77l-7.84,7.84v-17.08c0-1.54-1.3-2.79-2.84-2.79s-2.79,1.25-2.79,2.79v28.1c0,1.54,1.25,2.79,2.79,2.79s2.84-1.25,2.84-2.79v-5.87l7.84,7.84c.53.53,1.25.82,1.97.82s1.44-.29,1.97-.82c.53-.53.82-1.25.82-1.97s-.19-1.4-.82-2.02l-6.45-6.4Zm-17.66-22.47c-1.54,0-2.79,1.25-2.79,2.79v28.1c0,1.54,1.25,2.79,2.79,2.79s2.84-1.25,2.84-2.79v-28.1c0-1.54-1.25-2.79-2.84-2.79Zm-6.64,4.23c0-1.54-1.3-2.79-2.84-2.79s-2.79,1.25-2.79,2.79,1.25,2.84,2.79,2.84,2.84-1.25,2.84-2.84Zm-2.84,29.45c1.54,0,2.84-1.25,2.84-2.79v-16.84c0-1.54-1.3-2.84-2.84-2.84s-2.79,1.3-2.79,2.84v16.84c0,1.54,1.25,2.79,2.79,2.79Zm-9.48,0c1.59,0,2.84-1.25,2.84-2.79v-28.1c0-1.49-1.2-2.79-2.84-2.79-.87,0-1.68.38-2.21,1.11l-10.39,13.86-10.39-13.86c-.53-.72-1.35-1.11-2.21-1.11-1.64,0-2.84,1.3-2.84,2.79v28.1c0,1.54,1.25,2.79,2.79,2.79s2.84-1.25,2.84-2.79v-19.68l7.55,10.1c.53.72,1.4,1.16,2.26,1.16s1.73-.43,2.26-1.16l7.55-10.1v19.68c0,1.54,1.25,2.79,2.79,2.79Z" stroke-width="0"/>
      <path d="m70.12,183.6c.23-.58.45-1.13.66-1.64.21-.52.42-1.05.65-1.6.12.31.23.6.33.86.1.27.2.52.3.78.1.26.2.51.3.77.1.26.21.54.32.83h-2.57Zm1.55-4.09h-.48l-2.71,6.73h.6c.12-.33.26-.68.41-1.05.15-.37.29-.72.43-1.05h2.97l.83,2.1h.58l-2.63-6.73Zm-4.99,6.19h-4.05v-2.71h3.78v-.53h-3.78v-2.43h4.01v-.53h-4.54v6.73h4.58v-.53Zm-6.73-6.19h-5.07v.53h2.28v6.19h.52v-6.19h2.28v-.53Zm-12.35,5.42c-.17.33-.38.57-.62.71-.24.15-.53.22-.87.22-.39,0-.72-.11-.99-.33-.29-.22-.43-.52-.43-.88s.16-.71.48-1.03c.07-.06.18-.15.32-.27.15-.11.34-.24.57-.39l1.53,1.95Zm-.73-3.16l-.27.23c-.11.09-.25.19-.4.3-.14-.19-.25-.33-.32-.42l-.14-.17c-.21-.3-.31-.55-.31-.74,0-.25.09-.44.27-.59.18-.14.4-.21.66-.21s.47.07.65.22c.18.15.27.35.27.59,0,.27-.13.53-.4.79Zm1.33,3.1c.07-.2.14-.46.19-.77.05-.32.08-.67.1-1.06h-.52c-.01.29-.03.55-.05.77-.02.22-.05.41-.1.57-.12-.16-.24-.31-.35-.45-.11-.14-.21-.27-.32-.4-.1-.13-.21-.26-.32-.4-.11-.13-.22-.28-.34-.43.21-.15.38-.27.51-.38.13-.1.22-.18.27-.23.34-.34.5-.71.5-1.11s-.14-.72-.42-.97c-.28-.24-.62-.36-1.02-.36-.19,0-.37.03-.55.09-.17.06-.33.15-.46.28s-.24.27-.32.43c-.07.16-.11.34-.11.54,0,.3.12.63.36.98l.09.12.09.11.14.19.14.2c-.22.14-.41.28-.57.4s-.3.24-.4.35c-.4.42-.61.86-.61,1.34,0,.5.21.93.62,1.27h0c.37.3.81.46,1.32.46.41,0,.76-.08,1.06-.24.3-.16.55-.41.77-.76l.67.85h.66l-1.06-1.37Zm-11.31-2.03c-.17-.04-.36-.09-.55-.13-.19-.05-.37-.09-.55-.14-.17-.05-.35-.1-.52-.14-.17-.04-.35-.09-.52-.14h0c-.67-.21-1-.58-1-1.11,0-.44.18-.77.55-1,.31-.19.73-.29,1.25-.29,1.22,0,1.85.58,1.88,1.75h.53c-.06-1.52-.87-2.29-2.42-2.29-.65,0-1.18.13-1.57.38-.51.33-.77.81-.77,1.44,0,.76.4,1.28,1.2,1.57.3.07.6.14.9.22.3.08.6.15.88.23l.18.05.18.05h0c.67.23,1,.62,1,1.19,0,.22-.05.42-.15.59-.1.18-.24.33-.42.45-.35.22-.78.33-1.29.33-1.41,0-2.12-.69-2.12-2.08h-.53c0,.92.25,1.6.75,2.02.24.19.51.34.82.44.31.1.67.15,1.08.15.31,0,.6-.04.87-.11.27-.07.51-.18.73-.32.25-.17.45-.38.59-.63.14-.24.21-.52.21-.83,0-.81-.4-1.37-1.2-1.66Zm-4.67,2.87h-4.05v-2.71h3.78v-.53h-3.78v-2.43h4.01v-.53h-4.54v6.73h4.58v-.53Zm-7.05-6.19h-.53v6.73h.53v-6.73Zm-2.62,0h-5.07v.53h2.28v6.19h.52v-6.19h2.28v-.53Zm-6.88,0h-5.07v.53h2.28v6.19h.52v-6.19h2.28v-.53Zm-7.21,0h-.53v6.73h.53v-6.73Zm-6.01,2.91l3.26-2.91h-.79c-.68.6-1.37,1.21-2.07,1.82-.69.61-1.38,1.22-2.07,1.83v-3.66H.26v6.73h.53v-2.36c.22-.2.43-.39.62-.56.2-.18.41-.36.63-.56l3.07,3.48h.71l-3.37-3.82Z" stroke-width="0"/>
      <polyline points="77.41 182.97 124.83 182.97 124.83 182.61 77.41 182.61" stroke-width="0"/>
      <circle cx="78.76" cy="144.62" r="2.74" stroke-width="0"/>
      <circle cx="75.01" cy="141.82" r="1.47" transform="translate(-72.74 79.31) rotate(-39.19)" stroke-width="0"/>
      <circle cx="78.79" cy="139.77" r="1.67" stroke-width="0"/>
      <circle cx="82.48" cy="141.64" r="1.47" stroke-width="0"/>
      <circle cx="95.07" cy="112.01" r="9.69" transform="translate(-43.38 62.85) rotate(-30.13)" stroke-width="0"/>
      <circle cx="102.26" cy="97.69" r="4.63" transform="translate(-28.04 42.72) rotate(-20.82)" stroke-width="0"/>
      <circle cx="78.91" cy="108.64" r="5.2" stroke-width="0"/>
      <circle cx="87.94" cy="96.43" r="5.9" transform="translate(-12.52 13.13) rotate(-7.97)" stroke-width="0"/>
      <path d="m114.41.17c-2.44-.27-7.07-.45-12.39,1.44-4.85,1.72-8.14,4.39-9.95,6.13-5.33-2.5-11.38-3.92-17.79-3.92h-.31c-1.59-.11-9.63-.51-18.26,3.48-1.89-1.72-5.03-4.11-9.48-5.69C40.9-.29,36.28-.1,33.83.17c-.47,3.64-.73,8.84.33,14.94.8,4.62,2.15,8.47,3.45,11.45-2.38,6.03-2.61,11.2-2.65,12.85v20.41h0v47.74c0,12.35,10.01,22.36,22.36,22.36h33.62c12.35,0,22.36-10.01,22.36-22.36v-32.27h0s0-35.88,0-35.88c0-4.54-.94-8.89-2.65-12.88,1.3-2.97,2.63-6.81,3.43-11.42,1.06-6.1.79-11.3.33-14.94Zm-23.23,26.35c2.44,0,4.41,1.98,4.41,4.41s-1.98,4.41-4.41,4.41-4.41-1.98-4.41-4.41,1.98-4.41,4.41-4.41Zm-24.14,13.32c.23-.09.51.66,1.13,1.04.77.47,2.16.42,4.84-1.34v-4.1l-3.26-2.15c-.26-.17-.38-.49-.29-.79.09-.3.37-.5.68-.5h6.68c.3,0,.57.19.67.48.1.29,0,.61-.24.79l-2.83,2.15v.02s0,4.15,0,4.15c2.66,1.67,3.99,1.68,4.72,1.21.68-.44.87-1.33,1.13-1.26.35.09.56,1.9-.18,2.66-.94.97-3.49.36-6.4-1.4-2.75,1.81-5.24,2.48-6.24,1.53-.74-.7-.73-2.36-.41-2.48Zm-10.54-13.32c2.44,0,4.41,1.98,4.41,4.41s-1.98,4.41-4.41,4.41-4.41-1.98-4.41-4.41,1.98-4.41,4.41-4.41Zm52.55,81.04c0,9.99-8.13,18.12-18.12,18.12h-33.62c-9.99,0-18.12-8.13-18.12-18.12v-30.42c6.07,2.37,12.21,3.45,18.37,2.94,14.91-1.25,20.87-10.99,34.92-11.28,5.85-.12,11.39,1.44,16.57,4.07v34.7Z" stroke-width="0"/>
    </g>
  </g>
</svg>