<?xml version="1.0" encoding="UTF-8"?><svg id="Layer_1" xmlns="http://www.w3.org/2000/svg" width="468.79" height="162.75" viewBox="0 0 468.79 162.75"><path d="m180.51,51.38c-4.52,6.05-9.04,12.09-13.57,18.14-1.2,1.6-2.38,3.22-3.59,4.81-3.02,3.98-8.05,3.98-11.07-.04-5.47-7.28-10.91-14.59-16.37-21.88-.24-.32-.49-.62-.81-1.03-.37.58-.21,1.12-.21,1.62-.01,14.32-.03,28.65,0,42.97,0,2.75-.72,5.06-3.17,6.53-2.23,1.34-4.58,1.39-6.85.1-2.29-1.3-3.29-3.39-3.29-6,0-14.83,0-29.65,0-44.48,0-6.81,0-13.62,0-20.44,0-3.31,1.69-5.82,4.5-6.73,3-.97,5.71-.03,7.77,2.71,7.73,10.29,15.45,20.58,23.18,30.86.24.32.49.63.8,1.03,4.12-5.49,8.19-10.92,12.27-16.35,3.94-5.24,7.87-10.48,11.81-15.72,1.94-2.58,4.76-3.49,7.7-2.49,2.71.92,4.41,3.39,4.41,6.49,0,21.74,0,43.48,0,65.21,0,3.92-2.85,6.81-6.66,6.82-3.76.01-6.56-2.9-6.56-6.86,0-14.58,0-29.15,0-43.73v-1.46c-.1-.03-.2-.06-.3-.09Z" fill="#7063bf" stroke-width="0"/><path d="m260.61,70.75c.68-.14.93-.62,1.26-.95,5.57-5.55,11.13-11.12,16.7-16.67,2.71-2.71,7.03-2.88,9.59-.4,2.64,2.56,2.59,6.9-.19,9.69-4.63,4.66-9.26,9.3-13.94,13.9-.74.73-.77,1.1-.01,1.85,4.66,4.55,9.27,9.15,13.88,13.75,2.84,2.82,2.96,6.98.31,9.64-2.7,2.7-6.75,2.62-9.64-.26-5.55-5.51-11.06-11.05-16.6-16.56-.37-.37-.66-.87-1.37-1.08,0,4.35.02,8.64,0,12.92-.02,3.18-1.63,5.53-4.36,6.52-4.21,1.53-8.57-1.28-8.9-5.74-.01-.2-.02-.4-.02-.6,0-21.79,0-43.57,0-65.36,0-3.89,2.82-6.73,6.55-6.74,3.84,0,6.7,2.78,6.71,6.74.04,12.62.01,25.24.02,37.86,0,.48,0,.95,0,1.48Z" fill="#7063bf" stroke-width="0"/><path d="m443.57,81.45c4.22-8.93,8.36-17.68,12.5-26.43,1.31-2.77,3.79-4.35,6.54-4.16,2.79.19,5.16,2.05,5.92,4.77.47,1.69.31,3.35-.46,4.96-6.04,12.71-11.96,25.48-18.15,38.11-4.37,8.92-8.24,18.06-12.47,27.04-1.28,2.72-3.83,4.28-6.6,4.01-4.77-.47-7.4-5.05-5.42-9.47,3.33-7.42,6.67-14.84,10.05-22.24.43-.95.41-1.69-.05-2.65-5.51-11.52-10.96-23.07-16.42-34.62-1.79-3.79-.57-7.58,2.96-9.27,3.41-1.63,7.11-.18,8.93,3.6,4.03,8.36,8.01,16.75,12.01,25.12.17.36.37.7.67,1.24Z" fill="#7063bf" stroke-width="0"/><path d="m347.54,81.33c0,5.16,0,10.32,0,15.47,0,3.8-2.55,6.5-6.26,6.67-3.66.16-6.5-2.32-6.77-6.12-.17-2.34-.1-4.7-.1-7.05,0-8.21-.03-16.43.02-24.64,0-1.2-.22-1.69-1.54-1.6-1.7.12-3.41.05-5.11.03-3.73-.05-6.53-2.89-6.51-6.6.02-3.7,2.83-6.55,6.54-6.61,1.7-.03,3.42-.11,5.11.03,1.34.11,1.52-.41,1.51-1.59-.06-5.81-.05-11.62-.02-17.43.02-3.66,1.7-6.06,4.78-6.97,4.15-1.22,8.31,1.8,8.34,6.13.04,6.11.05,12.22-.02,18.33-.02,1.3.38,1.6,1.59,1.52,1.7-.11,3.41-.05,5.11-.02,3.76.06,6.6,3,6.56,6.76-.04,3.62-2.85,6.41-6.52,6.46-1.85.02-3.71.06-5.56-.02-.96-.04-1.17.29-1.16,1.19.04,5.36.02,10.72.02,16.08Z" fill="#7063bf" stroke-width="0"/><path d="m382.93,81.16c0-5.26-.03-10.52.02-15.78.01-1.06-.28-1.38-1.33-1.33-1.8.09-3.61.04-5.41.02-3.66-.05-6.47-2.85-6.51-6.47-.04-3.69,2.77-6.65,6.43-6.74,1.8-.04,3.61-.08,5.41.02,1.11.06,1.44-.22,1.42-1.38-.07-6.11-.04-12.22-.03-18.33,0-3.3,2.38-6.06,5.52-6.48,3.31-.45,6.39,1.51,7.31,4.67.28.97.3,1.97.3,2.97,0,5.66.04,11.32-.03,16.98-.01,1.19.19,1.69,1.52,1.59,1.69-.13,3.41-.06,5.11-.03,3.71.06,6.52,2.93,6.53,6.62.01,3.71-2.79,6.54-6.53,6.59-1.6.02-3.22.1-4.81-.03-1.42-.11-1.85.26-1.83,1.76.08,9.92.04,19.83.03,29.75,0,.95-.02,1.91-.2,2.84-.62,3.23-3.69,5.36-7.14,5.05-3.22-.3-5.76-2.96-5.78-6.21-.04-5.36-.01-10.72-.01-16.08Z" fill="#7063bf" stroke-width="0"/><path d="m238.35,64.03c0,10.87,0,21.74,0,32.6,0,3.99-2.71,6.83-6.54,6.87-3.79.04-6.68-2.83-6.69-6.78-.02-21.79-.02-43.57,0-65.36,0-3.94,2.89-6.73,6.74-6.7,3.76.03,6.47,2.86,6.48,6.76,0,10.87,0,21.74,0,32.6Z" fill="#7063bf" stroke-width="0"/><path d="m216.2,77.26c0,6.41,0,12.82,0,19.23,0,4.05-2.77,6.99-6.6,7.04-3.81.05-6.63-2.9-6.63-6.98-.01-12.87-.01-25.74,0-38.61,0-4.09,2.8-7.08,6.57-7.07,3.84,0,6.65,3.02,6.66,7.17,0,6.41,0,12.82,0,19.23Z" fill="#7063bf" stroke-width="0"/><path d="m312.3,77.25c0,6.5,0,13.01,0,19.51,0,3.87-2.89,6.77-6.7,6.74-3.73-.02-6.52-2.89-6.52-6.76,0-13.01,0-26.01,0-39.02,0-3.89,2.91-6.89,6.61-6.87,3.7.02,6.61,3.03,6.61,6.88,0,6.5,0,13.01,0,19.51Z" fill="#7063bf" stroke-width="0"/><path d="m209.47,41.24c-3.63,0-6.5-2.93-6.51-6.64-.01-3.66,2.89-6.57,6.55-6.58,3.73,0,6.72,2.95,6.68,6.63-.03,3.74-2.96,6.61-6.72,6.6Z" fill="#7063bf" stroke-width="0"/><path d="m306.08,33.98c3.63,0,6.48,2.84,6.46,6.44-.01,3.56-2.94,6.48-6.48,6.48-3.57,0-6.45-2.9-6.45-6.49,0-3.62,2.83-6.43,6.47-6.43Z" fill="#7063bf" stroke-width="0"/><path d="m358.31,130.15c-17.89,0-35.79,0-53.68,0-.4,0-.8,0-1.2,0-.26,0-.48-.05-.5-.39-.03-.42.2-.51.54-.5.35,0,.7,0,1.05,0,35.94,0,71.88,0,107.81,0,.2,0,.41-.04.6,0,.36.09,1.03-.3,1,.46-.03.72-.68.41-1.04.41-9.17.02-18.34.02-27.52.02h-27.07Z" fill="#7063bf" stroke-width="0"/><path d="m204.9,121.69c3.39-.02,5.28,1.41,5.67,4.3.05.37.38.93-.34,1.09-.64.14-.83-.21-.99-.78-.86-3.17-4.47-4.45-7.24-2.61-.87.58-1.29,1.41-1.21,2.42.08,1.05.73,1.8,1.68,2.11,1.56.52,3.17.91,4.76,1.31,2.54.64,3.73,1.97,3.7,4.19-.03,2.13-1.55,3.77-3.94,4.24-1.65.32-3.29.27-4.86-.38-1.93-.8-3.17-2.82-3.09-4.9.02-.46.07-.75.64-.75.53,0,.63.24.72.71.7,3.61,3.58,5.16,7.02,3.81,1.27-.5,2.13-1.33,2.14-2.77.02-1.46-.84-2.3-2.16-2.7-1.34-.4-2.69-.78-4.04-1.11-2.95-.72-4.06-1.96-3.86-4.42.17-2.17,1.98-3.64,4.65-3.77.25-.01.5,0,.75,0Z" fill="#7063bf" stroke-width="0"/><path d="m267.02,129.78c0-2.2.03-4.4-.02-6.61-.02-.86.13-1.25,1.13-1.22,2.85.07,5.71.02,8.56.03.45,0,1.03-.22,1.03.64,0,.87-.58.65-1.02.65-2.45.01-4.91.04-7.36-.01-.79-.02-1.06.22-1.02,1.01.07,1.49-.49,3.4.23,4.37.69.94,2.71.22,4.14.28,1.2.05,2.4.01,3.61,0,.46,0,.89-.07.87.65-.02.75-.51.6-.93.6-2.25,0-4.51.05-6.76-.02-.94-.03-1.22.25-1.17,1.17.09,1.64-.56,3.81.25,4.79.85,1.03,3.1.24,4.73.3,1.25.05,2.5,0,3.76.01.4,0,.81-.07.81.57,0,.57-.19.8-.78.8-3.11-.02-6.21-.02-9.32,0-.9,0-.74-.61-.74-1.13,0-2.3,0-4.6,0-6.91Z" fill="#7063bf" stroke-width="0"/><path d="m186.32,129.81c0-2.25.04-4.5-.02-6.75-.02-.85.23-1.11,1.09-1.1,2.9.05,5.81.01,8.71.02.45,0,1.03-.21,1.02.66,0,.87-.59.63-1.03.64-2.4.02-4.81.05-7.21-.02-.94-.03-1.22.25-1.17,1.17.09,1.44-.49,3.33.23,4.21.75.93,2.72.22,4.15.28,1.2.05,2.4.02,3.6,0,.51,0,.85.03.83.7-.03.63-.42.56-.81.56-2.3,0-4.61.04-6.91-.02-.87-.02-1.12.25-1.09,1.1.06,1.4.06,2.8,0,4.2-.03.79.21,1.01,1,1,2.5-.05,5.01-.03,7.51,0,.39,0,.93-.23.95.56.02.72-.34.8-.92.8-3-.02-6.01-.02-9.01,0-.73,0-.94-.26-.93-.96.04-2.35.01-4.7.01-7.05Z" fill="#7063bf" stroke-width="0"/><path d="m134.97,122.15c-2.28,2.04-4.45,4.01-6.67,5.92-.69.59-.73.93-.09,1.62,2.36,2.57,4.63,5.22,7.01,7.92-1.08.42-1.76.11-2.42-.66-1.81-2.14-3.71-4.21-5.52-6.34-.58-.68-.9-.86-1.75-.19-1.52,1.18-2.32,2.5-1.98,4.45.08.44.08.91,0,1.35-.12.57.54,1.59-.71,1.57-1.17-.02-.58-.98-.59-1.48-.07-2.15-.03-4.31-.03-6.46s-.01-4.51.01-6.76c0-.46-.32-1.16.67-1.13.95.03.66.71.66,1.19.02,2.3.01,4.6.01,7,.77-.2,1.16-.74,1.62-1.15,2.37-2.07,4.75-4.15,7.08-6.28.77-.7,1.55-.95,2.71-.58Z" fill="#7063bf" stroke-width="0"/><path d="m302.22,29.09c-.03-2.19,1.63-3.91,3.83-3.97,2.21-.07,4.06,1.7,4.09,3.91.03,2.16-1.85,4.02-4.02,4.01-2.14-.02-3.87-1.77-3.9-3.94Z" fill="#7063bf" stroke-width="0"/><path d="m297.3,37.33c-1.94,0-3.53-1.59-3.5-3.52.03-1.89,1.55-3.41,3.43-3.44,1.95-.03,3.57,1.53,3.58,3.44.01,1.93-1.57,3.51-3.52,3.52Z" fill="#7063bf" stroke-width="0"/><path d="m311.34,33.36c.02-1.91,1.51-3.39,3.41-3.41,1.95-.01,3.53,1.56,3.51,3.49-.02,1.95-1.59,3.51-3.53,3.49-1.97-.02-3.42-1.55-3.39-3.57Z" fill="#7063bf" stroke-width="0"/><path d="m151.72,130.42c0-2-.05-4,.02-6,.03-.95-.28-1.22-1.19-1.15-.99.08-2,.04-3,0-.48-.02-1.18.27-1.15-.69.02-.85.64-.61,1.08-.61,3.3-.02,6.6,0,9.91,0,.5,0,1.01-.11.98.71-.03.74-.51.6-.93.6-1.05.01-2.11.07-3.15-.01-.99-.08-1.28.24-1.27,1.25.06,4,.03,8,0,12,0,.51.36,1.33-.7,1.29-.94-.03-.59-.78-.59-1.24-.03-2.05-.01-4.1-.01-6.15Z" fill="#7063bf" stroke-width="0"/><path d="m167.87,130.49c0-2-.06-4,.02-5.99.04-1.02-.31-1.3-1.27-1.23-1.04.08-2.1.02-3.15.01-.43,0-.91.11-.93-.62-.02-.7.39-.68.87-.68,3.45,0,6.9,0,10.35,0,.41,0,.77-.04.79.58.02.63-.26.74-.8.73-1.1-.03-2.21.07-3.3-.03-1.1-.1-1.31.35-1.3,1.35.05,4,.03,7.99,0,11.99,0,.46.34,1.19-.62,1.2-.97.02-.65-.71-.65-1.18-.03-2.05-.01-4.1-.01-6.15Z" fill="#7063bf" stroke-width="0"/><path d="m255.45,130.57c0-2.1-.03-4.2.02-6.3.02-.8-.23-1.04-1.02-1-1.2.06-2.4.01-3.6.02-.43,0-.77-.04-.77-.63,0-.56.25-.68.72-.68,3.55,0,7.11,0,10.66,0,.44,0,.61.15.62.6,0,.49-.12.73-.67.71-1.1-.03-2.21.06-3.3-.03-1.1-.09-1.46.21-1.44,1.38.08,3.85.03,7.7.03,11.55,0,.3-.01.6,0,.9.02.48-.12.73-.67.73-.62,0-.58-.39-.58-.8,0-2.15,0-4.3,0-6.45Z" fill="#7063bf" stroke-width="0"/><path d="m140.2,129.85c0-2.25-.01-4.49.01-6.74,0-.46-.31-1.16.67-1.14.87.02.61.62.61,1.05.01,4.59.01,9.19,0,13.78,0,.47.15,1.04-.68,1.02-.85-.03-.61-.63-.61-1.07-.02-2.3,0-4.59,0-6.89Z" fill="#7063bf" stroke-width="0"/><path d="m179.35,129.69c0-2.25,0-4.5,0-6.76,0-.39-.23-.93.54-.97.82-.04.7.48.7.97,0,4.6,0,9.21,0,13.81,0,.45.22,1.06-.63,1.06-.87,0-.6-.63-.61-1.07-.02-2.35,0-4.7,0-7.06Z" fill="#7063bf" stroke-width="0"/><path d="m236.29,136.74c-1.4-1.31-1.88-2.84-1.19-4.68.12-.32.12-.69.14-1.04.02-.4.05-.81-.56-.84-.51-.02-.73.16-.76.67-.04.69-.13,1.38-.23,2.45-.76-.93-1.22-1.64-1.83-2.22-1.13-1.08-1.28-1.95.25-2.77.37-.2.66-.62.9-.99.87-1.33.7-3.15-.35-4.13-1.16-1.08-3.32-1.21-4.6-.27-1.26.92-1.58,2.48-.92,4.03.35.82,1.52,1.45,1.28,2.2-.22.72-1.32,1.14-1.96,1.76-1.25,1.2-1.79,2.68-1.23,4.36.58,1.75,1.97,2.6,3.73,2.82,2.04.25,3.74-.42,4.93-2.13.93.69,1.22,2.42,3.02,1.63-.23-.32-.39-.63-.63-.86Zm-8.21-11.3c-.03-1.01.94-1.86,2.12-1.85,1.2,0,2.09.8,2.09,1.86,0,.89-1.59,2.87-2.33,2.88-.48,0-1.86-2.11-1.88-2.89Zm3.01,11.13c-.46.17-.97.21-1.25.27-1.62-.06-2.79-.5-3.33-1.9-.53-1.38.15-2.41,1.09-3.32.21-.21.47-.37.69-.58.79-.74,1.43-.89,2.07.23.44.77,1.09,1.43,1.65,2.13,1.19,1.51.92,2.47-.93,3.17Z" fill="#7063bf" stroke-width="0"/><path d="m295.47,137.23c-.07-.16-.17-.38-.26-.62-1.78-4.55-3.56-9.1-5.34-13.65-.17-.44-.19-.97-.91-.99-.79-.03-.84.54-1.04,1.03-1.83,4.53-3.65,9.06-5.46,13.6-.15.37-.77.9.04,1.18.55.19,1.03,0,1.26-.7.34-1.04.86-2.02,1.19-3.07.29-.94.83-1.19,1.77-1.13,1.45.08,2.91.09,4.36,0,.97-.06,1.44.28,1.72,1.19.34,1.09.83,2.14,1.24,3.21.21.54.63.57,1.1.52.31-.03.44-.19.35-.57Zm-8.85-5.62c-.51,0-.64-.23-.47-.64.88-2.19,1.78-4.38,2.76-6.78.95,2.45,1.8,4.61,2.64,6.78.05.13.05.29.11.63-1.71,0-3.37-.01-5.03,0Z" fill="#7063bf" stroke-width="0"/><path d="m97.23,34.17c-.23-.58-.3-1.07-.04-1.69,4.09-9.79,5.58-19.96,4.6-30.53-.13-1.39-.52-1.85-1.93-1.91-9.76-.4-18.33,2.53-25.65,9-.44.39-.73.64-1.39.34-7.03-3.18-14.44-4.5-22.14-4.63-7.2-.12-14.17.82-20.83,3.61-1.34.56-2.2.52-3.39-.46C19.33,2.05,11.07-.39,1.9.05.79.11.44.5.33,1.63c-1.04,10.66.39,20.94,4.56,30.82.28.67.21,1.21-.02,1.84-2.03,5.5-3,11.17-2.98,17.04.03,13.57.01,27.15.01,40.72s0,28.25,0,42.37c0,1.71.11,3.41.43,5.08,2.63,13.91,13.94,23.25,28.13,23.25,13.84,0,27.67,0,41.51,0,15.75,0,28.25-12.47,28.25-28.18,0-28.05,0-56.1,0-84.14,0-5.61-.88-11.05-2.97-16.26Zm-24.82-.84c3.04,0,5.58,2.52,5.53,5.52-.05,2.96-2.54,5.4-5.51,5.4-2.99,0-5.46-2.41-5.52-5.38-.06-3.02,2.44-5.53,5.5-5.54Zm-30.23,16.67c1.97,1.99,5.72,1.76,7.35-.36.41-.53.08-1.16.19-1.73.5-2.57-.41-4.34-2.85-5.43-.68-.3-1.88-.63-1.58-1.69.3-1.08,1.45-.61,2.24-.63,2.1-.05,4.2-.02,6.31-.02.56,0,1.16-.04,1.35.65.17.6-.31.89-.71,1.19-.04.03-.07.07-.12.09-3.16,1.33-3.28,3.99-2.99,6.83.02.24.02.52.14.72,1.26,2.03,5.45,2.22,6.87.33.08-.11.2-.19.38-.36.5,1.09.48,2.11-.15,3.01-.62.88-1.59.89-2.58.73-1.7-.28-3.25-.96-4.72-1.83-.58-.34-1.02-.38-1.61.02-1.37.93-2.88,1.62-4.52,1.93-2.35.44-3.56-.89-3.01-3.45Zm-13.19-16.67c3,.01,5.43,2.43,5.44,5.42,0,3.08-2.44,5.52-5.51,5.5-3.01-.02-5.4-2.41-5.42-5.42-.01-3.1,2.39-5.51,5.49-5.5Zm65.8,59.09c0,4.86,0,9.71,0,14.57,0,9.06,0,18.12,0,27.18,0,11.53-7.48,20.64-18.8,22.85-1.17.23-2.39.3-3.58.3-14.23.02-28.46.02-42.69.01-11.93,0-22.22-9.88-22.37-21.77-.16-12.71-.04-25.43-.03-38.15,0-.19.04-.37.07-.66,3.68,1.33,7.35,2.43,11.15,3.07,10.38,1.75,20.18.03,29.53-4.67,4.68-2.35,9.24-4.97,14.2-6.72,10.98-3.9,21.54-2.42,31.84,2.52.72.34.7.85.7,1.47Z" fill="#7063bf" stroke-width="0"/><path d="m77.33,128.09c-6.59-.06-12.19,5.46-12.23,12.06-.04,6.83,5.3,12.26,12.07,12.28,6.87.02,12.24-5.25,12.29-12.05.05-6.73-5.38-12.23-12.14-12.29Z" fill="#7063bf" stroke-width="0"/><path d="m68.28,128.2c4.16.02,7.47-3.19,7.55-7.33.09-4.01-3.31-7.46-7.4-7.5-4.1-.04-7.46,3.23-7.54,7.35-.08,4.06,3.27,7.45,7.38,7.48Z" fill="#7063bf" stroke-width="0"/><path d="m56.97,129.55c-3.58.02-6.47,2.9-6.51,6.49-.04,3.64,2.88,6.57,6.55,6.59,3.67.01,6.56-2.88,6.56-6.56,0-3.66-2.92-6.53-6.61-6.51Z" fill="#7063bf" stroke-width="0"/><path d="m86.29,116.57c-3.25,0-5.82,2.51-5.85,5.73-.03,3.3,2.54,5.89,5.85,5.89,3.34,0,5.85-2.54,5.83-5.89-.02-3.23-2.56-5.73-5.83-5.73Z" fill="#7063bf" stroke-width="0"/></svg>