<?xml version="1.0" encoding="UTF-8"?>
<svg id="Layer_2" data-name="Layer 2" xmlns="http://www.w3.org/2000/svg" viewBox="0 0 385.15 475.03">
  <g id="Assets">
    <g>
      <circle cx="192.58" cy="192.58" r="188.58" fill="none" stroke="#fff" stroke-miterlimit="10" stroke-width="8"/>
      <g>
        <circle cx="227.13" cy="275.17" r="15.98" transform="translate(-107.43 151.17) rotate(-30.13)" fill="#fff" stroke-width="0"/>
        <circle cx="238.98" cy="251.55" r="7.64" transform="translate(-73.8 101.35) rotate(-20.82)" fill="#fff" stroke-width="0"/>
        <circle cx="200.47" cy="269.6" r="8.57" fill="#fff" stroke-width="0"/>
        <circle cx="215.36" cy="249.47" r="9.73" transform="translate(-32.52 32.28) rotate(-7.97)" fill="#fff" stroke-width="0"/>
        <path d="m259.01,90.73c-4.03-.44-11.65-.75-20.43,2.37-8.01,2.84-13.42,7.25-16.41,10.11-8.8-4.12-18.76-6.46-29.33-6.46h-.52c-2.63-.18-15.88-.84-30.11,5.73-3.12-2.84-8.29-6.78-15.64-9.38-8.78-3.12-16.41-2.81-20.43-2.37-.77,6-1.21,14.58.54,24.63,1.32,7.63,3.54,13.97,5.68,18.88-3.92,9.94-4.31,18.46-4.37,21.2v33.66h0v78.72c0,20.36,16.51,36.87,36.87,36.87h55.44c20.36,0,36.87-16.51,36.87-36.87v-53.21h0s0-59.17,0-59.17c0-7.49-1.56-14.65-4.36-21.24,2.14-4.9,4.34-11.23,5.66-18.83,1.75-10.05,1.31-18.64.54-24.63Zm-38.3,43.45c4.02,0,7.28,3.26,7.28,7.28s-3.26,7.28-7.28,7.28-7.28-3.26-7.28-7.28,3.26-7.28,7.28-7.28Zm-39.81,21.96c.38-.14.83,1.09,1.86,1.71,1.27.77,3.57.69,7.98-2.22v-6.76l-5.37-3.54c-.43-.28-.62-.82-.48-1.31.15-.49.6-.83,1.12-.83h11.01c.5,0,.95.32,1.11.79.16.47,0,1-.4,1.3l-4.66,3.54v.03s0,6.84,0,6.84c4.38,2.76,6.59,2.77,7.78,2,1.12-.72,1.43-2.19,1.86-2.08.58.15.93,3.13-.3,4.39-1.55,1.6-5.76.6-10.55-2.31-4.54,2.98-8.65,4.08-10.29,2.53-1.22-1.15-1.2-3.89-.67-4.09Zm-17.39-21.96c4.02,0,7.28,3.26,7.28,7.28s-3.26,7.28-7.28,7.28-7.28-3.26-7.28-7.28,3.26-7.28,7.28-7.28Zm86.66,133.64c0,16.47-13.4,29.88-29.88,29.88h-55.44c-16.47,0-29.88-13.4-29.88-29.88v-50.17c10.02,3.9,20.13,5.7,30.29,4.85,24.59-2.06,34.41-18.13,57.59-18.6,9.65-.2,18.78,2.38,27.32,6.71v57.21Z" fill="#fff" stroke-width="0"/>
      </g>
      <circle cx="192.58" cy="192.58" r="133.45" fill="none" stroke="#fff" stroke-miterlimit="10" stroke-width="4"/>
      <circle cx="192.58" cy="192.58" r="172.76" fill="none" stroke="#fff" stroke-miterlimit="10" stroke-width="4"/>
      <text transform="translate(94.05 91.15) rotate(-40.15)" fill="#fff" font-family="Odin-Bold, &apos;Odin Rounded&apos;" font-size="34.65" font-weight="700"><tspan x="0" y="0">-</tspan></text>
      <text transform="translate(113.98 74.77) rotate(-28.7)" fill="#fff" font-family="Odin-Bold, &apos;Odin Rounded&apos;" font-size="34.65" font-weight="700"><tspan x="0" y="0">M</tspan></text>
      <text transform="translate(141.75 60.92) rotate(-19.73)" fill="#fff" font-family="Odin-Bold, &apos;Odin Rounded&apos;" font-size="34.65" font-weight="700"><tspan x="0" y="0">I</tspan></text>
      <text transform="translate(154.01 56.63) rotate(-12.55)" fill="#fff" font-family="Odin-Bold, &apos;Odin Rounded&apos;" font-size="34.65" font-weight="700"><tspan x="0" y="0">L</tspan></text>
      <text transform="translate(175.51 52.23) rotate(-3.05)" fill="#fff" font-family="Odin-Bold, &apos;Odin Rounded&apos;" font-size="34.65" font-weight="700"><tspan x="0" y="0">K</tspan></text>
      <text transform="translate(200.55 51.71) rotate(4.56)" fill="#fff" font-family="Odin-Bold, &apos;Odin Rounded&apos;" font-size="34.65" font-weight="700"><tspan x="0" y="0">I</tspan></text>
      <text transform="translate(213.49 52.74) rotate(12.29)" fill="#fff" font-family="Odin-Bold, &apos;Odin Rounded&apos;" font-size="34.65" font-weight="700"><tspan x="0" y="0">T</tspan></text>
      <text transform="translate(237.68 58.55) rotate(22.47)" fill="#fff" font-family="Odin-Bold, &apos;Odin Rounded&apos;" font-size="34.65" font-weight="700"><tspan x="0" y="0">T</tspan></text>
      <text transform="translate(260.46 68.46) rotate(32.98)" fill="#fff" font-family="Odin-Bold, &apos;Odin Rounded&apos;" font-size="34.65" font-weight="700"><tspan x="0" y="0">Y</tspan></text>
      <text transform="translate(280.32 81.69) rotate(42.42)" fill="#fff" font-family="Odin-Bold, &apos;Odin Rounded&apos;" font-size="34.65" font-weight="700"><tspan x="0" y="0">-</tspan></text>
      <text transform="translate(63.08 295.8) rotate(48.2)" fill="#fff" font-family="Odin-Bold, &apos;Odin Rounded&apos;" font-size="33.59" font-weight="700"><tspan x="0" y="0">K</tspan></text>
      <text transform="translate(81.52 315.06) rotate(41.37)" fill="#fff" font-family="Odin-Bold, &apos;Odin Rounded&apos;" font-size="33.59" font-weight="700"><tspan x="0" y="0">I</tspan></text>
      <text transform="translate(93.48 325.22) rotate(33.63)" fill="#fff" font-family="Odin-Bold, &apos;Odin Rounded&apos;" font-size="33.59" font-weight="700"><tspan x="0" y="0">T</tspan></text>
      <text transform="translate(117.04 339.94) rotate(23.97)" fill="#fff" font-family="Odin-Bold, &apos;Odin Rounded&apos;" font-size="33.59" font-weight="700"><tspan x="0" y="0">T</tspan></text>
      <text transform="translate(142.15 350.07) rotate(16.57)" fill="#fff" font-family="Odin-Bold, &apos;Odin Rounded&apos;" font-size="33.59" font-weight="700"><tspan x="0" y="0">I</tspan></text>
      <text transform="translate(156.9 354.24) rotate(9.38)" fill="#fff" font-family="Odin-Bold, &apos;Odin Rounded&apos;" font-size="33.59" font-weight="700"><tspan x="0" y="0">E</tspan></text>
      <text transform="translate(183.3 357.85) rotate(.15)" fill="#fff" font-family="Odin-Bold, &apos;Odin Rounded&apos;" font-size="33.59" font-weight="700"><tspan x="0" y="0">S</tspan></text>
      <text transform="translate(209.55 357.05) rotate(-7.45)" fill="#fff" font-family="Odin-Bold, &apos;Odin Rounded&apos;" font-size="33.59" font-weight="700"><tspan x="0" y="0"> </tspan></text>
      <text transform="translate(227.42 354.5) rotate(-15.77)" fill="#fff" font-family="Odin-Bold, &apos;Odin Rounded&apos;" font-size="33.59" font-weight="700"><tspan x="0" y="0">&amp;</tspan></text>
      <text transform="translate(256.13 345.25) rotate(-24.13)" fill="#fff" font-family="Odin-Bold, &apos;Odin Rounded&apos;" font-size="33.59" font-weight="700"><tspan x="0" y="0"> </tspan></text>
      <text transform="translate(272.34 337.66) rotate(-32)" fill="#fff" font-family="Odin-Bold, &apos;Odin Rounded&apos;" font-size="33.59" font-weight="700"><tspan x="0" y="0">T</tspan></text>
      <text transform="translate(295.4 322.3) rotate(-41.48)" fill="#fff" font-family="Odin-Bold, &apos;Odin Rounded&apos;" font-size="33.59" font-weight="700"><tspan x="0" y="0">E</tspan></text>
      <text transform="translate(315.14 304) rotate(-51.55)" fill="#fff" font-family="Odin-Bold, &apos;Odin Rounded&apos;" font-size="33.59" font-weight="700"><tspan x="0" y="0">A</tspan></text>
    </g>
  </g>
</svg>