<?xml version="1.0" encoding="UTF-8"?>
<svg id="Layer_2" data-name="Layer 2" xmlns="http://www.w3.org/2000/svg" viewBox="0 0 81.4 129.91">
  <g id="Assets">
    <g>
      <circle cx="61.65" cy="112.01" r="9.69" transform="translate(-47.89 46.08) rotate(-30.13)" stroke-width="0"/>
      <circle cx="68.83" cy="97.69" r="4.63" transform="translate(-30.22 30.84) rotate(-20.82)" stroke-width="0"/>
      <circle cx="45.49" cy="108.64" r="5.2" stroke-width="0"/>
      <circle cx="54.51" cy="96.43" r="5.9" transform="translate(-12.85 8.49) rotate(-7.97)" stroke-width="0"/>
      <path d="m80.99.17c-2.44-.27-7.07-.45-12.39,1.44-4.85,1.72-8.14,4.39-9.95,6.13-5.33-2.5-11.38-3.92-17.79-3.92h-.31c-1.59-.11-9.63-.51-18.26,3.48-1.89-1.72-5.03-4.11-9.48-5.69C7.48-.29,2.85-.1.41.17-.06,3.8-.32,9.01.74,15.11c.8,4.62,2.15,8.47,3.45,11.45-2.38,6.03-2.61,11.2-2.65,12.85v20.41h0v47.74c0,12.35,10.01,22.36,22.36,22.36h33.62c12.35,0,22.36-10.01,22.36-22.36v-32.27h0s0-35.88,0-35.88c0-4.54-.94-8.89-2.65-12.88,1.3-2.97,2.63-6.81,3.43-11.42,1.06-6.1.79-11.3.33-14.94Zm-23.23,26.35c2.44,0,4.41,1.98,4.41,4.41s-1.98,4.41-4.41,4.41-4.41-1.98-4.41-4.41,1.98-4.41,4.41-4.41Zm-24.14,13.32c.23-.09.51.66,1.13,1.04.77.47,2.16.42,4.84-1.34v-4.1l-3.26-2.15c-.26-.17-.38-.49-.29-.79.09-.3.37-.5.68-.5h6.68c.3,0,.57.19.67.48.1.29,0,.61-.24.79l-2.83,2.15v.02s0,4.15,0,4.15c2.66,1.67,3.99,1.68,4.72,1.21.68-.44.87-1.33,1.13-1.26.35.09.56,1.9-.18,2.66-.94.97-3.49.36-6.4-1.4-2.75,1.81-5.24,2.48-6.24,1.53-.74-.7-.73-2.36-.41-2.48Zm-10.54-13.32c2.44,0,4.41,1.98,4.41,4.41s-1.98,4.41-4.41,4.41-4.41-1.98-4.41-4.41,1.98-4.41,4.41-4.41Zm52.55,81.04c0,9.99-8.13,18.12-18.12,18.12H23.89c-9.99,0-18.12-8.13-18.12-18.12v-30.42c6.07,2.37,12.21,3.45,18.37,2.94,14.91-1.25,20.87-10.99,34.92-11.28,5.85-.12,11.39,1.44,16.57,4.07v34.7Z" stroke-width="0"/>
    </g>
  </g>
</svg>