<?xml version="1.0" encoding="UTF-8"?>
<svg id="Layer_2" data-name="Layer 2" xmlns="http://www.w3.org/2000/svg" viewBox="0 0 1727.48 932.95">
  <g id="boba">
    <g>
      <ellipse id="boba7" cx="814.06" cy="766.07" rx="166.88" ry="166.07" transform="translate(-74.3 1444.57) rotate(-80.63)" fill="#9970c1" stroke-width="0"/>
      <circle id="boba6" cx="1228.83" cy="617.38" r="148.41" fill="#9970c1" stroke-width="0"/>
      <g id="boba2">
        <circle cx="217.17" cy="628.76" r="217.17" fill="#e5a8d8" stroke-width="0"/>
        <path d="m82.78,641.18c-1.61-5.65-2.8-11.36-3.6-17.17l1.07,7.98c-1.32-10.61-1.27-21.24.1-31.85-.36,2.66-.71,5.32-1.07,7.98,1.5-10.59,4.28-20.85,8.34-30.75l-3.02,7.17c3.56-8.35,7.97-16.23,13.28-23.6,4.3-5.97,4.9-16.31,3.02-23.12s-7.3-14.5-13.79-17.93c-6.96-3.68-15.4-5.52-23.12-3.02s-13.13,7.13-17.93,13.79c-25.76,35.78-33.14,84.3-21.14,126.49,4.29,15.09,21.4,25.97,36.9,20.95,15.36-4.97,25.55-20.73,20.95-36.9h0Z" fill="#f2bdd5" stroke-width="0"/>
        <path d="m101.92,702.26s-.07-.08-.1-.12l4.69,6.07c-.05-.07-.1-.15-.14-.23l3.02,7.17c-.02-.06-.04-.11-.05-.17l1.07,7.98c0-.06,0-.1,0-.16l-1.07,7.98c0-.05.02-.1.04-.15l-3.02,7.17c.03-.07.06-.13.11-.19l-4.69,6.07c.06-.08.13-.14.21-.21l-6.07,4.69c.14-.11.3-.19.47-.26-2.39,1.01-4.78,2.02-7.17,3.02.23-.09.46-.15.7-.18l-7.98,1.07c.19-.02.37-.02.56,0l-7.98-1.07c.13.02.24.04.36.09l-7.17-3.02c.09.04.16.08.24.14l-6.07-4.69s.07.07.11.11c-1.56-2.02-3.13-4.05-4.69-6.07.03.05.05.09.08.14l-3.02-7.17c.02.06.03.11.04.16l-1.07-7.98c0,.06,0,.12,0,.19l1.07-7.98c-.01.1-.04.2-.07.29-1.25,3.99-1.43,7.98-.54,11.96.18,3.99,1.37,7.71,3.56,11.15,1.89,3.5,4.46,6.3,7.73,8.42,2.9,2.65,6.3,4.44,10.2,5.37l7.98,1.07c5.42-.02,10.46-1.38,15.14-4.1l6.07-4.69c3.72-3.74,6.29-8.16,7.72-13.24.02-.07.04-.15.06-.22.12-.45,1.07-7.64,1.09-8.11.12-2.76-.26-5.63-1.12-8.26-1.01-2.39-2.02-4.78-3.02-7.17-.01-.03-.03-.06-.05-.09-1.21-2.27-2.86-4.4-4.74-6.14-1.04-.96.63.46-3.13-2.44.71.55-2.06-1.73-3.12-2.41-2.25-1.44-4.83-2.56-7.43-3.14-.06-.01-.12-.03-.18-.04-.49-.12-7.6-1.07-8.11-1.09-2.92-.12-5.86.51-8.71,1.13-.13.03-.26.07-.38.11-.91.3-6.44,2.66-7.3,3.08-.06.03-.12.06-.18.09-4.53,2.56-8.57,6.66-11.21,11.13-1.35,2.3-2.54,4.79-3.13,7.38-.01.03-.02.07-.02.1l-1.07,7.98c0,.05,0,.11,0,.16-.19,4.79,1.64,11.3,4.17,15.37,1.42,2.27,3.1,4.39,4.91,6.37,2.72,2.93,5.94,4.99,9.65,6.2,3.58,1.88,7.43,2.74,11.56,2.58,4.13.16,7.98-.71,11.56-2.58,3.72-1.21,6.94-3.28,9.65-6.2l4.69-6.07c2.71-4.68,4.08-9.73,4.1-15.14l-1.07-7.98c-1.43-5.08-4-9.49-7.72-13.24h0Z" fill="#f2bdd5" stroke-width="0"/>
      </g>
      <g id="boba4">
        <circle cx="1248.62" cy="227.56" r="227.56" fill="#9970c1" stroke-width="0"/>
        <path d="m1293.01,84.04c9.47,1.5,18.64,4.12,27.5,7.77l-7.17-3.02c6.02,2.57,11.84,5.55,17.39,9.02,2.56,1.6,5.04,3.32,7.49,5.08,4.55,3.25-5.28-4.38-1.29-1,1.34,1.14,2.71,2.25,4.03,3.42,4.73,4.19,8.93,8.8,13.08,13.55,3.78,4.33-4.3-6.01-.98-1.32.87,1.23,1.77,2.44,2.62,3.69,1.98,2.91,3.81,5.92,5.53,8.99,7.69,13.69,27.59,19.44,41.05,10.76,13.85-8.93,18.99-26.4,10.76-41.05-21.3-37.93-60.86-66.9-104.06-73.74-8.23-1.3-15.65-1.35-23.12,3.02-6.22,3.64-12.16,10.78-13.79,17.93-1.75,7.68-1.37,16.3,3.02,23.12,3.96,6.14,10.38,12.59,17.93,13.79h0Z" fill="#f2bdd5" stroke-width="0"/>
        <path d="m1393.23,209.33l.18.42-3.02-7.17c.15.45.24.85.3,1.32l-1.07-7.98c.03.47.01.89-.04,1.36l1.07-7.98c-.09.46-.2.87-.37,1.31l3.02-7.17c-.2.43-.41.79-.68,1.17l4.69-6.07-.29.35c15.71,2.02,31.41,4.05,47.12,6.07-.26-.46-.49-.9-.7-1.38l3.02,7.17c-.32-.82-.54-1.63-.69-2.49l1.07,7.98c-.13-1.05-.13-2.05,0-3.1l-1.07,7.98c.05-.34.12-.68.21-1.02-16.71,4.41-33.43,8.83-50.14,13.24.7.69,1.4,1.38,2.09,2.07,2.72,2.93,5.94,4.99,9.65,6.2,3.58,1.88,7.43,2.74,11.56,2.58,4.13.16,7.98-.71,11.56-2.58,3.72-1.21,6.94-3.28,9.65-6.2,5.25-5.72,9.14-13.22,8.79-21.21s-3.02-15.52-8.79-21.21c-.7-.69-1.4-1.38-2.09-2.07-7.62-7.53-18.82-10.57-29.19-7.72-9.74,2.68-18.65,10.89-20.95,20.95-.72,3.14-1.13,6.55-1.36,9.76-.15,2.08.35,4.33.62,6.31s.39,4.04,1.04,6c.83,2.5,2.11,5.26,3.21,7.65.22.48.44.93.7,1.38,2.67,4.51,6.25,8.1,10.76,10.76,3.44,2.19,7.16,3.38,11.15,3.56,3.99.89,7.98.71,11.96-.54,5.08-1.43,9.49-4,13.24-7.72,2-2.34,4.13-4.66,5.57-7.38,3.03-5.7,3.29-7.18,4.02-12.67.15-1.14.55-3.16.59-4.67.01-.23,0-.45-.02-.68-.36-2.66-.71-5.32-1.07-7.98-.53-3.09-2.28-6.05-3.51-8.9-1.89-3.5-4.46-6.3-7.73-8.42-2.9-2.65-6.3-4.44-10.2-5.37-3.99-1.25-7.98-1.43-11.96-.54-3.99.18-7.71,1.37-11.15,3.56-6.41,4.13-12.04,10.28-13.79,17.93l-1.07,7.98c.02,5.42,1.38,10.46,4.1,15.14Z" fill="#f2bdd5" stroke-width="0"/>
      </g>
      <g id="boba5">
        <ellipse cx="1516.25" cy="471.55" rx="211.24" ry="195.51" fill="#da84c3" stroke-width="0"/>
        <path d="m1459.23,373.78c7.32-5.37,15.16-9.85,23.48-13.49l-7.17,3.02c10.35-4.36,21.13-7.3,32.25-8.84-2.66.36-5.32.71-7.98,1.07,10.61-1.32,21.24-1.33,31.84.04l-7.98-1.07c5.28.76,10.48,1.83,15.62,3.24,15.12,4.15,33.3-5.15,36.9-20.95s-4.76-32.45-20.95-36.9c-42.28-11.62-90.74-4.04-126.32,22.07-6.5,4.77-11.57,9.87-13.79,17.93-1.98,7.18-1.08,16.74,3.02,23.12,8.05,12.49,27.52,20.69,41.05,10.76h0Z" fill="#f2bdd5" stroke-width="0"/>
        <path d="m1393.13,418.72c.25-.3.49-.55.78-.8l-6.07,4.69c.4-.31.81-.56,1.27-.78l-7.17,3.02c.47-.19.93-.32,1.43-.41l-7.98,1.07c.51-.06.98-.06,1.49,0l-7.98-1.07c.25.03.49.09.73.16-5.98-14.69-11.95-29.38-17.93-44.07-.14.22-.29.44-.45.65l4.69-6.07c-.57.74-1.2,1.38-1.93,1.97l6.07-4.69c-.75.56-1.52,1.02-2.37,1.41l7.17-3.02c-.62.25-1.23.45-1.88.6,12.3,12.3,24.6,24.6,36.9,36.9l.92-2.8c1.25-3.99,1.43-7.98.54-11.96-.18-3.99-1.37-7.71-3.56-11.15-1.89-3.5-4.46-6.3-7.73-8.42-2.9-2.65-6.3-4.44-10.2-5.37l-7.98-1.07c-5.42.02-10.46,1.38-15.14,4.1l-6.07,4.69c-3.72,3.74-6.29,8.16-7.72,13.24l-.92,2.8c-1.43,5.32-1.43,10.63,0,15.95,1.43,5.08,4,9.49,7.72,13.24,3.74,3.72,8.16,6.29,13.24,7.72,5.32,1.43,10.63,1.43,15.95,0,3.89-.91,7.83-2.49,11.1-4.79,6.26-4.4,9.22-7.17,13.45-13.62,2.71-4.68,4.08-9.73,4.1-15.14.16-4.13-.71-7.98-2.58-11.56-1.21-3.72-3.28-6.94-6.2-9.65-3.74-3.72-8.16-6.29-13.24-7.72-5.97-1.55-13.13-1.86-19.08.06-2.92.94-5.94,1.97-8.51,3.67-.16.1-.31.21-.45.33l-6.07,4.69c-.28.26-.53.51-.78.8-2.93,2.72-4.99,5.94-6.2,9.65-1.88,3.58-2.74,7.43-2.58,11.56-.16,4.13.71,7.98,2.58,11.56,1.21,3.72,3.28,6.94,6.2,9.65l6.07,4.69c4.68,2.71,9.73,4.08,15.14,4.1l7.98-1.07c5.08-1.43,9.49-4,13.24-7.72Z" fill="#f2bdd5" stroke-width="0"/>
      </g>
      <g id="boba1">
        <ellipse cx="564.45" cy="470.46" rx="271.09" ry="259.22" fill="#da84c3" stroke-width="0"/>
        <path d="m392.12,464.85c-.69-12.1-.21-24.17,1.36-36.18l-1.07,7.98c2.4-17.23,7.04-33.99,13.76-50.04l-3.02,7.17c5.59-13.06,12.46-25.54,20.7-37.12.91-1.29,1.85-2.55,2.79-3.82,3.35-4.55-4.73,5.92-.34.47,2.15-2.66,4.36-5.25,6.65-7.79,4.93-5.47,10.2-10.61,15.73-15.47,11.83-10.39,11.41-31.95,0-42.43-12.61-11.58-29.81-11.08-42.43,0-49.53,43.51-77.87,111.43-74.13,177.23.89,15.64,13.16,30.75,30,30,15.49-.69,30.95-13.22,30-30h0Z" fill="#f2bdd5" stroke-width="0"/>
        <path d="m410.5,541.97c-.04-.07-.07-.14-.11-.21l3.02,7.17c-.02-.06-.04-.13-.05-.19l1.07,7.98c0-.06,0-.11,0-.18l-1.07,7.98c0-.06.02-.1.04-.16l-3.02,7.17c.03-.07.06-.12.11-.18l-4.69,6.07s.08-.08.12-.12l-6.07,4.69c.1-.07.2-.13.32-.18l-7.17,3.02c.17-.07.35-.11.54-.13l-7.98,1.07c.24-.03.49-.02.73,0l-7.98-1.07c.18.03.36.07.53.14-2.39-1.01-4.78-2.02-7.17-3.02.09.04.18.09.27.15-2.02-1.56-4.05-3.13-6.07-4.69.06.05.11.1.16.15-1.56-2.02-3.13-4.05-4.69-6.07.03.04.06.09.08.14l-3.02-7.17c.02.05.03.1.05.15l-1.07-7.98c0,.06,0,.11,0,.17l1.07-7.98c-.01.09-.03.17-.07.25,1.01-2.39,2.02-4.78,3.02-7.17-.03.07-.07.14-.11.21-2.19,3.44-3.38,7.16-3.56,11.15-.89,3.99-.71,7.98.54,11.96.93,3.9,2.72,7.3,5.37,10.2,2.12,3.27,4.92,5.84,8.42,7.73l7.17,3.02c5.32,1.43,10.63,1.43,15.95,0l7.17-3.02c4.51-2.67,8.1-6.25,10.76-10.76,2.81-4.71,4.28-10.27,4.27-15.74,0-2.69-.26-5.5-1.09-8.08-.15-.48-2.8-6.77-3.05-7.24-1.23-2.33-2.98-4.42-4.85-6.29s-3.97-3.62-6.31-4.86c-1.14-.6-3.97-1.68-3.7-1.57,2.37,1-2.58-1.24-3.74-1.57-2.81-.8-5.79-1.15-8.72-1.18-1.37-.01-4.21.54-4.35.56-.53.07-2.98.25-4.33.6-4.7,1.24-10.45,4.38-13.79,8-.91.99-.83,1.05-2.42,3.12,1.19-1.54-1.8,2.09-2.42,3.15-.17.3-2.94,6.87-3.06,7.24-.02.05-.02.11-.04.16-.58,2.65-.94,5.31-1.07,8,0,.03,0,.06,0,.09.02.52.98,7.59,1.09,8.1.6,2.64,1.83,5.15,3.17,7.51,1.89,3.5,4.46,6.3,7.73,8.42,2.9,2.65,6.3,4.44,10.2,5.37,3.99,1.25,7.98,1.43,11.96.54,3.99-.18,7.71-1.37,11.15-3.56l6.07-4.69c3.72-3.74,6.29-8.16,7.72-13.24l1.07-7.98c-.02-5.42-1.38-10.46-4.1-15.14h0Z" fill="#f2bdd5" stroke-width="0"/>
      </g>
    </g>
  </g>
</svg>