<?xml version="1.0" encoding="UTF-8"?><svg id="Layer_1" xmlns="http://www.w3.org/2000/svg" width="2110.21" height="410.75" viewBox="0 0 2110.21 410.75"><g id="wave_top"><g id="top2"><path d="m2110.03,17.17c-37.28-13.51-82.22-25.71-115.83-9.23-5.51,2.7-10.72,6.18-15.53,10.55-17.79,16.13-25.35,41.07-42.55,57.82-22.16,21.57-56.43,25.61-86.98,20.81-30.55-4.8-59.42-17.07-89.61-23.77-45.43-10.08-93.67-7.16-137.56,8.32-9.13,3.22-18.49,7.03-28.12,6.08-11.94-1.17-21.85-9.37-32.9-14.05-20.7-8.76-44.52-4.79-65.99,1.84-66.04,20.4-122.46,63.73-185.94,91.09-56.78,24.48-118.21,35.77-179.05,46.82-69.43,12.61-139.36,25.16-209.93,24.78-69.53-.37-138.31-13.3-206.63-26.18-102.58-19.34-207.47-39.52-297.56-92.25C345.31,78.5,279.64,16.16,197.9,15.16c-45.33-.55-86.66,18.15-123.69,45.21C47.13,80.15,22.36,104.4,0,128.86v281.9h2110.03V17.17Z" fill="#958fdb" stroke-width="0"/></g><g id="top1"><path d="m2110.21,57.9c-33.3-14.01-71.5,6.23-97.16,31.28-25.65,25.05-46.63,56.25-79.02,72.18-24.09,11.85-51.78,13.81-78.21,19.04-64.5,12.74-122.73,45.32-182.48,72.28-187.21,84.45-399.23,115.46-603.51,88.27-88.06-11.72-174.27-33.91-260.21-56.05-68.79-17.72-137.58-35.44-206.37-53.16-67.35-17.35-134.91-34.77-199.47-60.31-62.56-24.75-159.85-62.16-194.17-35.39-34.32,26.77,19.91,34.12,12.92,50.98-4.16,10.03-17.3,12.33-28.29,13.62C112.16,210.22,25.51,252.58.21,329.54v81.21h2110V57.9Z" fill="#7063bf" stroke-width="0"/></g></g></svg>