<?xml version="1.0" encoding="UTF-8"?>
<svg id="Layer_2" data-name="Layer 2" xmlns="http://www.w3.org/2000/svg" viewBox="0 0 441.27 411.59">
  <g id="cat_v1.2" data-name="cat v1.2">
    <g id="BOBA">
      <ellipse id="boba3" cx="220.64" cy="205.79" rx="220.64" ry="205.79" fill="#e5a8d8" stroke-width="0"/>
      <path d="m157.04,98.12c7.32-5.37,15.16-9.85,23.48-13.49-2.39,1.01-4.78,2.02-7.17,3.02,10.35-4.36,21.13-7.3,32.25-8.84l-7.98,1.07c10.61-1.32,21.24-1.33,31.84.04l-7.98-1.07c5.28.76,10.48,1.83,15.62,3.24,15.12,4.15,33.3-5.15,36.9-20.95,3.61-15.85-4.76-32.45-20.95-36.9-42.28-11.62-90.74-4.04-126.32,22.07-6.5,4.77-11.57,9.87-13.79,17.93-1.98,7.18-1.08,16.74,3.02,23.12,8.05,12.49,27.52,20.69,41.05,10.76h0Z" fill="#f2bdd5" stroke-width="0"/>
      <path d="m90.94,143.06c.25-.3.49-.55.78-.8l-6.07,4.69c.4-.31.81-.56,1.27-.78l-7.17,3.02c.47-.19.93-.32,1.43-.41l-7.98,1.07c.51-.06.98-.06,1.49,0l-7.98-1.07c.25.03.49.09.73.16-5.98-14.69-11.95-29.38-17.93-44.07-.14.22-.29.44-.45.65l4.69-6.07c-.57.74-1.2,1.38-1.93,1.97l6.07-4.69c-.75.56-1.52,1.02-2.37,1.41l7.17-3.02c-.62.25-1.23.45-1.88.6,12.3,12.3,24.6,24.6,36.9,36.9l.92-2.8c1.25-3.99,1.43-7.98.54-11.96-.18-3.99-1.37-7.71-3.56-11.15-1.89-3.5-4.46-6.3-7.73-8.42-2.9-2.65-6.3-4.44-10.2-5.37l-7.98-1.07c-5.42.02-10.46,1.38-15.14,4.1l-6.07,4.69c-3.72,3.74-6.29,8.16-7.72,13.24l-.92,2.8c-1.43,5.32-1.43,10.63,0,15.95,1.43,5.08,4,9.49,7.72,13.24,3.74,3.72,8.16,6.29,13.24,7.72,5.32,1.43,10.63,1.43,15.95,0,3.89-.91,7.83-2.49,11.1-4.79,6.26-4.4,9.22-7.17,13.45-13.62,2.71-4.68,4.08-9.73,4.1-15.14.16-4.13-.71-7.98-2.58-11.56-1.21-3.72-3.28-6.94-6.2-9.65-3.74-3.72-8.16-6.29-13.24-7.72-5.97-1.55-13.13-1.86-19.08.06-2.92.94-5.94,1.97-8.51,3.67-.16.1-.31.21-.45.33l-6.07,4.69c-.28.26-.53.51-.78.8-2.93,2.72-4.99,5.94-6.2,9.65-1.88,3.58-2.74,7.43-2.58,11.56-.16,4.13.71,7.98,2.58,11.56,1.21,3.72,3.28,6.94,6.2,9.65l6.07,4.69c4.68,2.71,9.73,4.08,15.14,4.1l7.98-1.07c5.08-1.43,9.49-4,13.24-7.72Z" fill="#f2bdd5" stroke-width="0"/>
    </g>
  </g>
</svg>