<?xml version="1.0" encoding="UTF-8"?><svg id="Layer_1" xmlns="http://www.w3.org/2000/svg" width="1746" height="942.95" viewBox="0 0 1746 942.95"><ellipse id="boba7" cx="822.78" cy="774.28" rx="168.67" ry="167.85" transform="translate(-75.1 1460.05) rotate(-80.63)" fill="#9970c1" stroke-width="0"/><circle id="boba6" cx="1242" cy="624" r="150" fill="#9970c1" stroke-width="0"/><ellipse id="boba3" cx="965" cy="405" rx="223" ry="208" fill="#e5a8d8" stroke-width="0"/><g id="boba2"><circle cx="219.5" cy="635.5" r="219.5" fill="#e5a8d8" stroke-width="0"/><path d="m83.36,648.14c-1.62-5.71-2.83-11.48-3.64-17.36l1.07,7.98c-1.33-10.73-1.28-21.47.1-32.19l-1.07,7.98c1.52-10.7,4.32-21.08,8.43-31.08l-3.02,7.17c3.6-8.44,8.06-16.4,13.42-23.85,4.3-5.97,4.9-16.31,3.02-23.12s-7.3-14.5-13.79-17.93c-6.96-3.68-15.4-5.52-23.12-3.02s-13.13,7.13-17.93,13.79c-25.99,36.1-33.44,85.03-21.33,127.59,4.29,15.09,21.4,25.97,36.9,20.95s25.55-20.73,20.95-36.9h0Z" fill="#f2bdd5" stroke-width="0"/><path d="m102.78,710.01s-.07-.08-.11-.12l4.69,6.07c-.05-.08-.1-.15-.14-.24l3.02,7.17c-.02-.06-.04-.11-.05-.17l1.07,7.98c0-.06,0-.11,0-.16l-1.07,7.98c0-.05.02-.1.04-.15l-3.02,7.17c.03-.07.07-.13.11-.19l-4.69,6.07c.06-.08.13-.15.21-.21l-6.07,4.69c.15-.11.3-.19.47-.26l-7.17,3.02c.23-.09.46-.15.71-.18l-7.98,1.07c.19-.02.37-.02.56,0l-7.98-1.07c.13.02.25.04.37.09l-7.17-3.02c.09.04.17.08.24.14l-6.07-4.69s.07.07.11.12l-4.69-6.07s.05.09.08.14l-3.02-7.17c.02.06.03.11.04.16l-1.07-7.98c0,.07,0,.13,0,.19l1.07-7.98c-.01.1-.04.2-.07.3-1.25,3.99-1.43,7.98-.54,11.96.18,3.99,1.37,7.71,3.56,11.15,1.89,3.5,4.46,6.3,7.73,8.42,2.9,2.65,6.3,4.44,10.2,5.37l7.98,1.07c5.42-.02,10.46-1.38,15.14-4.1l6.07-4.69c3.72-3.74,6.29-8.16,7.72-13.24.02-.08.04-.15.06-.23.12-.46,1.07-7.63,1.09-8.11.12-2.77-.26-5.63-1.12-8.26l-3.02-7.17s-.03-.07-.05-.1c-1.21-2.27-2.86-4.4-4.74-6.14-1.04-.96.6.44-3.13-2.44.69.53-2.06-1.73-3.12-2.41-2.25-1.45-4.83-2.56-7.43-3.14-.06-.01-.13-.03-.19-.04-.5-.12-7.59-1.07-8.11-1.09-2.92-.12-5.87.51-8.72,1.13-.13.03-.26.07-.39.11-.92.31-6.43,2.65-7.3,3.08-.06.03-.13.06-.19.09-4.53,2.56-8.58,6.67-11.21,11.14-1.35,2.3-2.54,4.79-3.13,7.38-.01.03-.02.07-.02.1l-1.07,7.98c0,.05,0,.11,0,.16-.19,4.79,1.64,11.31,4.17,15.37,1.42,2.27,3.1,4.39,4.91,6.37,2.72,2.93,5.94,4.99,9.65,6.2,3.58,1.88,7.43,2.74,11.56,2.58,4.13.16,7.98-.71,11.56-2.58,3.72-1.21,6.94-3.28,9.65-6.2l4.69-6.07c2.71-4.68,4.08-9.73,4.1-15.14l-1.07-7.98c-1.43-5.08-4-9.49-7.72-13.24h0Z" fill="#f2bdd5" stroke-width="0"/></g><g id="boba4"><circle cx="1262" cy="230" r="230" fill="#9970c1" stroke-width="0"/><path d="m1306.96,84.64c9.44,1.49,18.58,4.09,27.43,7.7l-7.17-3.02c6.01,2.54,11.82,5.49,17.37,8.92,2.77,1.71,5.48,3.54,8.11,5.46,5.51,4.03-4.9-4.16-.72-.54,1.14.98,2.31,1.93,3.44,2.92,4.91,4.34,9.29,9.09,13.55,14.05,3.4,3.95-4.26-5.85-1-1.33.88,1.22,1.76,2.44,2.61,3.68,1.98,2.9,3.79,5.9,5.51,8.96,7.69,13.69,27.59,19.44,41.05,10.76s18.99-26.4,10.76-41.05c-21.49-38.26-61.4-67.48-104.99-74.38-8.23-1.3-15.65-1.35-23.12,3.02-6.22,3.64-12.16,10.78-13.79,17.93-1.75,7.68-1.37,16.3,3.02,23.12,3.96,6.14,10.38,12.59,17.93,13.79h0Z" fill="#f2bdd5" stroke-width="0"/><path d="m1408.44,211.41l.18.42-3.02-7.17c.15.45.24.86.31,1.34l-1.07-7.98c.03.47.01.9-.04,1.37l1.07-7.98c-.09.47-.21.88-.37,1.32l3.02-7.17c-.2.43-.41.8-.69,1.18l4.69-6.07-.3.35c15.71,2.02,31.41,4.05,47.12,6.07-.26-.46-.5-.91-.71-1.4l3.02,7.17c-.32-.83-.55-1.65-.7-2.52l1.07,7.98c-.13-1.06-.13-2.07,0-3.13l-1.07,7.98c.05-.35.12-.69.21-1.03-16.71,4.41-33.43,8.83-50.14,13.24l2.12,2.09c2.72,2.93,5.94,4.99,9.65,6.2,3.58,1.88,7.43,2.74,11.56,2.58,4.13.16,7.98-.71,11.56-2.58,3.72-1.21,6.94-3.28,9.65-6.2,5.25-5.72,9.14-13.22,8.79-21.21s-3.02-15.52-8.79-21.21l-2.12-2.09c-7.62-7.53-18.82-10.57-29.19-7.72-9.74,2.68-18.65,10.89-20.95,20.95-.72,3.15-1.13,6.56-1.36,9.78-.15,2.09.35,4.34.62,6.34s.39,4.05,1.05,6.02c.83,2.5,2.11,5.26,3.21,7.65.22.48.45.94.71,1.4,2.67,4.51,6.25,8.1,10.76,10.76,3.44,2.19,7.16,3.38,11.15,3.56,3.99.89,7.98.71,11.96-.54,5.08-1.43,9.49-4,13.24-7.72,2-2.34,4.13-4.67,5.58-7.4,3.03-5.7,3.29-7.19,4.03-12.68.15-1.15.55-3.16.59-4.67.07-2.65-.65-6.05-1.09-8.66-.53-3.1-2.28-6.06-3.51-8.92-1.89-3.5-4.46-6.3-7.73-8.42-2.9-2.65-6.3-4.44-10.2-5.37-3.99-1.25-7.98-1.43-11.96-.54-3.99.18-7.71,1.37-11.15,3.56-6.41,4.13-12.04,10.28-13.79,17.93l-1.07,7.98c.02,5.42,1.38,10.46,4.1,15.14Z" fill="#f2bdd5" stroke-width="0"/></g><g id="boba5"><ellipse cx="1532.5" cy="476.61" rx="213.5" ry="197.61" fill="#da84c3" stroke-width="0"/><path d="m1474.71,377.51c7.4-5.43,15.32-9.96,23.73-13.64l-7.17,3.02c10.46-4.41,21.35-7.38,32.6-8.93l-7.98,1.07c10.72-1.34,21.47-1.35,32.19.04l-7.98-1.07c5.34.76,10.59,1.85,15.79,3.28,15.12,4.15,33.3-5.15,36.9-20.95s-4.76-32.45-20.95-36.9c-42.66-11.72-91.53-4.07-127.43,22.28-6.5,4.77-11.57,9.87-13.79,17.93-1.98,7.18-1.08,16.74,3.02,23.12,8.05,12.49,27.52,20.69,41.05,10.76h0Z" fill="#f2bdd5" stroke-width="0"/><path d="m1407.84,422.98c.25-.3.5-.55.79-.81l-6.07,4.69c.41-.31.82-.56,1.28-.79l-7.17,3.02c.48-.19.94-.32,1.45-.41l-7.98,1.07c.51-.06.99-.06,1.5,0l-7.98-1.07c.25.03.5.09.74.16-5.98-14.69-11.95-29.38-17.93-44.07-.14.23-.29.44-.45.66l4.69-6.07c-.58.75-1.21,1.4-1.95,1.99l6.07-4.69c-.75.57-1.53,1.03-2.4,1.42l7.17-3.02c-.62.25-1.24.45-1.9.61,12.3,12.3,24.6,24.6,36.9,36.9.31-.94.62-1.88.93-2.83,1.25-3.99,1.43-7.98.54-11.96-.18-3.99-1.37-7.71-3.56-11.15-1.89-3.5-4.46-6.3-7.73-8.42-2.9-2.65-6.3-4.44-10.2-5.37l-7.98-1.07c-5.42.02-10.46,1.38-15.14,4.1l-6.07,4.69c-3.72,3.74-6.29,8.16-7.72,13.24-.31.94-.62,1.88-.93,2.83-1.43,5.32-1.43,10.63,0,15.95,1.43,5.08,4,9.49,7.72,13.24,3.74,3.72,8.16,6.29,13.24,7.72,5.32,1.43,10.63,1.43,15.95,0,3.9-.92,7.86-2.5,11.14-4.81,6.27-4.41,9.24-7.2,13.48-13.66,2.71-4.68,4.08-9.73,4.1-15.14.16-4.13-.71-7.98-2.58-11.56-1.21-3.72-3.28-6.94-6.2-9.65-3.74-3.72-8.16-6.29-13.24-7.72-5.98-1.55-13.15-1.86-19.11.06-2.93.94-5.95,1.98-8.53,3.67-.16.1-.31.21-.46.33l-6.07,4.69c-.28.26-.54.52-.79.81-2.93,2.72-4.99,5.94-6.2,9.65-1.88,3.58-2.74,7.43-2.58,11.56-.16,4.13.71,7.98,2.58,11.56,1.21,3.72,3.28,6.94,6.2,9.65l6.07,4.69c4.68,2.71,9.73,4.08,15.14,4.1l7.98-1.07c5.08-1.43,9.49-4,13.24-7.72Z" fill="#f2bdd5" stroke-width="0"/></g><g id="boba1"><ellipse cx="570.5" cy="475.5" rx="274" ry="262" fill="#da84c3" stroke-width="0"/><path d="m396,469.84c-.68-12.01-.23-23.99,1.29-35.92l-1.07,7.98c2.4-17.63,7.11-34.79,13.99-51.2l-3.02,7.17c5.65-13.21,12.61-25.82,20.93-37.54,1.05-1.48,2.25-2.9,3.23-4.42-4.79,7.4-2.26,2.9-.84,1.14,2.29-2.84,4.66-5.62,7.12-8.33,4.91-5.42,10.14-10.52,15.64-15.34,11.83-10.39,11.41-31.95,0-42.43-12.61-11.58-29.81-11.08-42.43,0-50,43.92-78.61,112.48-74.83,178.91.89,15.64,13.16,30.75,30,30,15.49-.69,30.95-13.22,30-30h0Z" fill="#f2bdd5" stroke-width="0"/><path d="m414.62,547.94c-.04-.07-.07-.14-.11-.21l3.02,7.17c-.02-.07-.04-.13-.05-.19l1.07,7.98c0-.06,0-.12,0-.18l-1.07,7.98c0-.06.02-.11.04-.16l-3.02,7.17c.03-.07.06-.13.11-.18l-4.69,6.07s.08-.08.12-.12l-6.07,4.69c.1-.08.21-.13.32-.18l-7.17,3.02c.18-.07.35-.11.54-.13l-7.98,1.07c.25-.03.49-.02.74,0l-7.98-1.07c.19.03.36.07.54.14l-7.17-3.02c.1.04.18.09.27.15l-6.07-4.69c.06.05.11.1.16.16l-4.69-6.07s.06.09.08.14l-3.02-7.17c.02.05.04.1.05.15l-1.07-7.98c0,.06,0,.11,0,.17l1.07-7.98c-.01.09-.04.17-.07.25l3.02-7.17c-.03.07-.07.14-.11.21-2.19,3.44-3.38,7.16-3.56,11.15-.89,3.99-.71,7.98.54,11.96.93,3.9,2.72,7.3,5.37,10.2,2.12,3.27,4.92,5.84,8.42,7.73l7.17,3.02c5.32,1.43,10.63,1.43,15.95,0l7.17-3.02c4.51-2.67,8.1-6.25,10.76-10.76,2.82-4.71,4.28-10.27,4.27-15.75,0-2.7-.26-5.5-1.09-8.08-.16-.49-2.8-6.76-3.05-7.24-1.23-2.34-2.98-4.42-4.85-6.29s-3.97-3.62-6.31-4.86c-1.14-.61-3.96-1.68-3.7-1.57,2.32.98-2.58-1.24-3.74-1.57-2.82-.8-5.8-1.16-8.72-1.19-1.37-.01-4.19.53-4.36.56-.54.07-2.99.25-4.34.6-4.7,1.24-10.45,4.38-13.79,8-.91.99-.83,1.06-2.42,3.12,1.16-1.51-1.8,2.09-2.42,3.15-.18.3-2.94,6.87-3.06,7.24-.02.05-.02.11-.04.16-.58,2.65-.94,5.32-1.07,8,0,.03,0,.06,0,.09.02.53.97,7.58,1.09,8.1.6,2.64,1.83,5.16,3.17,7.51,1.89,3.5,4.46,6.3,7.73,8.42,2.9,2.65,6.3,4.44,10.2,5.37,3.99,1.25,7.98,1.43,11.96.54,3.99-.18,7.71-1.37,11.15-3.56l6.07-4.69c3.72-3.74,6.29-8.16,7.72-13.24l1.07-7.98c-.02-5.42-1.38-10.46-4.1-15.14h0Z" fill="#f2bdd5" stroke-width="0"/></g></svg>