<?xml version="1.0" encoding="UTF-8"?><svg id="Layer_1" xmlns="http://www.w3.org/2000/svg" width="2110.03" height="333.72" viewBox="0 0 2110.03 333.72"><g id="wave_bot"><g id="bot2"><path d="m0,.18v57.85l56.72,38.78c5.78,4.76,11.61,9.5,17.49,14.22,119.83,96.21,260.18,182.33,412.38,171.55,115.33-8.17,220.3-71.49,334.87-87.1,105.97-14.44,215.13,13.52,308.11,66.38,33.45,19.01,65.37,41.31,101.43,54.72,49.24,18.31,103.22,18.93,155.65,15.5,39.66-2.59,79.41-7.42,117.44-18.96,100.45-30.48,180.69-104.6,271-158.09,65.52-38.81,146.29-66.02,219.12-55.91,27.55,3.83,53.97,13,77.99,28.91l37.83,25.39-.02-153.43L0,.18Z" fill="#958fdb" stroke-width="0"/></g><g id="bot1"><path d="m2110.02,0v125s-46.45-3.77-103.73-50.39c-57.27-46.61-186.2-16.59-211.74-1.1-25.54,15.49-7.85,19.82-37.85,43.82-74,43-142.46,66.22-231.16,69.63-81.84,6.37-164.84-32.63-197.84-8.63s45.22,49.91,56,63c10.78,13.09-37.17,16.28-53.62,17.63-117.21,9.62-222.13-66.97-335.05-99.83-164.95-48-403.33,76.2-526.33,44.2-52.71-27.52,56-50,31.51-84.05-21.06-20.02-54.16-19.63-82.6-13.68-51.48,10.78-100.42,35.6-153,36.63C169.24,144.09,65.56,69.32.02,0h2110Z" fill="#7063bf" stroke-width="0"/></g></g></svg>