<?xml version="1.0" encoding="UTF-8"?><svg id="Layer_1" xmlns="http://www.w3.org/2000/svg" width="1029.02" height="1003.11" viewBox="0 0 1029.02 1003.11"><ellipse id="boba13" cx="394.65" cy="960.36" rx="42.75" ry="42.54" transform="translate(-617.14 1193.42) rotate(-80.63)" fill="#da84c3" stroke-width="0"/><ellipse id="boba12" cx="171.85" cy="782.07" rx="108.31" ry="107.79" transform="translate(-627.77 824.33) rotate(-80.63)" fill="#9970c1" stroke-width="0"/><g id="boba11"><ellipse cx="367.34" cy="608.91" rx="82.05" ry="81.65" transform="translate(-293.24 872.23) rotate(-80.63)" fill="#e5a8d8" stroke-width="0"/><path d="m415.78,560.78s-.03-.05-.04-.08l2.52,5.97s-.02-.05-.02-.08l.89,6.65s0-.05,0-.07l-.89,6.65s0-.04.01-.06l-2.52,5.97s.02-.05.04-.07l-3.91,5.06s.03-.03.05-.05l-5.06,3.91s.08-.05.13-.07l-5.97,2.52c.07-.03.14-.04.21-.05l-6.65.89c.1-.01.19,0,.29,0l-6.65-.89c.07.01.14.03.21.06l-5.97-2.52s.07.04.11.06l-5.06-3.91s.04.04.06.06l-3.91-5.06s.02.03.03.05l-2.52-5.97s.01.04.02.06l-.89-6.65s0,.04,0,.07l.89-6.65s-.01.07-.03.1l2.52-5.97s-.03.06-.04.08c-1.83,2.87-2.82,5.97-2.97,9.29-.74,3.32-.6,6.65.45,9.97.77,3.25,2.27,6.09,4.47,8.5,1.76,2.72,4.1,4.87,7.01,6.44l5.97,2.52c4.43,1.19,8.86,1.19,13.29,0l5.97-2.52c3.76-2.22,6.75-5.21,8.97-8.97,2.29-3.84,3.49-8.39,3.48-12.86,0-2.23-.21-4.55-.9-6.69-.03-.11-2.47-5.89-2.53-6-1.01-1.91-2.44-3.62-3.97-5.15s-3.24-2.96-5.15-3.98c-.93-.49-4.77-2.01-3.03-1.28-1-.44-2-.86-3.01-1.27-.01,0-.02,0-.04-.01-2.24-.63-4.61-.91-6.94-.94-1.07-.01-4.98.66-3.47.45.67-.09-2.39.19-3.46.47-3.84,1.01-8.53,3.59-11.25,6.54-.75.81,0,0-1.98,2.56-.66.85-1.32,1.69-1.97,2.55,0,0-.01.02-.02.03-.04.06-2.51,5.91-2.53,6,0,.02,0,.04-.01.06-.49,2.2-.78,4.42-.89,6.66,0,.01,0,.02,0,.03,0,.12.87,6.57.9,6.69.49,2.15,1.49,4.19,2.58,6.11,1.57,2.91,3.72,5.25,6.44,7.01,2.41,2.21,5.25,3.7,8.5,4.47,3.32,1.04,6.65,1.19,9.97.45,3.33-.15,6.43-1.14,9.29-2.97l5.06-3.91c3.1-3.12,5.24-6.8,6.43-11.03l.89-6.65c-.01-4.51-1.15-8.72-3.41-12.62h0Z" fill="#f2bdd5" stroke-width="0"/></g><g id="boba10"><ellipse cx="916.9" cy="112.64" rx="112.64" ry="112.09" transform="translate(656.51 998.98) rotate(-80.63)" fill="#da84c3" stroke-width="0"/><path d="m926.66,67.74c1.1.4,2.2.83,3.3,1.26-3.25-1.4-3.62-1.55-1.11-.45,1.59.75,3.17,1.48,4.73,2.27,3.55,1.79,7.01,3.76,10.36,5.91,1.38.89,2.69,1.85,4.06,2.75,2.16,1.59,1.74,1.24-1.28-1.06.8.63,1.58,1.28,2.35,1.94,2.5,2.15,4.83,4.47,6.99,6.96,8.6,9.91,26.66,9.47,35.36,0,9.69-10.56,9.18-24.79,0-35.36-13.42-15.46-32.61-25.37-51.47-32.44-12.27-4.6-27.94,5.11-30.75,17.46-3.24,14.21,4.33,25.83,17.46,30.75h0Z" fill="#f2bdd5" stroke-width="0"/></g><g id="boba9"><ellipse cx="74.13" cy="167.2" rx="74.47" ry="74.11" transform="translate(-102.91 213.13) rotate(-80.63)" fill="#9970c1" stroke-width="0"/><path d="m63.78,136.78s-.03-.05-.04-.08l2.52,5.97s-.02-.05-.02-.08l.89,6.65s0-.05,0-.07l-.89,6.65s0-.04.01-.06l-2.52,5.97s.02-.05.04-.07l-3.91,5.06s.03-.03.05-.05l-5.06,3.91s.08-.05.13-.07l-5.97,2.52c.07-.03.14-.04.21-.05l-6.65.89c.1-.01.19,0,.29,0l-6.65-.89c.07.01.14.03.21.06l-5.97-2.52s.07.04.11.06l-5.06-3.91s.04.04.06.06l-3.91-5.06s.02.03.03.05l-2.52-5.97s.01.04.02.06l-.89-6.65s0,.04,0,.07l.89-6.65s-.01.07-.03.1l2.52-5.97s-.03.06-.04.08c-1.83,2.87-2.82,5.97-2.97,9.29-.74,3.32-.6,6.65.45,9.97.77,3.25,2.27,6.09,4.47,8.5,1.76,2.72,4.1,4.87,7.01,6.44l5.97,2.52c4.43,1.19,8.86,1.19,13.29,0l5.97-2.52c3.76-2.22,6.75-5.21,8.97-8.97,2.29-3.84,3.49-8.39,3.48-12.86,0-2.23-.21-4.55-.9-6.69-.03-.11-2.47-5.89-2.53-6-1.01-1.91-2.44-3.62-3.97-5.15s-3.24-2.96-5.15-3.98c-.93-.49-4.77-2.01-3.03-1.28-1-.44-2-.86-3.01-1.27-.01,0-.02,0-.04-.01-2.24-.63-4.61-.91-6.94-.94-1.07-.01-4.98.66-3.47.45.67-.09-2.39.19-3.46.47-3.84,1.01-8.53,3.59-11.25,6.54-.75.81,0,0-1.98,2.56-.66.85-1.32,1.69-1.97,2.55,0,0-.01.02-.02.03-.04.06-2.51,5.91-2.53,6,0,.02,0,.04-.01.06-.49,2.2-.78,4.42-.89,6.66,0,.01,0,.02,0,.03,0,.12.87,6.57.9,6.69.49,2.15,1.49,4.19,2.58,6.11,1.57,2.91,3.72,5.25,6.44,7.01,2.41,2.21,5.25,3.7,8.5,4.47,3.32,1.04,6.65,1.19,9.97.45,3.33-.15,6.43-1.14,9.29-2.97l5.06-3.91c3.1-3.12,5.24-6.8,6.43-11.03l.89-6.65c-.01-4.51-1.15-8.72-3.41-12.62h0Z" fill="#f2bdd5" stroke-width="0"/></g></svg>